SplineFontDB: 3.0
FontName: Asap-Symbol
FullName: Asap Symbol
FamilyName: Asap Symbol
Weight: Heavy
Copyright: Copyright (c) 2014, Omnibus-Type (www.omnibus-type.com omnibus.type@gmail.com) with Reserved Font Name 'Asap'
Version: 001.000
ItalicAngle: 0
UnderlinePosition: -50
UnderlineWidth: 50
Ascent: 800
Descent: 200
InvalidEm: 0
sfntRevision: 0x00010000
LayerCount: 2
Layer: 0 0 "Back" 1
Layer: 1 0 "Fore" 0
XUID: [1021 505 -982332716 9457992]
FSType: 8
OS2Version: 3
OS2_WeightWidthSlopeOnly: 0
OS2_UseTypoMetrics: 1
CreationTime: 1418646625
ModificationTime: 1418646625
PfmFamily: 17
TTFWeight: 900
TTFWidth: 5
LineGap: 0
VLineGap: 0
Panose: 2 15 5 4 3 2 2 6 2 3
OS2TypoAscent: 940
OS2TypoAOffset: 0
OS2TypoDescent: -212
OS2TypoDOffset: 0
OS2TypoLinegap: 48
OS2WinAscent: 988
OS2WinAOffset: 0
OS2WinDescent: 212
OS2WinDOffset: 0
HheadAscent: 988
HheadAOffset: 0
HheadDescent: -212
HheadDOffset: 0
OS2SubXSize: 650
OS2SubYSize: 600
OS2SubXOff: 0
OS2SubYOff: 75
OS2SupXSize: 650
OS2SupYSize: 600
OS2SupXOff: 0
OS2SupYOff: 350
OS2StrikeYSize: 50
OS2StrikeYPos: 313
OS2CapHeight: 0
OS2XHeight: 0
OS2Vendor: 'OMNI'
OS2CodePages: 20000001.00000000
OS2UnicodeRanges: 00000003.00000000.00000000.00000000
Lookup: 1 0 0 "'aalt' Access All Alternates lookup 0" { "'aalt' Access All Alternates lookup 0 subtable"  } ['aalt' ('DFLT' <'dflt' > 'grek' <'dflt' > 'latn' <'dflt' > ) ]
Lookup: 3 0 0 "'aalt' Access All Alternates lookup 1" { "'aalt' Access All Alternates lookup 1 subtable"  } ['aalt' ('DFLT' <'dflt' > 'grek' <'dflt' > 'latn' <'dflt' > ) ]
Lookup: 1 0 0 "'sups' Superscript lookup 2" { "'sups' Superscript lookup 2 subtable" ("superior") } ['sups' ('DFLT' <'dflt' > 'grek' <'dflt' > 'latn' <'dflt' > ) ]
Lookup: 4 0 0 "'frac' Diagonal Fractions lookup 3" { "'frac' Diagonal Fractions lookup 3 subtable"  } ['frac' ('DFLT' <'dflt' > 'grek' <'dflt' > 'latn' <'dflt' > ) ]

StartChar: .notdef
Encoding: 65536 -1 0
Width: 514
Flags: MW
HStem: 0 50<87 427 87 507> 650 50<86 426 86 86>
VStem: 7 49<95 605 95 700> 456 51<95 605 605 605>
LayerCount: 2
Back
Fore
SplineSet
7 0 m 1
 7 700 l 1
 507 700 l 1
 507 0 l 1
 7 0 l 1
257 395 m 1
 426 650 l 1
 86 650 l 1
 257 395 l 1
56 605 m 1
 56 95 l 1
 227 350 l 1
 56 605 l 1
287 350 m 1
 456 95 l 1
 456 605 l 1
 287 350 l 1
87 50 m 1
 427 50 l 1
 256 305 l 1
 87 50 l 1
EndSplineSet
EndChar

StartChar: A
Encoding: 65 65 2
Width: 613
Flags: MW
HStem: -2 21G<40.5 58 58 78 525 537 537 560> 162 100<205 405 205 439 170 405> 569 133<305 308 305 305> 682 20G<287 326 326 338>
VStem: 7 599<11 19.5>
LayerCount: 2
Back
Fore
SplineSet
326 702 m 2xd8
 350 702 369 698 374 684 c 2
 603 32 l 2
 605 26 606 22 606 17 c 0
 606 5 593 -2 560 -2 c 2
 537 -2 l 2
 513 -2 494 2 490 16 c 2
 439 162 l 1
 170 162 l 1
 121 16 l 2
 116 3 100 -2 78 -2 c 2
 58 -2 l 2
 23 -2 7 5 7 17 c 0
 7 22 8 26 10 33 c 2
 240 684 l 2
 245 698 264 702 287 702 c 2
 326 702 l 2xd8
308 569 m 1xe8
 305 569 l 1
 301 549 297 528 290 508 c 2
 205 262 l 1
 405 262 l 1
 321 508 l 2
 315 527 311 549 308 569 c 1xe8
EndSplineSet
Substitution2: "Single Substitution lookup 14 subtable" ordfeminine
Substitution2: "'ss06' Style Set 6 lookup 13 subtable" one.ss01
Substitution2: "'ss05' Style Set 5 lookup 11 subtable" A.ss05
Substitution2: "'ss04' Style Set 4 lookup 10 subtable" A.ss04
Substitution2: "'ss03' Style Set 3 lookup 9 subtable" A.ss03
Substitution2: "'ss02' Style Set 2 lookup 8 subtable" A.ss02
Substitution2: "'ss01' Style Set 1 lookup 7 subtable" A.ss01
Substitution2: "'salt' Stylistic Alternatives lookup 6 subtable" A.ss01
AlternateSubs2: "'aalt' Access All Alternates lookup 1 subtable" ordfeminine A.ss01 A.ss02 A.ss03 A.ss04 A.ss05
Position2: "'cpsp' Capital Spacing lookup 1 subtable" dx=5 dy=0 dh=10 dv=0
EndChar

StartChar: Aacute
Encoding: 193 193 3
Width: 613
Flags: MW
HStem: -2 21G<40.5 58 58 78 525 537 537 560> 162 100<205 405 205 439 170 405> 569 133<305 308 305 305> 682 20G<287 326 326 338>
VStem: 7 599<11 19.5>
LayerCount: 2
Back
Fore
SplineSet
387 910 m 0xd8
 423 910 440 907 440 896 c 0
 440 885 432 879 342 779 c 0
 331 767 313 758 280 758 c 0
 261 758 254 761 254 770 c 0
 254 780 269 803 315 883 c 0
 326 903 352 910 387 910 c 0xd8
326 702 m 2
 350 702 369 698 374 684 c 2
 603 32 l 2
 605 26 606 22 606 17 c 0
 606 5 593 -2 560 -2 c 2
 537 -2 l 2
 513 -2 494 2 490 16 c 2
 439 162 l 1
 170 162 l 1
 121 16 l 2
 116 3 100 -2 78 -2 c 2
 58 -2 l 2
 23 -2 7 5 7 17 c 0
 7 22 8 26 10 33 c 2
 240 684 l 2
 245 698 264 702 287 702 c 2
 326 702 l 2
308 569 m 1xe8
 305 569 l 1
 301 549 297 528 290 508 c 2
 205 262 l 1
 405 262 l 1
 321 508 l 2
 315 527 311 549 308 569 c 1xe8
EndSplineSet
Position2: "'cpsp' Capital Spacing lookup 1 subtable" dx=5 dy=0 dh=10 dv=0
EndChar

StartChar: Acircumflex
Encoding: 194 194 4
Width: 613
Flags: MW
HStem: -2 21G<40.5 58 58 78 525 537 537 560> 162 100<205 405 205 439 170 405> 569 133<305 308 305 305> 682 20G<287 326 326 338> 751 144<193.5 316 201 316 297 402 297 413>
VStem: 7 599<11 19.5>
LayerCount: 2
Back
Fore
SplineSet
316 895 m 2xdc
 340 895 358 891 369 874 c 2
 429 780 l 2
 433 774 435 769 435 764 c 0
 435 756 428 751 413 751 c 2
 402 751 l 2
 382 751 365 756 354 769 c 2
 306 828 l 1
 260 769 l 2
 248 755 232 751 211 751 c 2
 201 751 l 2
 186 751 179 755 179 764 c 0
 179 768 181 774 185 780 c 2
 245 874 l 2
 255 891 274 895 297 895 c 2
 316 895 l 2xdc
326 702 m 2
 350 702 369 698 374 684 c 2
 603 32 l 2
 605 26 606 22 606 17 c 0
 606 5 593 -2 560 -2 c 2
 537 -2 l 2
 513 -2 494 2 490 16 c 2
 439 162 l 1
 170 162 l 1
 121 16 l 2
 116 3 100 -2 78 -2 c 2
 58 -2 l 2
 23 -2 7 5 7 17 c 0
 7 22 8 26 10 33 c 2
 240 684 l 2
 245 698 264 702 287 702 c 2
 326 702 l 2
308 569 m 1xec
 305 569 l 1
 301 549 297 528 290 508 c 2
 205 262 l 1
 405 262 l 1
 321 508 l 2
 315 527 311 549 308 569 c 1xec
EndSplineSet
Position2: "'cpsp' Capital Spacing lookup 1 subtable" dx=5 dy=0 dh=10 dv=0
EndChar

StartChar: Adieresis
Encoding: 196 196 5
Width: 613
Flags: MW
HStem: -2 21G<40.5 58 58 78 525 537 537 560> 162 100<205 405 205 439 170 405> 569 133<305 308 305 305> 682 20G<287 326 326 338> 771 108<210 244 370 404>
VStem: 177 100<798 853 789.5 861> 337 100<798 853 789.5 861>
LayerCount: 2
Back
Fore
SplineSet
228 879 m 0xde
 262 879 277 870 277 853 c 2
 277 798 l 2
 277 781 262 771 226 771 c 0
 192 771 177 781 177 798 c 2
 177 853 l 2
 177 869 192 879 228 879 c 0xde
388 879 m 0
 422 879 437 870 437 853 c 2
 437 798 l 2
 437 781 422 771 386 771 c 0
 352 771 337 781 337 798 c 2
 337 853 l 2
 337 869 352 879 388 879 c 0
326 702 m 2
 350 702 369 698 374 684 c 2
 603 32 l 2
 605 26 606 22 606 17 c 0
 606 5 593 -2 560 -2 c 2
 537 -2 l 2
 513 -2 494 2 490 16 c 2
 439 162 l 1
 170 162 l 1
 121 16 l 2
 116 3 100 -2 78 -2 c 2
 58 -2 l 2
 23 -2 7 5 7 17 c 0
 7 22 8 26 10 33 c 2
 240 684 l 2
 245 698 264 702 287 702 c 2
 326 702 l 2
308 569 m 1xee
 305 569 l 1
 301 549 297 528 290 508 c 2
 205 262 l 1
 405 262 l 1
 321 508 l 2
 315 527 311 549 308 569 c 1xee
EndSplineSet
Position2: "'cpsp' Capital Spacing lookup 1 subtable" dx=5 dy=0 dh=10 dv=0
EndChar

StartChar: Agrave
Encoding: 192 192 6
Width: 613
Flags: MW
HStem: -2 21G<40.5 58 58 78 525 537 537 560> 162 100<205 405 205 439 170 405> 569 133<305 308 305 305> 682 20G<287 326 326 338>
VStem: 7 599<11 19.5>
LayerCount: 2
Back
Fore
SplineSet
235 910 m 0xd8
 271 910 296 903 307 883 c 0
 353 803 368 780 368 770 c 0
 368 761 361 758 342 758 c 0
 309 758 291 767 280 779 c 0
 191 879 182 885 182 896 c 0
 182 907 200 910 235 910 c 0xd8
326 702 m 2
 350 702 369 698 374 684 c 2
 603 32 l 2
 605 26 606 22 606 17 c 0
 606 5 593 -2 560 -2 c 2
 537 -2 l 2
 513 -2 494 2 490 16 c 2
 439 162 l 1
 170 162 l 1
 121 16 l 2
 116 3 100 -2 78 -2 c 2
 58 -2 l 2
 23 -2 7 5 7 17 c 0
 7 22 8 26 10 33 c 2
 240 684 l 2
 245 698 264 702 287 702 c 2
 326 702 l 2
308 569 m 1xe8
 305 569 l 1
 301 549 297 528 290 508 c 2
 205 262 l 1
 405 262 l 1
 321 508 l 2
 315 527 311 549 308 569 c 1xe8
EndSplineSet
Position2: "'cpsp' Capital Spacing lookup 1 subtable" dx=5 dy=0 dh=10 dv=0
EndChar

StartChar: Aring
Encoding: 197 197 7
Width: 613
Flags: MW
HStem: -2 21G<40.5 58 58 78 525 537 537 560> 162 100<205 405 205 439 170 405> 569 133<305 308 305 305> 682 20G<287 326 326 338> 735 47<294 318.5 294 331> 869 48<294 318.5>
VStem: 215 48<812.5 837.5 812.5 850.5> 351 46<812.5 837.5>
LayerCount: 2
Back
Fore
SplineSet
306 917 m 0xdf
 356 917 397 876 397 825 c 0
 397 775 356 735 306 735 c 0
 255 735 215 775 215 825 c 0
 215 876 255 917 306 917 c 0xdf
306 869 m 0
 282 869 263 850 263 825 c 0
 263 800 282 782 306 782 c 0
 331 782 351 800 351 825 c 0
 351 850 331 869 306 869 c 0
326 702 m 2
 350 702 369 698 374 684 c 2
 603 32 l 2
 605 26 606 22 606 17 c 0
 606 5 593 -2 560 -2 c 2
 537 -2 l 2
 513 -2 494 2 490 16 c 2
 439 162 l 1
 170 162 l 1
 121 16 l 2
 116 3 100 -2 78 -2 c 2
 58 -2 l 2
 23 -2 7 5 7 17 c 0
 7 22 8 26 10 33 c 2
 240 684 l 2
 245 698 264 702 287 702 c 2
 326 702 l 2
308 569 m 1xef
 305 569 l 1
 301 549 297 528 290 508 c 2
 205 262 l 1
 405 262 l 1
 321 508 l 2
 315 527 311 549 308 569 c 1xef
EndSplineSet
Position2: "'cpsp' Capital Spacing lookup 1 subtable" dx=5 dy=0 dh=10 dv=0
EndChar

StartChar: Atilde
Encoding: 195 195 8
Width: 613
Flags: MW
HStem: -2 21G<40.5 58 58 78 525 537 537 560> 162 100<205 405 205 439 170 405> 569 133<305 308 305 305> 682 20G<287 326 326 338> 763 63<364.5 385 364.5 398> 808 63<227 247>
VStem: 7 599<11 19.5>
LayerCount: 2
Back
Fore
SplineSet
378 826 m 0xda
 392 826 400 837 413 858 c 0
 423 874 427 875 439 870 c 2
 461 861 l 2
 472 856 472 849 467 836 c 0
 448 783 416 763 380 763 c 0xda
 325 763 261 808 233 808 c 0
 221 808 211 798 198 776 c 0
 188.66015625 760.190429688 184 759 172 764 c 2
 150 773 l 2
 139 778 139 785 144 798 c 0
 165 856 200 871 231 871 c 0xd6
 284 871 351 826 378 826 c 0xda
326 702 m 2
 350 702 369 698 374 684 c 2
 603 32 l 2
 605 26 606 22 606 17 c 0
 606 5 593 -2 560 -2 c 2
 537 -2 l 2
 513 -2 494 2 490 16 c 2
 439 162 l 1
 170 162 l 1
 121 16 l 2
 116 3 100 -2 78 -2 c 2
 58 -2 l 2
 23 -2 7 5 7 17 c 0
 7 22 8 26 10 33 c 2
 240 684 l 2
 245 698 264 702 287 702 c 2
 326 702 l 2
308 569 m 1xea
 305 569 l 1
 301 549 297 528 290 508 c 2
 205 262 l 1
 405 262 l 1
 321 508 l 2
 315 527 311 549 308 569 c 1xea
EndSplineSet
Position2: "'cpsp' Capital Spacing lookup 1 subtable" dx=5 dy=0 dh=10 dv=0
EndChar

StartChar: AE
Encoding: 198 198 9
Width: 915
Flags: MW
HStem: 0 100<500.5 817 578 817 578 817> 162 100<226 428 226 448 176 428> 308 100<535 788 535 535> 600 100<474 816 474 474>
VStem: -6 848<11 39>
LayerCount: 2
Back
Fore
SplineSet
816 700 m 2
 833 700 841 688 841 661 c 2
 841 639 l 2
 841 612 833 600 816 600 c 2
 474 600 l 1
 514 408 l 1
 788 408 l 2
 805 408 812 397 812 369 c 2
 812 347 l 2
 812 320 805 308 788 308 c 2
 535 308 l 1
 578 100 l 1
 817 100 l 2
 834 100 842 88 842 61 c 2
 842 39 l 2
 842 12 834 0 817 0 c 2
 511 0 l 2
 490 0 479 9 475 29 c 2
 448 162 l 1
 176 162 l 1
 105 16 l 2
 98 4 83 -2 62 -2 c 2
 43 -2 l 2
 8 -2 -6 5 -6 17 c 0
 -6 22 -5 28 -2 34 c 2
 319 673 l 2
 329 692 342 700 363 700 c 2
 816 700 l 2
375 578 m 1
 372 578 l 1
 348 510 l 1
 226 262 l 1
 428 262 l 1
 377 509 l 1
 375 578 l 1
EndSplineSet
Position2: "'cpsp' Capital Spacing lookup 1 subtable" dx=5 dy=0 dh=10 dv=0
EndChar

StartChar: B
Encoding: 66 66 10
Width: 593
Flags: MW
HStem: 0 100<107 327 202 309> 308 100<202 297 297 310 202 297> 600 100<202 296 202 202>
VStem: 85 117<100 308 408 600> 416 120<489.5 538.5> 445 120<174.5 240>
LayerCount: 2
Back
Fore
SplineSet
307 700 m 2xf8
 464 700 536 628 536 523 c 0xf8
 536 456 486 391 427 371 c 1
 427 367 l 1
 462 360 565 310 565 202 c 0xf4
 565 67 477 0 309 0 c 2
 119 0 l 2
 95 0 85 10 85 34 c 2
 85 666 l 2
 85 690 95 700 119 700 c 2
 307 700 l 2xf8
296 600 m 2
 202 600 l 1
 202 408 l 1
 297 408 l 2
 369 408 416 452 416 507 c 0
 416 570 379 600 296 600 c 2
310 308 m 2
 202 308 l 1
 202 100 l 1
 327 100 l 2
 403 100 445 141 445 208 c 0xf4
 445 272 399 308 310 308 c 2
EndSplineSet
Substitution2: "'ss06' Style Set 6 lookup 13 subtable" two.ss01
Substitution2: "'ss05' Style Set 5 lookup 11 subtable" B.ss05
Substitution2: "'ss04' Style Set 4 lookup 10 subtable" B.ss04
Substitution2: "'ss03' Style Set 3 lookup 9 subtable" B.ss03
Substitution2: "'ss02' Style Set 2 lookup 8 subtable" B.ss02
Substitution2: "'ss01' Style Set 1 lookup 7 subtable" B.ss01
Substitution2: "'salt' Stylistic Alternatives lookup 6 subtable" B.ss01
AlternateSubs2: "'aalt' Access All Alternates lookup 1 subtable" B.ss01 B.ss02 B.ss03 B.ss04 B.ss05
Position2: "'cpsp' Capital Spacing lookup 1 subtable" dx=5 dy=0 dh=10 dv=0
EndChar

StartChar: C
Encoding: 67 67 11
Width: 619
Flags: MW
HStem: -7 100<307.5 427 307.5 427.5> 606 101<309.5 427.5 271.5 428>
VStem: 52 120<263 438 263 470>
LayerCount: 2
Back
Fore
SplineSet
380 707 m 0
 475 707 579 675 579 641 c 0
 579 620 550 568 532 568 c 0
 520 568 476 606 380 606 c 0
 239 606 172 526 172 350 c 0
 172 176 238 93 377 93 c 0
 477 93 532 139 546 139 c 0
 567 139 591 85 591 70 c 0
 591 29 478 -7 377 -7 c 0
 156 -7 52 106 52 351 c 0
 52 589 163 707 380 707 c 0
EndSplineSet
Substitution2: "'ss06' Style Set 6 lookup 13 subtable" three.ss01
Substitution2: "'ss05' Style Set 5 lookup 11 subtable" C.ss05
Substitution2: "'ss04' Style Set 4 lookup 10 subtable" C.ss04
Substitution2: "'ss03' Style Set 3 lookup 9 subtable" C.ss03
Substitution2: "'ss02' Style Set 2 lookup 8 subtable" C.ss02
Substitution2: "'ss01' Style Set 1 lookup 7 subtable" C.ss01
Substitution2: "'salt' Stylistic Alternatives lookup 6 subtable" C.ss01
AlternateSubs2: "'aalt' Access All Alternates lookup 1 subtable" C.ss01 C.ss02 C.ss03 C.ss04 C.ss05
Position2: "'cpsp' Capital Spacing lookup 1 subtable" dx=5 dy=0 dh=10 dv=0
EndChar

StartChar: Ccedilla
Encoding: 199 199 12
Width: 619
Flags: MW
HStem: -211 60 -6.74001 99.74 -5.8 98.8 606 101<309.5 427.5 271.5 428>
VStem: 52 120<263 438 263 470> 380.99 85
LayerCount: 2
Back
Fore
SplineSet
591 70 m 0xd8
 591 31.01953125 488.899414062 -3.4306640625 392.049804688 -6.740234375 c 1
 382.080078125 -43.1201171875 l 1xdc
 412.450195312 -44.48046875 465.990234375 -58.4306640625 465.990234375 -117.000976562 c 0
 465.990234375 -191.000976562 411.990234375 -211.000976562 348.990234375 -211.000976562 c 0
 298.990234375 -211.000976562 226.990234375 -194.000976562 226.990234375 -165.000976562 c 0
 226.990234375 -143.000976562 239.990234375 -131.000976562 251.990234375 -131.000976562 c 0
 270.990234375 -131.000976562 297.990234375 -151.000976562 337.990234375 -151.000976562 c 0
 359.990234375 -151.000976562 380.990234375 -147.000976562 380.990234375 -124.000976562 c 0
 380.990234375 -88.0009765625 319.990234375 -96.0009765625 319.990234375 -71.0009765625 c 0
 319.990234375 -64.390625 321.780273438 -58.6708984375 338.830078125 -5.80078125 c 1xbc
 144 6.8896484375 52 120.559570312 52 351 c 0
 52 589 163 707 380 707 c 0
 475 707 579 675 579 641 c 0
 579 620 550 568 532 568 c 0
 520 568 476 606 380 606 c 0
 239 606 172 526 172 350 c 0
 172 176 238 93 377 93 c 0
 477 93 532 139 546 139 c 0
 567 139 591 85 591 70 c 0xd8
EndSplineSet
Position2: "'cpsp' Capital Spacing lookup 1 subtable" dx=5 dy=0 dh=10 dv=0
EndChar

StartChar: D
Encoding: 68 68 13
Width: 695
Flags: MW
HStem: 0 100<107 327 202 327 327 331> 600 100<202 327 202 202>
VStem: 85 117<100 600 100 666 100 678> 524 121<262.5 437>
LayerCount: 2
Back
Fore
SplineSet
331 700 m 2
 518 700 645 595 645 350 c 0
 645 105 518 0 331 0 c 2
 119 0 l 2
 95 0 85 10 85 34 c 2
 85 666 l 2
 85 690 95 700 119 700 c 2
 331 700 l 2
327 600 m 2
 202 600 l 1
 202 100 l 1
 327 100 l 2
 444 100 524 175 524 350 c 0
 524 524 444 600 327 600 c 2
EndSplineSet
Substitution2: "'ss06' Style Set 6 lookup 13 subtable" four.ss01
Substitution2: "'ss05' Style Set 5 lookup 11 subtable" D.ss05
Substitution2: "'ss04' Style Set 4 lookup 10 subtable" D.ss04
Substitution2: "'ss03' Style Set 3 lookup 9 subtable" D.ss03
Substitution2: "'ss02' Style Set 2 lookup 8 subtable" D.ss02
Substitution2: "'ss01' Style Set 1 lookup 7 subtable" D.ss01
Substitution2: "'salt' Stylistic Alternatives lookup 6 subtable" D.ss01
AlternateSubs2: "'aalt' Access All Alternates lookup 1 subtable" D.ss01 D.ss02 D.ss03 D.ss04 D.ss05
Position2: "'cpsp' Capital Spacing lookup 1 subtable" dx=5 dy=0 dh=10 dv=0
EndChar

StartChar: Eth
Encoding: 208 208 14
Width: 696
Flags: MW
HStem: 0 100<101 328 196 328 328 332> 307 100<20.5 79 29 79 196 284> 600 100<196 328 196 196>
VStem: 79 117<100 307 100 307 100 307 407 600> 527 120<262.5 437>
LayerCount: 2
Back
Fore
SplineSet
332 700 m 2
 519 700 647 595 647 350 c 0
 647 105 519 0 332 0 c 2
 113 0 l 2
 89 0 79 10 79 34 c 2
 79 307 l 1
 29 307 l 2
 12 307 5 319 5 346 c 2
 5 368 l 2
 5 395 12 407 29 407 c 2
 79 407 l 1
 79 666 l 2
 79 690 89 700 113 700 c 2
 332 700 l 2
328 600 m 2
 196 600 l 1
 196 407 l 1
 284 407 l 2
 301 407 308 395 308 368 c 2
 308 346 l 2
 308 319 301 307 284 307 c 2
 196 307 l 1
 196 100 l 1
 328 100 l 2
 445 100 527 175 527 350 c 0
 527 524 445 600 328 600 c 2
EndSplineSet
Position2: "'cpsp' Capital Spacing lookup 1 subtable" dx=5 dy=0 dh=10 dv=0
EndChar

StartChar: E
Encoding: 69 69 15
Width: 546
Flags: MW
HStem: 0 100<107 477 202 477 202 477> 308 100<202 447 202 447> 600 100<202 476 202 202>
VStem: 85 117<100 308 408 600>
LayerCount: 2
Back
Fore
SplineSet
476 700 m 2
 493 700 500 688 500 661 c 2
 500 639 l 2
 500 612 493 600 476 600 c 2
 202 600 l 1
 202 408 l 1
 447 408 l 2
 464 408 471 397 471 369 c 2
 471 347 l 2
 471 320 464 308 447 308 c 2
 202 308 l 1
 202 100 l 1
 477 100 l 2
 494 100 501 88 501 61 c 2
 501 39 l 2
 501 12 494 0 477 0 c 2
 119 0 l 2
 95 0 85 10 85 34 c 2
 85 666 l 2
 85 690 95 700 119 700 c 2
 476 700 l 2
EndSplineSet
Substitution2: "'ss06' Style Set 6 lookup 13 subtable" five.ss01
Substitution2: "'ss05' Style Set 5 lookup 11 subtable" E.ss05
Substitution2: "'ss04' Style Set 4 lookup 10 subtable" E.ss04
Substitution2: "'ss03' Style Set 3 lookup 9 subtable" E.ss03
Substitution2: "'ss02' Style Set 2 lookup 8 subtable" E.ss02
Substitution2: "'ss01' Style Set 1 lookup 7 subtable" E.ss01
Substitution2: "'salt' Stylistic Alternatives lookup 6 subtable" E.ss01
AlternateSubs2: "'aalt' Access All Alternates lookup 1 subtable" E.ss01 E.ss02 E.ss03 E.ss04 E.ss05
Position2: "'cpsp' Capital Spacing lookup 1 subtable" dx=5 dy=0 dh=10 dv=0
EndChar

StartChar: Eacute
Encoding: 201 201 16
Width: 546
Flags: MW
HStem: 0 100<107 477 202 477 202 477> 308 100<202 447 202 447> 600 100<202 476 202 202>
VStem: 85 117<100 308 408 600>
LayerCount: 2
Back
Fore
SplineSet
376 910 m 0
 412 910 429 907 429 896 c 0
 429 885 421 879 331 779 c 0
 320 767 302 758 269 758 c 0
 250 758 243 761 243 770 c 0
 243 780 258 803 304 883 c 0
 315 903 341 910 376 910 c 0
476 700 m 2
 493 700 500 688 500 661 c 2
 500 639 l 2
 500 612 493 600 476 600 c 2
 202 600 l 1
 202 408 l 1
 447 408 l 2
 464 408 471 397 471 369 c 2
 471 347 l 2
 471 320 464 308 447 308 c 2
 202 308 l 1
 202 100 l 1
 477 100 l 2
 494 100 501 88 501 61 c 2
 501 39 l 2
 501 12 494 0 477 0 c 2
 119 0 l 2
 95 0 85 10 85 34 c 2
 85 666 l 2
 85 690 95 700 119 700 c 2
 476 700 l 2
EndSplineSet
Position2: "'cpsp' Capital Spacing lookup 1 subtable" dx=5 dy=0 dh=10 dv=0
EndChar

StartChar: Ecircumflex
Encoding: 202 202 17
Width: 546
Flags: MW
HStem: 0 100<107 477 202 477 202 477> 308 100<202 447 202 447> 600 100<202 476 202 202> 751 144<182.5 305 190 305 286 391 286 402>
VStem: 85 117<100 308 408 600>
LayerCount: 2
Back
Fore
SplineSet
305 895 m 2
 329 895 347 891 358 874 c 2
 418 780 l 2
 422 774 424 769 424 764 c 0
 424 756 417 751 402 751 c 2
 391 751 l 2
 371 751 354 756 343 769 c 2
 295 828 l 1
 249 769 l 2
 237 755 221 751 200 751 c 2
 190 751 l 2
 175 751 168 755 168 764 c 0
 168 768 170 774 174 780 c 2
 234 874 l 2
 244 891 263 895 286 895 c 2
 305 895 l 2
476 700 m 2
 493 700 500 688 500 661 c 2
 500 639 l 2
 500 612 493 600 476 600 c 2
 202 600 l 1
 202 408 l 1
 447 408 l 2
 464 408 471 397 471 369 c 2
 471 347 l 2
 471 320 464 308 447 308 c 2
 202 308 l 1
 202 100 l 1
 477 100 l 2
 494 100 501 88 501 61 c 2
 501 39 l 2
 501 12 494 0 477 0 c 2
 119 0 l 2
 95 0 85 10 85 34 c 2
 85 666 l 2
 85 690 95 700 119 700 c 2
 476 700 l 2
EndSplineSet
Position2: "'cpsp' Capital Spacing lookup 1 subtable" dx=5 dy=0 dh=10 dv=0
EndChar

StartChar: Edieresis
Encoding: 203 203 18
Width: 546
Flags: MW
HStem: 0 100<107 477 202 477 202 477> 308 100<202 447 202 447> 600 100<202 476 202 202> 771 108<199 233 359 393>
VStem: 85 117<100 308 408 600> 166 100<798 853 789.5 861> 326 100<798 853 789.5 861>
LayerCount: 2
Back
Fore
SplineSet
217 879 m 0xf6
 251 879 266 870 266 853 c 2
 266 798 l 2
 266 781 251 771 215 771 c 0
 181 771 166 781 166 798 c 2
 166 853 l 2
 166 869 181 879 217 879 c 0xf6
377 879 m 0
 411 879 426 870 426 853 c 2
 426 798 l 2
 426 781 411 771 375 771 c 0
 341 771 326 781 326 798 c 2
 326 853 l 2
 326 869 341 879 377 879 c 0
476 700 m 2
 493 700 500 688 500 661 c 2
 500 639 l 2
 500 612 493 600 476 600 c 2
 202 600 l 1
 202 408 l 1
 447 408 l 2
 464 408 471 397 471 369 c 2
 471 347 l 2
 471 320 464 308 447 308 c 2
 202 308 l 1
 202 100 l 1
 477 100 l 2
 494 100 501 88 501 61 c 2
 501 39 l 2
 501 12 494 0 477 0 c 2
 119 0 l 2
 95 0 85 10 85 34 c 2
 85 666 l 2
 85 690 95 700 119 700 c 2xea
 476 700 l 2
EndSplineSet
Position2: "'cpsp' Capital Spacing lookup 1 subtable" dx=5 dy=0 dh=10 dv=0
EndChar

StartChar: Egrave
Encoding: 200 200 19
Width: 546
Flags: MW
HStem: 0 100<107 477 202 477 202 477> 308 100<202 447 202 447> 600 100<202 476 202 202>
VStem: 85 117<100 308 408 600>
LayerCount: 2
Back
Fore
SplineSet
224 910 m 0
 260 910 285 903 296 883 c 0
 342 803 357 780 357 770 c 0
 357 761 350 758 331 758 c 0
 298 758 280 767 269 779 c 0
 180 879 171 885 171 896 c 0
 171 907 189 910 224 910 c 0
476 700 m 2
 493 700 500 688 500 661 c 2
 500 639 l 2
 500 612 493 600 476 600 c 2
 202 600 l 1
 202 408 l 1
 447 408 l 2
 464 408 471 397 471 369 c 2
 471 347 l 2
 471 320 464 308 447 308 c 2
 202 308 l 1
 202 100 l 1
 477 100 l 2
 494 100 501 88 501 61 c 2
 501 39 l 2
 501 12 494 0 477 0 c 2
 119 0 l 2
 95 0 85 10 85 34 c 2
 85 666 l 2
 85 690 95 700 119 700 c 2
 476 700 l 2
EndSplineSet
Position2: "'cpsp' Capital Spacing lookup 1 subtable" dx=5 dy=0 dh=10 dv=0
EndChar

StartChar: F
Encoding: 70 70 20
Width: 503
Flags: MW
HStem: -2 21G<117 134 134 153> 308 100<202 429 202 429> 600 100<202 443 202 202>
VStem: 85 117<24 308 408 600>
LayerCount: 2
Back
Fore
SplineSet
443 700 m 2
 460 700 467 688 467 661 c 2
 467 639 l 2
 467 612 460 600 443 600 c 2
 202 600 l 1
 202 408 l 1
 429 408 l 2
 447 408 454 396 454 369 c 2
 454 347 l 2
 454 319 447 308 429 308 c 2
 202 308 l 1
 202 24 l 2
 202 7 187 -2 153 -2 c 2
 134 -2 l 2
 100 -2 85 7 85 24 c 2
 85 666 l 2
 85 690 95 700 119 700 c 2
 443 700 l 2
EndSplineSet
Substitution2: "'ss06' Style Set 6 lookup 13 subtable" six.ss01
Substitution2: "'ss05' Style Set 5 lookup 11 subtable" F.ss05
Substitution2: "'ss04' Style Set 4 lookup 10 subtable" F.ss04
Substitution2: "'ss03' Style Set 3 lookup 9 subtable" F.ss03
Substitution2: "'ss02' Style Set 2 lookup 8 subtable" F.ss02
Substitution2: "'ss01' Style Set 1 lookup 7 subtable" F.ss01
Substitution2: "'salt' Stylistic Alternatives lookup 6 subtable" F.ss01
AlternateSubs2: "'aalt' Access All Alternates lookup 1 subtable" F.ss01 F.ss02 F.ss03 F.ss04 F.ss05
Position2: "'cpsp' Capital Spacing lookup 1 subtable" dx=5 dy=0 dh=10 dv=0
EndChar

StartChar: G
Encoding: 71 71 21
Width: 672
Flags: MW
HStem: -7 100<298 394 298 417.5> 273 100<367 563 376 480> 606 101<304.5 427.5 273 428>
VStem: 52 120<276 434 276 469.5> 480 117<104 273 273 273>
LayerCount: 2
Back
Fore
SplineSet
380 707 m 0
 475 707 581 675 581 641 c 0
 581 620 552 568 534 568 c 0
 522 568 476 606 380 606 c 0
 229 606 172 516 172 352 c 0
 172 200 223 93 373 93 c 0
 415 93 453 97 480 104 c 1
 480 273 l 1
 376 273 l 2
 358 273 351 284 351 312 c 2
 351 334 l 2
 351 362 358 373 376 373 c 2
 563 373 l 2
 587 373 597 363 597 339 c 2
 597 68 l 2
 597 7 465 -7 370 -7 c 0
 160 -7 52 106 52 347 c 0
 52 592 166 707 380 707 c 0
EndSplineSet
Substitution2: "'ss06' Style Set 6 lookup 13 subtable" seven.ss01
Substitution2: "'ss05' Style Set 5 lookup 11 subtable" G.ss05
Substitution2: "'ss04' Style Set 4 lookup 10 subtable" G.ss04
Substitution2: "'ss03' Style Set 3 lookup 9 subtable" G.ss03
Substitution2: "'ss02' Style Set 2 lookup 8 subtable" G.ss02
Substitution2: "'ss01' Style Set 1 lookup 7 subtable" G.ss01
Substitution2: "'salt' Stylistic Alternatives lookup 6 subtable" G.ss01
AlternateSubs2: "'aalt' Access All Alternates lookup 1 subtable" G.ss01 G.ss02 G.ss03 G.ss04 G.ss05
Position2: "'cpsp' Capital Spacing lookup 1 subtable" dx=5 dy=0 dh=10 dv=0
EndChar

StartChar: H
Encoding: 72 72 22
Width: 733
Flags: MW
HStem: -2 21G<123 140 140 160 562 579 579 599> 308 100<208 530 208 530> 682 20G<140 160 160 177 579 599 599 616>
VStem: 91 117<24 308 408 676> 530 117<24 308 308 308 408 676>
LayerCount: 2
Back
Fore
SplineSet
599 702 m 2
 633 702 647 693 647 676 c 2
 647 24 l 2
 647 7 633 -2 599 -2 c 2
 579 -2 l 2
 545 -2 530 7 530 24 c 2
 530 308 l 1
 208 308 l 1
 208 24 l 2
 208 7 194 -2 160 -2 c 2
 140 -2 l 2
 106 -2 91 7 91 24 c 2
 91 676 l 2
 91 693 106 702 140 702 c 2
 160 702 l 2
 194 702 208 693 208 676 c 2
 208 408 l 1
 530 408 l 1
 530 676 l 2
 530 693 545 702 579 702 c 2
 599 702 l 2
EndSplineSet
Substitution2: "'ss06' Style Set 6 lookup 13 subtable" eight.ss01
Substitution2: "'ss05' Style Set 5 lookup 11 subtable" H.ss05
Substitution2: "'ss04' Style Set 4 lookup 10 subtable" H.ss04
Substitution2: "'ss02' Style Set 2 lookup 8 subtable" H.ss02
Substitution2: "'ss01' Style Set 1 lookup 7 subtable" H.ss01
Substitution2: "'salt' Stylistic Alternatives lookup 6 subtable" H.ss01
AlternateSubs2: "'aalt' Access All Alternates lookup 1 subtable" H.ss01 H.ss02 H.ss04 H.ss05
Position2: "'cpsp' Capital Spacing lookup 1 subtable" dx=5 dy=0 dh=10 dv=0
EndChar

StartChar: I
Encoding: 73 73 23
Width: 282
Flags: MW
HStem: -2 21G<114 131 131 151> 682 20G<131 151 151 168>
VStem: 82 117<24 676>
LayerCount: 2
Back
Fore
SplineSet
151 702 m 2
 185 702 199 693 199 676 c 2
 199 24 l 2
 199 7 185 -2 151 -2 c 2
 131 -2 l 2
 97 -2 82 7 82 24 c 2
 82 676 l 2
 82 693 97 702 131 702 c 2
 151 702 l 2
EndSplineSet
Substitution2: "'ss06' Style Set 6 lookup 13 subtable" one.ss02
Substitution2: "'ss05' Style Set 5 lookup 11 subtable" I.ss05
Substitution2: "'ss04' Style Set 4 lookup 10 subtable" I.ss04
Substitution2: "'ss02' Style Set 2 lookup 8 subtable" I.ss02
Substitution2: "'ss01' Style Set 1 lookup 7 subtable" I.ss01
Substitution2: "'salt' Stylistic Alternatives lookup 6 subtable" I.ss01
AlternateSubs2: "'aalt' Access All Alternates lookup 1 subtable" I.ss01 I.ss02 I.ss04 I.ss05
Position2: "'cpsp' Capital Spacing lookup 1 subtable" dx=5 dy=0 dh=10 dv=0
EndChar

StartChar: Iacute
Encoding: 205 205 24
Width: 282
Flags: MW
HStem: -2 21G<114 131 131 151> 682 20G<131 151 151 168>
VStem: 82 117<24 676>
LayerCount: 2
Back
Fore
SplineSet
221 910 m 0
 257 910 274 907 274 896 c 0
 274 885 266 879 176 779 c 0
 165 767 147 758 114 758 c 0
 95 758 88 761 88 770 c 0
 88 780 103 803 149 883 c 0
 160 903 186 910 221 910 c 0
151 702 m 2
 185 702 199 693 199 676 c 2
 199 24 l 2
 199 7 185 -2 151 -2 c 2
 131 -2 l 2
 97 -2 82 7 82 24 c 2
 82 676 l 2
 82 693 97 702 131 702 c 2
 151 702 l 2
EndSplineSet
Position2: "'cpsp' Capital Spacing lookup 1 subtable" dx=5 dy=0 dh=10 dv=0
EndChar

StartChar: Icircumflex
Encoding: 206 206 25
Width: 282
Flags: MW
HStem: -2 21G<114 131 131 151> 682 20G<131 151 151 168> 751 144<27.5 150 35 150 131 236 131 247>
VStem: 82 117<24 676>
LayerCount: 2
Back
Fore
SplineSet
150 895 m 2
 174 895 192 891 203 874 c 2
 263 780 l 2
 267 774 269 769 269 764 c 0
 269 756 262 751 247 751 c 2
 236 751 l 2
 216 751 199 756 188 769 c 2
 140 828 l 1
 94 769 l 2
 82 755 66 751 45 751 c 2
 35 751 l 2
 20 751 13 755 13 764 c 0
 13 768 15 774 19 780 c 2
 79 874 l 2
 89 891 108 895 131 895 c 2
 150 895 l 2
151 702 m 2
 185 702 199 693 199 676 c 2
 199 24 l 2
 199 7 185 -2 151 -2 c 2
 131 -2 l 2
 97 -2 82 7 82 24 c 2
 82 676 l 2
 82 693 97 702 131 702 c 2
 151 702 l 2
EndSplineSet
Position2: "'cpsp' Capital Spacing lookup 1 subtable" dx=5 dy=0 dh=10 dv=0
EndChar

StartChar: Idieresis
Encoding: 207 207 26
Width: 282
Flags: MW
HStem: -2 21G<114 131 131 151> 682 20G<131 151 151 168> 771 108<44 78 204 238>
VStem: 11 100<798 853 789.5 861> 82 117<24 676> 171 100<798 853 789.5 861>
LayerCount: 2
Back
Fore
SplineSet
62 879 m 0xf4
 96 879 111 870 111 853 c 2
 111 798 l 2
 111 781 96 771 60 771 c 0
 26 771 11 781 11 798 c 2
 11 853 l 2
 11 869 26 879 62 879 c 0xf4
222 879 m 0
 256 879 271 870 271 853 c 2
 271 798 l 2
 271 781 256 771 220 771 c 0
 186 771 171 781 171 798 c 2
 171 853 l 2
 171 869 186 879 222 879 c 0
151 702 m 2xe8
 185 702 199 693 199 676 c 2
 199 24 l 2
 199 7 185 -2 151 -2 c 2
 131 -2 l 2
 97 -2 82 7 82 24 c 2
 82 676 l 2
 82 693 97 702 131 702 c 2
 151 702 l 2xe8
EndSplineSet
Position2: "'cpsp' Capital Spacing lookup 1 subtable" dx=5 dy=0 dh=10 dv=0
EndChar

StartChar: Igrave
Encoding: 204 204 27
Width: 282
Flags: MW
HStem: -2 21G<114 131 131 151> 682 20G<131 151 151 168>
VStem: 82 117<24 676>
LayerCount: 2
Back
Fore
SplineSet
69 910 m 0
 105 910 130 903 141 883 c 0
 187 803 202 780 202 770 c 0
 202 761 195 758 176 758 c 0
 143 758 125 767 114 779 c 0
 25 879 16 885 16 896 c 0
 16 907 34 910 69 910 c 0
151 702 m 2
 185 702 199 693 199 676 c 2
 199 24 l 2
 199 7 185 -2 151 -2 c 2
 131 -2 l 2
 97 -2 82 7 82 24 c 2
 82 676 l 2
 82 693 97 702 131 702 c 2
 151 702 l 2
EndSplineSet
Position2: "'cpsp' Capital Spacing lookup 1 subtable" dx=5 dy=0 dh=10 dv=0
EndChar

StartChar: J
Encoding: 74 74 28
Width: 402
Flags: MW
HStem: -7 101<98 134 77 190> 682 20G<258 277 277 294>
VStem: 209 117<209 676>
LayerCount: 2
Back
Fore
SplineSet
277 702 m 2
 311 702 326 693 326 676 c 2
 326 204 l 2
 326 77 266 -7 114 -7 c 0
 82 -7 3 -3 3 31 c 0
 3 41 11 102 33 103 c 0
 42 103 61 94 93 94 c 0
 175 94 209 129 209 209 c 2
 209 676 l 2
 209 693 223 702 258 702 c 2
 277 702 l 2
EndSplineSet
Substitution2: "'ss06' Style Set 6 lookup 13 subtable" two.ss02
Substitution2: "'ss05' Style Set 5 lookup 11 subtable" J.ss05
Substitution2: "'ss04' Style Set 4 lookup 10 subtable" J.ss04
Substitution2: "'ss02' Style Set 2 lookup 8 subtable" J.ss02
Substitution2: "'ss01' Style Set 1 lookup 7 subtable" J.ss01
Substitution2: "'salt' Stylistic Alternatives lookup 6 subtable" J.ss01
AlternateSubs2: "'aalt' Access All Alternates lookup 1 subtable" J.ss01 J.ss02 J.ss04 J.ss05
Position2: "'cpsp' Capital Spacing lookup 1 subtable" dx=5 dy=0 dh=10 dv=0
EndChar

StartChar: K
Encoding: 75 75 29
Width: 576
Flags: MW
HStem: -2 21G<117 134 134 154 494.5 507 507 539> 682 20G<134 154 154 171 477 504 504 519>
VStem: 85 117<24 327 386 676>
LayerCount: 2
Back
Fore
SplineSet
504 702 m 2
 534 702 548 696 548 688 c 0
 548 683 545 676 539 668 c 2
 313 363 l 1
 580 31 l 2
 586 22 588 17 588 12 c 0
 588 2 574 -2 539 -2 c 2
 507 -2 l 2
 482 -2 460 0 449 14 c 2
 206 328 l 1
 202 327 l 1
 202 24 l 2
 202 7 188 -2 154 -2 c 2
 134 -2 l 2
 100 -2 85 7 85 24 c 2
 85 676 l 2
 85 693 100 702 134 702 c 2
 154 702 l 2
 188 702 202 693 202 676 c 2
 202 386 l 1
 206 386 l 1
 421 686 l 2
 430 699 452 702 477 702 c 2
 504 702 l 2
EndSplineSet
Substitution2: "'ss06' Style Set 6 lookup 13 subtable" three.ss02
Substitution2: "'ss04' Style Set 4 lookup 10 subtable" K.ss04
Substitution2: "'ss02' Style Set 2 lookup 8 subtable" K.ss02
Substitution2: "'ss01' Style Set 1 lookup 7 subtable" K.ss01
Substitution2: "'salt' Stylistic Alternatives lookup 6 subtable" K.ss01
AlternateSubs2: "'aalt' Access All Alternates lookup 1 subtable" K.ss01 K.ss02 K.ss04
Position2: "'cpsp' Capital Spacing lookup 1 subtable" dx=5 dy=0 dh=10 dv=0
EndChar

StartChar: L
Encoding: 76 76 30
Width: 484
Flags: MW
HStem: 0 100<107 454 202 454 202 454> 682 20G<134 153 153 170>
VStem: 85 117<100 676 100 676 100 684.5>
LayerCount: 2
Back
Fore
SplineSet
153 702 m 2
 187 702 202 693 202 676 c 2
 202 100 l 1
 454 100 l 2
 471 100 478 88 478 61 c 2
 478 39 l 2
 478 12 471 0 454 0 c 2
 119 0 l 2
 95 0 85 10 85 34 c 2
 85 676 l 2
 85 693 100 702 134 702 c 2
 153 702 l 2
EndSplineSet
Substitution2: "'ss06' Style Set 6 lookup 13 subtable" four.ss02
Substitution2: "'ss04' Style Set 4 lookup 10 subtable" L.ss04
Substitution2: "'ss01' Style Set 1 lookup 7 subtable" L.ss01
Substitution2: "'salt' Stylistic Alternatives lookup 6 subtable" L.ss01
AlternateSubs2: "'aalt' Access All Alternates lookup 1 subtable" L.ss01 L.ss04
Position2: "'cpsp' Capital Spacing lookup 1 subtable" dx=5 dy=0 dh=10 dv=0
EndChar

StartChar: Lslash
Encoding: 321 321 31
Width: 486
Flags: MW
HStem: 0 100<101 457 195 457 195 457> 503 20G<304.5 309> 682 20G<127 147 147 164>
VStem: 79 116<100 327 327 327 388 398 459 676>
LayerCount: 2
Back
Fore
SplineSet
147 702 m 2
 181 702 195 693 195 676 c 2
 195 459 l 1
 294 518 l 2
 299 521 303 523 306 523 c 0
 312 523 316 517 316 507 c 2
 316 495 l 2
 316 478 309 466 294 458 c 2
 195 398 l 1
 195 100 l 1
 457 100 l 2
 474 100 481 88 481 61 c 2
 481 39 l 2
 481 12 474 0 457 0 c 2
 113 0 l 2
 89 0 79 10 79 34 c 2
 79 327 l 1
 32 300 l 2
 27 296 23 295 20 295 c 0
 14 295 10 301 10 312 c 2
 10 324 l 2
 10 341 17 352 32 361 c 2
 79 388 l 1
 79 676 l 2
 79 693 93 702 127 702 c 2
 147 702 l 2
EndSplineSet
Position2: "'cpsp' Capital Spacing lookup 1 subtable" dx=5 dy=0 dh=10 dv=0
EndChar

StartChar: M
Encoding: 77 77 32
Width: 843
Flags: MW
HStem: -2 21G<113 130 130 146 680 697 697 714> 682 20G<130 173 173 186 672 714 714 731>
VStem: 81 114<24 512> 648 114<24 508 508 508>
LayerCount: 2
Back
Fore
SplineSet
714 702 m 2
 748 702 762 693 762 676 c 2
 762 24 l 2
 762 7 748 -2 714 -2 c 2
 697 -2 l 2
 663 -2 648 7 648 24 c 2
 648 508 l 1
 645 506 l 1
 470 198 l 2
 463 188 455 183 440 183 c 2
 405 183 l 2
 391 183 382 188 375 198 c 2
 198 510 l 1
 195 512 l 1
 195 24 l 2
 195 7 180 -2 146 -2 c 2
 130 -2 l 2
 96 -2 81 7 81 24 c 2
 81 676 l 2
 81 693 96 702 130 702 c 2
 173 702 l 2
 199 702 216 695 224 680 c 2
 404 365 l 1
 422 323 l 1
 441 363 l 1
 621 680 l 2
 629 695 646 702 672 702 c 2
 714 702 l 2
EndSplineSet
Substitution2: "'ss06' Style Set 6 lookup 13 subtable" five.ss02
Substitution2: "'ss04' Style Set 4 lookup 10 subtable" M.ss04
Substitution2: "'ss01' Style Set 1 lookup 7 subtable" M.ss01
Substitution2: "'salt' Stylistic Alternatives lookup 6 subtable" M.ss01
AlternateSubs2: "'aalt' Access All Alternates lookup 1 subtable" M.ss01 M.ss04
Position2: "'cpsp' Capital Spacing lookup 1 subtable" dx=5 dy=0 dh=10 dv=0
EndChar

StartChar: N
Encoding: 78 78 33
Width: 719
Flags: MW
HStem: -2 21G<113 130 130 146 550 562 562 590> 682 20G<130 160 160 172.5 573 590 590 607>
VStem: 81 114<24 506> 524 114<200 676>
LayerCount: 2
Back
Fore
SplineSet
590 702 m 2
 624 702 638 693 638 676 c 2
 638 24 l 2
 638 7 624 -2 590 -2 c 2
 562 -2 l 2
 538 -2 523 3 513 18 c 2
 219 463 l 1
 195 506 l 1
 195 24 l 2
 195 7 180 -2 146 -2 c 2
 130 -2 l 2
 96 -2 81 7 81 24 c 2
 81 676 l 2
 81 693 96 702 130 702 c 2
 160 702 l 2
 185 702 201 697 213 680 c 2
 496 249 l 1
 524 200 l 1
 524 676 l 2
 524 693 539 702 573 702 c 2
 590 702 l 2
EndSplineSet
Substitution2: "'ss06' Style Set 6 lookup 13 subtable" six.ss02
Substitution2: "'ss04' Style Set 4 lookup 10 subtable" N.ss04
Substitution2: "'ss01' Style Set 1 lookup 7 subtable" N.ss01
Substitution2: "'salt' Stylistic Alternatives lookup 6 subtable" N.ss01
AlternateSubs2: "'aalt' Access All Alternates lookup 1 subtable" N.ss01 N.ss04
Position2: "'cpsp' Capital Spacing lookup 1 subtable" dx=5 dy=0 dh=10 dv=0
EndChar

StartChar: Ntilde
Encoding: 209 209 34
Width: 719
Flags: MW
HStem: -2 21G<113 130 130 146 550 562 562 590> 682 20G<130 160 160 172.5 573 590 590 607> 763 63<417.5 438 417.5 451> 808 63<280 300>
VStem: 81 114<24 506> 524 114<200 676>
LayerCount: 2
Back
Fore
SplineSet
431 826 m 0xec
 445 826 453 837 466 858 c 0
 476 874 480 875 492 870 c 2
 514 861 l 2
 525 856 525 849 520 836 c 0
 501 783 469 763 433 763 c 0xec
 378 763 314 808 286 808 c 0
 274 808 264 798 251 776 c 0
 241.66015625 760.190429688 237 759 225 764 c 2
 203 773 l 2
 192 778 192 785 197 798 c 0
 218 856 253 871 284 871 c 0xdc
 337 871 404 826 431 826 c 0xec
590 702 m 2
 624 702 638 693 638 676 c 2
 638 24 l 2
 638 7 624 -2 590 -2 c 2
 562 -2 l 2
 538 -2 523 3 513 18 c 2
 219 463 l 1
 195 506 l 1
 195 24 l 2
 195 7 180 -2 146 -2 c 2
 130 -2 l 2
 96 -2 81 7 81 24 c 2
 81 676 l 2
 81 693 96 702 130 702 c 2
 160 702 l 2
 185 702 201 697 213 680 c 2
 496 249 l 1
 524 200 l 1
 524 676 l 2
 524 693 539 702 573 702 c 2
 590 702 l 2
EndSplineSet
Position2: "'cpsp' Capital Spacing lookup 1 subtable" dx=5 dy=0 dh=10 dv=0
EndChar

StartChar: O
Encoding: 79 79 35
Width: 731
Flags: MW
HStem: -7 100<302 428.5 302 467.5> 606 101<302 428.5>
VStem: 52 120<267 435 267 467.5> 559 120<267 435>
LayerCount: 2
Back
Fore
SplineSet
366 707 m 0
 569 707 679 584 679 351 c 0
 679 118 569 -7 366 -7 c 0
 163 -7 52 118 52 351 c 0
 52 584 163 707 366 707 c 0
365 606 m 0
 239 606 172 519 172 351 c 0
 172 183 239 93 365 93 c 0
 492 93 559 183 559 351 c 0
 559 519 492 606 365 606 c 0
EndSplineSet
Substitution2: "Single Substitution lookup 14 subtable" ordmasculine
Substitution2: "'ss06' Style Set 6 lookup 13 subtable" seven.ss02
Substitution2: "'ss04' Style Set 4 lookup 10 subtable" O.ss04
Substitution2: "'ss01' Style Set 1 lookup 7 subtable" O.ss01
Substitution2: "'salt' Stylistic Alternatives lookup 6 subtable" O.ss01
AlternateSubs2: "'aalt' Access All Alternates lookup 1 subtable" ordmasculine O.ss01 O.ss04
Position2: "'cpsp' Capital Spacing lookup 1 subtable" dx=5 dy=0 dh=10 dv=0
EndChar

StartChar: Oacute
Encoding: 211 211 36
Width: 731
Flags: MW
HStem: -7 100<302 428.5 302 467.5> 606 101<302 428.5>
VStem: 52 120<267 435 267 467.5> 559 120<267 435>
LayerCount: 2
Back
Fore
SplineSet
446 910 m 0
 482 910 499 907 499 896 c 0
 499 885 491 879 401 779 c 0
 390 767 372 758 339 758 c 0
 320 758 313 761 313 770 c 0
 313 780 328 803 374 883 c 0
 385 903 411 910 446 910 c 0
366 707 m 0
 569 707 679 584 679 351 c 0
 679 118 569 -7 366 -7 c 0
 163 -7 52 118 52 351 c 0
 52 584 163 707 366 707 c 0
365 606 m 0
 239 606 172 519 172 351 c 0
 172 183 239 93 365 93 c 0
 492 93 559 183 559 351 c 0
 559 519 492 606 365 606 c 0
EndSplineSet
Position2: "'cpsp' Capital Spacing lookup 1 subtable" dx=5 dy=0 dh=10 dv=0
EndChar

StartChar: Ocircumflex
Encoding: 212 212 37
Width: 731
Flags: MW
HStem: -7 100<302 428.5 302 467.5> 606 101<302 428.5> 751 144<252.5 375 260 375 356 461 356 472>
VStem: 52 120<267 435 267 467.5> 559 120<267 435>
LayerCount: 2
Back
Fore
SplineSet
375 895 m 2
 399 895 417 891 428 874 c 2
 488 780 l 2
 492 774 494 769 494 764 c 0
 494 756 487 751 472 751 c 2
 461 751 l 2
 441 751 424 756 413 769 c 2
 365 828 l 1
 319 769 l 2
 307 755 291 751 270 751 c 2
 260 751 l 2
 245 751 238 755 238 764 c 0
 238 768 240 774 244 780 c 2
 304 874 l 2
 314 891 333 895 356 895 c 2
 375 895 l 2
366 707 m 0
 569 707 679 584 679 351 c 0
 679 118 569 -7 366 -7 c 0
 163 -7 52 118 52 351 c 0
 52 584 163 707 366 707 c 0
365 606 m 0
 239 606 172 519 172 351 c 0
 172 183 239 93 365 93 c 0
 492 93 559 183 559 351 c 0
 559 519 492 606 365 606 c 0
EndSplineSet
Position2: "'cpsp' Capital Spacing lookup 1 subtable" dx=5 dy=0 dh=10 dv=0
EndChar

StartChar: Odieresis
Encoding: 214 214 38
Width: 731
Flags: MW
HStem: -7 100<302 428.5 302 467.5> 606 101<302 428.5> 771 108<269 303 429 463>
VStem: 52 120<267 435 267 467.5> 236 100<798 853 789.5 861> 396 100<798 853 789.5 861> 559 120<267 435>
LayerCount: 2
Back
Fore
SplineSet
287 879 m 0
 321 879 336 870 336 853 c 2
 336 798 l 2
 336 781 321 771 285 771 c 0
 251 771 236 781 236 798 c 2
 236 853 l 2
 236 869 251 879 287 879 c 0
447 879 m 0
 481 879 496 870 496 853 c 2
 496 798 l 2
 496 781 481 771 445 771 c 0
 411 771 396 781 396 798 c 2
 396 853 l 2
 396 869 411 879 447 879 c 0
366 707 m 0
 569 707 679 584 679 351 c 0
 679 118 569 -7 366 -7 c 0
 163 -7 52 118 52 351 c 0
 52 584 163 707 366 707 c 0
365 606 m 0
 239 606 172 519 172 351 c 0
 172 183 239 93 365 93 c 0
 492 93 559 183 559 351 c 0
 559 519 492 606 365 606 c 0
EndSplineSet
Position2: "'cpsp' Capital Spacing lookup 1 subtable" dx=5 dy=0 dh=10 dv=0
EndChar

StartChar: Ograve
Encoding: 210 210 39
Width: 731
Flags: MW
HStem: -7 100<302 428.5 302 467.5> 606 101<302 428.5>
VStem: 52 120<267 435 267 467.5> 559 120<267 435>
LayerCount: 2
Back
Fore
SplineSet
294 910 m 0
 330 910 355 903 366 883 c 0
 412 803 427 780 427 770 c 0
 427 761 420 758 401 758 c 0
 368 758 350 767 339 779 c 0
 250 879 241 885 241 896 c 0
 241 907 259 910 294 910 c 0
366 707 m 0
 569 707 679 584 679 351 c 0
 679 118 569 -7 366 -7 c 0
 163 -7 52 118 52 351 c 0
 52 584 163 707 366 707 c 0
365 606 m 0
 239 606 172 519 172 351 c 0
 172 183 239 93 365 93 c 0
 492 93 559 183 559 351 c 0
 559 519 492 606 365 606 c 0
EndSplineSet
Position2: "'cpsp' Capital Spacing lookup 1 subtable" dx=5 dy=0 dh=10 dv=0
EndChar

StartChar: Oslash
Encoding: 216 216 40
Width: 731
Flags: MW
HStem: -7 100<333.5 429 333.5 466.5> 606 101<302 392.5>
VStem: 51 121<325 435 325 467.5> 559 120<267 383.5>
LayerCount: 2
Back
Fore
SplineSet
365 707 m 0
 450 707 519 684 570 642 c 1
 623 702 l 2
 629 709 635 712 641 712 c 0
 653 712 674 693 674 680 c 0
 674 675 672 670 666 664 c 2
 610 601 l 1
 655 542 679 458 679 351 c 0
 679 118 568 -7 365 -7 c 0
 268 -7 193 21 141 76 c 1
 78 6 l 2
 72 -1 66 -5 60 -5 c 0
 48 -5 27 14 27 27 c 0
 27 32 29 38 35 44 c 2
 105 122 l 1
 69 180 51 256 51 351 c 0
 51 584 162 707 365 707 c 0
365 606 m 0
 239 606 172 519 172 351 c 0
 172 299 179 255 192 219 c 1
 495 558 l 1
 463 590 420 606 365 606 c 0
528 509 m 1
 219 163 l 1
 251 117 301 93 366 93 c 0
 492 93 559 183 559 351 c 0
 559 416 548 469 528 509 c 1
EndSplineSet
Position2: "'cpsp' Capital Spacing lookup 1 subtable" dx=5 dy=0 dh=10 dv=0
EndChar

StartChar: Otilde
Encoding: 213 213 41
Width: 731
Flags: MW
HStem: -7 100<302 428.5 302 467.5> 606 101<302 428.5> 763 63<423.5 444 423.5 457> 808 63<286 306>
VStem: 52 120<267 435 267 467.5> 559 120<267 435>
LayerCount: 2
Back
Fore
SplineSet
437 826 m 0xec
 451 826 459 837 472 858 c 0
 482 874 486 875 498 870 c 2
 520 861 l 2
 531 856 531 849 526 836 c 0
 507 783 475 763 439 763 c 0xec
 384 763 320 808 292 808 c 0
 280 808 270 798 257 776 c 0
 247.66015625 760.190429688 243 759 231 764 c 2
 209 773 l 2
 198 778 198 785 203 798 c 0
 224 856 259 871 290 871 c 0xdc
 343 871 410 826 437 826 c 0xec
366 707 m 0
 569 707 679 584 679 351 c 0
 679 118 569 -7 366 -7 c 0
 163 -7 52 118 52 351 c 0
 52 584 163 707 366 707 c 0
365 606 m 0
 239 606 172 519 172 351 c 0
 172 183 239 93 365 93 c 0
 492 93 559 183 559 351 c 0
 559 519 492 606 365 606 c 0
EndSplineSet
Position2: "'cpsp' Capital Spacing lookup 1 subtable" dx=5 dy=0 dh=10 dv=0
EndChar

StartChar: OE
Encoding: 338 338 42
Width: 1021
Flags: MW
HStem: -7 100 0 100 308 100<678 925 678 925> 600 100<678 954 678 678> 606 101
VStem: 52 120 559 119
LayerCount: 2
Back
Fore
SplineSet
955 100 m 2x76
 972 100 978.999023438 88.0009765625 978.999023438 61.0009765625 c 2
 978.999023438 39.0009765625 l 2
 978.999023438 12.0009765625 971.999023438 0.0009765625 954.999023438 0.0009765625 c 2
 595.999023438 0.0009765625 l 2
 571.999023438 0.0009765625 560.999023438 10.0009765625 560.999023438 35.0009765625 c 2x76
 560.999023438 57.6005859375 l 1
 510.189453125 14.3203125 443.319335938 -7 360.999023438 -7 c 0
 160.999023438 -7 51.9990234375 118 51.9990234375 351 c 0
 51.9990234375 584 160.999023438 707 360.999023438 707 c 0
 444.319335938 707 509.9296875 685.599609375 561 642.809570312 c 1xae
 561 667 l 2
 561 690 572 700 596 700 c 2
 954 700 l 2
 971 700 978 688 978 661 c 2
 978 639 l 2
 978 612 971 600 954 600 c 2
 678 600 l 1
 678 408 l 1
 925 408 l 2
 942 408 949 397 949 369 c 2
 949 347 l 2
 949 320 942 308 925 308 c 2
 678 308 l 1
 678 100 l 1
 955 100 l 2x76
364.999023438 93.0009765625 m 0xae
 491.999023438 93.0009765625 558.999023438 183.000976562 558.999023438 351.000976562 c 0
 558.999023438 519.000976562 491.999023438 606.000976562 364.999023438 606.000976562 c 0
 238.999023438 606.000976562 171.999023438 519.000976562 171.999023438 351.000976562 c 0
 171.999023438 183.000976562 238.999023438 93.0009765625 364.999023438 93.0009765625 c 0xae
EndSplineSet
Position2: "'cpsp' Capital Spacing lookup 1 subtable" dx=5 dy=0 dh=10 dv=0
EndChar

StartChar: P
Encoding: 80 80 43
Width: 570
Flags: MW
HStem: -2 21G<110 127 127 146> 282 101<195 322 322 328 195 322> 600 100<195 314 195 195>
VStem: 78 117<24 282 383 600> 428 120<447.5 537.5>
LayerCount: 2
Back
Fore
SplineSet
318 700 m 2
 406 700 548 673 548 494 c 0
 548 307 381 282 328 282 c 2
 195 282 l 1
 195 24 l 2
 195 7 180 -2 146 -2 c 2
 127 -2 l 2
 93 -2 78 7 78 24 c 2
 78 666 l 2
 78 690 88 700 112 700 c 2
 318 700 l 2
314 600 m 2
 195 600 l 1
 195 383 l 1
 322 383 l 2
 361 383 428 401 428 494 c 0
 428 581 364 600 314 600 c 2
EndSplineSet
Substitution2: "'ss06' Style Set 6 lookup 13 subtable" eight.ss02
Substitution2: "'ss01' Style Set 1 lookup 7 subtable" P.ss01
Substitution2: "'salt' Stylistic Alternatives lookup 6 subtable" P.ss01
Substitution2: "'aalt' Access All Alternates lookup 0 subtable" P.ss01
Position2: "'cpsp' Capital Spacing lookup 1 subtable" dx=5 dy=0 dh=10 dv=0
EndChar

StartChar: Thorn
Encoding: 222 222 44
Width: 567
Flags: MW
HStem: -2 21G<110 127 127 146> 167 100<195 324 324 331 195 195> 485 100<195 316 194 321> 682 20G<127 146 146 163>
VStem: 78 117<24 167 585 676> 430 121<332.5 422.5>
LayerCount: 2
Back
Fore
SplineSet
146 702 m 2
 180 702 195 693 195 676 c 2
 195 585 l 1
 321 585 l 2
 409 585 551 558 551 379 c 0
 551 191 384 167 331 167 c 2
 195 167 l 1
 195 24 l 2
 195 7 180 -2 146 -2 c 2
 127 -2 l 2
 93 -2 78 7 78 24 c 2
 78 676 l 2
 78 693 93 702 127 702 c 2
 146 702 l 2
316 485 m 2
 194 485 l 1
 194 267 l 1
 324 267 l 2
 363 267 430 286 430 379 c 0
 430 466 366 485 316 485 c 2
EndSplineSet
Position2: "'cpsp' Capital Spacing lookup 1 subtable" dx=5 dy=0 dh=10 dv=0
EndChar

StartChar: Q
Encoding: 81 81 45
Width: 731
Flags: MW
HStem: 606 101<303 427.5>
VStem: 52 120<264 432 264 465> 559 120<264.5 431.5>
LayerCount: 2
Back
Fore
SplineSet
366 707 m 0
 569 707 679 581 679 348 c 0
 679 172 615 59 498 16 c 1
 498 12 l 1
 675 -47 l 2
 684 -50 689 -55 689 -62 c 0
 689 -76 669 -147 642 -147 c 0
 631 -147 432 -67 238 10 c 0
 115 59 52 172 52 348 c 0
 52 582 163 707 366 707 c 0
365 606 m 0
 241 606 172 516 172 348 c 0
 172 180 241 90 365 90 c 0
 490 90 559 181 559 348 c 0
 559 515 490 606 365 606 c 0
EndSplineSet
Substitution2: "'ss06' Style Set 6 lookup 13 subtable" one.ss03
Substitution2: "'ss01' Style Set 1 lookup 7 subtable" Q.ss01
Substitution2: "'salt' Stylistic Alternatives lookup 6 subtable" Q.ss01
Substitution2: "'aalt' Access All Alternates lookup 0 subtable" Q.ss01
Position2: "'cpsp' Capital Spacing lookup 1 subtable" dx=5 dy=0 dh=10 dv=0
EndChar

StartChar: R
Encoding: 82 82 46
Width: 610
Flags: MW
HStem: -2 21G<117 134 134 153 511 523 523 546> 293 101<202 270 202 318> 600 100<202 299 299 311 202 202>
VStem: 85 117<24 293 394 600> 424 120<477 534>
LayerCount: 2
Back
Fore
SplineSet
299 700 m 2
 463 700 544 642 544 518 c 0
 544 436 497 381 428 354 c 1
 428 350 l 1
 462 337 488 295 510 239 c 2
 592 32 l 2
 595 25 596 20 596 16 c 0
 596 5 581 -2 546 -2 c 2
 523 -2 l 2
 499 -2 480 4 475 16 c 2
 398 212 l 2
 372 273 342 293 270 293 c 2
 202 293 l 1
 202 24 l 2
 202 7 187 -2 153 -2 c 2
 134 -2 l 2
 100 -2 85 7 85 24 c 2
 85 666 l 2
 85 690 95 700 119 700 c 2
 299 700 l 2
311 600 m 2
 202 600 l 1
 202 394 l 1
 318 394 l 2
 376 394 424 443 424 501 c 0
 424 567 379 600 311 600 c 2
EndSplineSet
Substitution2: "'ss06' Style Set 6 lookup 13 subtable" two.ss03
Substitution2: "'ss01' Style Set 1 lookup 7 subtable" R.ss01
Substitution2: "'salt' Stylistic Alternatives lookup 6 subtable" R.ss01
Substitution2: "'aalt' Access All Alternates lookup 0 subtable" R.ss01
Position2: "'cpsp' Capital Spacing lookup 1 subtable" dx=5 dy=0 dh=10 dv=0
EndChar

StartChar: S
Encoding: 83 83 47
Width: 500
Flags: MW
HStem: -7 100<191.5 268.5 191.5 311> 606 101<239 311 208.5 314>
VStem: 43 121<485.5 543.5 485.5 576> 353 120<157.5 225.5>
LayerCount: 2
Back
Fore
SplineSet
272 707 m 0
 350 707 441 677 441 642 c 0
 441 622 415 574 399 574 c 0
 385 574 351 606 277 606 c 0
 201 606 164 569 164 518 c 0
 164 453 221 434 287 408 c 0
 373 374 473 334 473 198 c 0
 473 59 373 -7 249 -7 c 0
 117 -7 30 43 30 73 c 0
 30 95 61 142 77 142 c 0
 92 142 145 93 238 93 c 0
 299 93 353 125 353 190 c 0
 353 261 277 284 200 316 c 0
 122 349 43 388 43 514 c 0
 43 638 145 707 272 707 c 0
EndSplineSet
Substitution2: "'ss06' Style Set 6 lookup 13 subtable" three.ss03
Substitution2: "'ss01' Style Set 1 lookup 7 subtable" S.ss01
Substitution2: "'salt' Stylistic Alternatives lookup 6 subtable" S.ss01
Substitution2: "'aalt' Access All Alternates lookup 0 subtable" S.ss01
Position2: "'cpsp' Capital Spacing lookup 1 subtable" dx=5 dy=0 dh=10 dv=0
EndChar

StartChar: Scaron
Encoding: 352 352 48
Width: 500
Flags: MW
HStem: -7 100<191.5 268.5 191.5 311> 606 101<239 311 208.5 314> 755 143<144 240 144 259>
VStem: 43 121<485.5 543.5 485.5 576> 353 120<157.5 225.5>
LayerCount: 2
Back
Fore
SplineSet
356 898 m 2
 371 898 378 894 378 886 c 0
 378 881 376 875 372 869 c 2
 312 775 l 2
 301 759 283 755 259 755 c 2
 240 755 l 2
 217 755 198 759 188 775 c 2
 128 869 l 2
 124 876 122 882 122 886 c 0
 122 894 129 898 144 898 c 2
 154 898 l 2
 175 898 191 894 203 880 c 2
 249 821 l 1
 297 881 l 2
 308 894 325 898 345 898 c 2
 356 898 l 2
272 707 m 0
 350 707 441 677 441 642 c 0
 441 622 415 574 399 574 c 0
 385 574 351 606 277 606 c 0
 201 606 164 569 164 518 c 0
 164 453 221 434 287 408 c 0
 373 374 473 334 473 198 c 0
 473 59 373 -7 249 -7 c 0
 117 -7 30 43 30 73 c 0
 30 95 61 142 77 142 c 0
 92 142 145 93 238 93 c 0
 299 93 353 125 353 190 c 0
 353 261 277 284 200 316 c 0
 122 349 43 388 43 514 c 0
 43 638 145 707 272 707 c 0
EndSplineSet
Position2: "'cpsp' Capital Spacing lookup 1 subtable" dx=5 dy=0 dh=10 dv=0
EndChar

StartChar: T
Encoding: 84 84 49
Width: 549
Flags: MW
HStem: -2 21G<249 266 266 285> 600 100<30.5 510 39 217 334 510 334 334>
VStem: 217 117<24 600>
LayerCount: 2
Back
Fore
SplineSet
510 700 m 2
 527 700 534 688 534 661 c 2
 534 639 l 2
 534 612 527 600 510 600 c 2
 334 600 l 1
 334 24 l 2
 334 7 320 -2 285 -2 c 2
 266 -2 l 2
 232 -2 217 7 217 24 c 2
 217 600 l 1
 39 600 l 2
 22 600 15 612 15 639 c 2
 15 661 l 2
 15 688 22 700 39 700 c 2
 510 700 l 2
EndSplineSet
Substitution2: "'ss06' Style Set 6 lookup 13 subtable" four.ss03
Substitution2: "'ss01' Style Set 1 lookup 7 subtable" T.ss01
Substitution2: "'salt' Stylistic Alternatives lookup 6 subtable" T.ss01
Substitution2: "'aalt' Access All Alternates lookup 0 subtable" T.ss01
Position2: "'cpsp' Capital Spacing lookup 1 subtable" dx=5 dy=0 dh=10 dv=0
EndChar

StartChar: U
Encoding: 85 85 50
Width: 712
Flags: MW
HStem: -7 100<308.5 404 308.5 445.5> 682 20G<125 144 144 161 569 588 588 605>
VStem: 76 117<228 231 231 676> 520 117<231 676>
LayerCount: 2
Back
Fore
SplineSet
588 702 m 2
 622 702 637 693 637 676 c 2
 637 228 l 2
 637 80 535 -7 356 -7 c 0
 177 -7 76 80 76 228 c 2
 76 676 l 2
 76 693 91 702 125 702 c 2
 144 702 l 2
 178 702 193 693 193 676 c 2
 193 231 l 2
 193 150 261 93 356 93 c 0
 452 93 520 151 520 231 c 2
 520 676 l 2
 520 693 535 702 569 702 c 2
 588 702 l 2
EndSplineSet
Substitution2: "'ss06' Style Set 6 lookup 13 subtable" five.ss03
Substitution2: "'ss01' Style Set 1 lookup 7 subtable" U.ss01
Substitution2: "'salt' Stylistic Alternatives lookup 6 subtable" U.ss01
Substitution2: "'aalt' Access All Alternates lookup 0 subtable" U.ss01
Position2: "'cpsp' Capital Spacing lookup 1 subtable" dx=5 dy=0 dh=10 dv=0
EndChar

StartChar: Uacute
Encoding: 218 218 51
Width: 712
Flags: MW
HStem: -7 100<308.5 404 308.5 445.5> 682 20G<125 144 144 161 569 588 588 605>
VStem: 76 117<228 231 231 676> 520 117<231 676>
LayerCount: 2
Back
Fore
SplineSet
436 910 m 0
 472 910 489 907 489 896 c 0
 489 885 481 879 391 779 c 0
 380 767 362 758 329 758 c 0
 310 758 303 761 303 770 c 0
 303 780 318 803 364 883 c 0
 375 903 401 910 436 910 c 0
588 702 m 2
 622 702 637 693 637 676 c 2
 637 228 l 2
 637 80 535 -7 356 -7 c 0
 177 -7 76 80 76 228 c 2
 76 676 l 2
 76 693 91 702 125 702 c 2
 144 702 l 2
 178 702 193 693 193 676 c 2
 193 231 l 2
 193 150 261 93 356 93 c 0
 452 93 520 151 520 231 c 2
 520 676 l 2
 520 693 535 702 569 702 c 2
 588 702 l 2
EndSplineSet
Position2: "'cpsp' Capital Spacing lookup 1 subtable" dx=5 dy=0 dh=10 dv=0
EndChar

StartChar: Ucircumflex
Encoding: 219 219 52
Width: 712
Flags: MW
HStem: -7 100<308.5 404 308.5 445.5> 682 20G<125 144 144 161 569 588 588 605> 751 144<242.5 365 250 365 346 451 346 462>
VStem: 76 117<228 231 231 676> 520 117<231 676>
LayerCount: 2
Back
Fore
SplineSet
365 895 m 2
 389 895 407 891 418 874 c 2
 478 780 l 2
 482 774 484 769 484 764 c 0
 484 756 477 751 462 751 c 2
 451 751 l 2
 431 751 414 756 403 769 c 2
 355 828 l 1
 309 769 l 2
 297 755 281 751 260 751 c 2
 250 751 l 2
 235 751 228 755 228 764 c 0
 228 768 230 774 234 780 c 2
 294 874 l 2
 304 891 323 895 346 895 c 2
 365 895 l 2
588 702 m 2
 622 702 637 693 637 676 c 2
 637 228 l 2
 637 80 535 -7 356 -7 c 0
 177 -7 76 80 76 228 c 2
 76 676 l 2
 76 693 91 702 125 702 c 2
 144 702 l 2
 178 702 193 693 193 676 c 2
 193 231 l 2
 193 150 261 93 356 93 c 0
 452 93 520 151 520 231 c 2
 520 676 l 2
 520 693 535 702 569 702 c 2
 588 702 l 2
EndSplineSet
Position2: "'cpsp' Capital Spacing lookup 1 subtable" dx=5 dy=0 dh=10 dv=0
EndChar

StartChar: Udieresis
Encoding: 220 220 53
Width: 712
Flags: MW
HStem: -7 100<308.5 404 308.5 445.5> 682 20G<125 144 144 161 569 588 588 605> 771 108<259 293 419 453>
VStem: 76 117<228 231 231 676> 226 100<798 853 789.5 861> 386 100<798 853 789.5 861> 520 117<231 676>
LayerCount: 2
Back
Fore
SplineSet
277 879 m 0
 311 879 326 870 326 853 c 2
 326 798 l 2
 326 781 311 771 275 771 c 0
 241 771 226 781 226 798 c 2
 226 853 l 2
 226 869 241 879 277 879 c 0
437 879 m 0
 471 879 486 870 486 853 c 2
 486 798 l 2
 486 781 471 771 435 771 c 0
 401 771 386 781 386 798 c 2
 386 853 l 2
 386 869 401 879 437 879 c 0
588 702 m 2
 622 702 637 693 637 676 c 2
 637 228 l 2
 637 80 535 -7 356 -7 c 0
 177 -7 76 80 76 228 c 2
 76 676 l 2
 76 693 91 702 125 702 c 2
 144 702 l 2
 178 702 193 693 193 676 c 2
 193 231 l 2
 193 150 261 93 356 93 c 0
 452 93 520 151 520 231 c 2
 520 676 l 2
 520 693 535 702 569 702 c 2
 588 702 l 2
EndSplineSet
Position2: "'cpsp' Capital Spacing lookup 1 subtable" dx=5 dy=0 dh=10 dv=0
EndChar

StartChar: Ugrave
Encoding: 217 217 54
Width: 712
Flags: MW
HStem: -7 100<308.5 404 308.5 445.5> 682 20G<125 144 144 161 569 588 588 605>
VStem: 76 117<228 231 231 676> 520 117<231 676>
LayerCount: 2
Back
Fore
SplineSet
284 910 m 0
 320 910 345 903 356 883 c 0
 402 803 417 780 417 770 c 0
 417 761 410 758 391 758 c 0
 358 758 340 767 329 779 c 0
 240 879 231 885 231 896 c 0
 231 907 249 910 284 910 c 0
588 702 m 2
 622 702 637 693 637 676 c 2
 637 228 l 2
 637 80 535 -7 356 -7 c 0
 177 -7 76 80 76 228 c 2
 76 676 l 2
 76 693 91 702 125 702 c 2
 144 702 l 2
 178 702 193 693 193 676 c 2
 193 231 l 2
 193 150 261 93 356 93 c 0
 452 93 520 151 520 231 c 2
 520 676 l 2
 520 693 535 702 569 702 c 2
 588 702 l 2
EndSplineSet
Position2: "'cpsp' Capital Spacing lookup 1 subtable" dx=5 dy=0 dh=10 dv=0
EndChar

StartChar: V
Encoding: 86 86 55
Width: 617
Flags: MW
HStem: -2 21G<276 288 288 328> 682 20G<65 84 84 96 534 551 551 568.5>
VStem: 14 587<680.5 689>
LayerCount: 2
Back
Fore
SplineSet
551 702 m 2
 586 702 601 695 601 683 c 0
 601 678 600 674 598 667 c 2
 375 16 l 2
 370 2 352 -2 328 -2 c 2
 288 -2 l 2
 264 -2 245 2 241 16 c 2
 17 668 l 2
 15 674 14 678 14 683 c 0
 14 695 30 702 65 702 c 2
 84 702 l 2
 108 702 127 697 133 680 c 2
 296 190 l 1
 306 146 l 1
 310 146 l 1
 321 191 l 1
 486 680 l 2
 491 696 510 702 534 702 c 2
 551 702 l 2
EndSplineSet
Substitution2: "'ss06' Style Set 6 lookup 13 subtable" six.ss03
Position2: "'cpsp' Capital Spacing lookup 1 subtable" dx=5 dy=0 dh=10 dv=0
EndChar

StartChar: W
Encoding: 87 87 56
Width: 882
Flags: MW
HStem: -2 21G<208.5 221 221 276 591 603 603 658> 682 20G<58 75 75 89.5 433 459 459 471.5 816 824 824 842>
VStem: 7 869<679.5 687.5 679.5 687.5>
LayerCount: 2
Back
Fore
SplineSet
824 702 m 2
 860 702 876 694 876 681 c 0
 876 678 874 672 873 667 c 2
 704 16 l 2
 701 3 681 -2 658 -2 c 2
 603 -2 l 2
 579 -2 559 3 556 16 c 2
 459 397 l 1
 440 500 l 1
 421 397 l 1
 323 16 l 2
 319 3 299 -2 276 -2 c 2
 221 -2 l 2
 196 -2 178 3 175 16 c 2
 10 667 l 2
 8 672 7 677 7 681 c 0
 7 694 23 702 58 702 c 2
 75 702 l 2
 104 702 123 695 127 679 c 2
 231 262 l 2
 239 232 249 173 255 146 c 1
 263 189 275 230 283 263 c 2
 387 683 l 2
 391 698 408 702 433 702 c 2
 459 702 l 2
 484 702 502 698 505 683 c 2
 609 261 l 2
 618 225 628 168 634 143 c 1
 644 185 654 228 662 263 c 2
 764 679 l 2
 768 695 788 702 816 702 c 2
 824 702 l 2
EndSplineSet
Substitution2: "'ss06' Style Set 6 lookup 13 subtable" seven.ss03
Position2: "'cpsp' Capital Spacing lookup 1 subtable" dx=5 dy=0 dh=10 dv=0
EndChar

StartChar: X
Encoding: 88 88 57
Width: 611
Flags: MW
HStem: -2 21G<49.5 68 68 90 505.5 518 518 544> 682 20G<92 118 118 130.5 505 525 525 544>
VStem: 15 582<10 18.5>
LayerCount: 2
Back
Fore
SplineSet
525 702 m 2
 563 702 579 696 579 684 c 0
 579 679 575 671 570 663 c 2
 375 367 l 1
 589 37 l 2
 594 29 597 22 597 16 c 0
 597 4 582 -2 544 -2 c 2
 518 -2 l 2
 493 -2 476 1 467 15 c 2
 305 264 l 1
 140 14 l 2
 131 0 112 -2 90 -2 c 2
 68 -2 l 2
 31 -2 15 4 15 16 c 0
 15 21 18 28 24 37 c 2
 240 365 l 1
 47 663 l 2
 42 671 39 678 39 684 c 0
 39 695 54 702 92 702 c 2
 118 702 l 2
 143 702 160 699 169 685 c 2
 309 468 l 1
 454 686 l 2
 463 699 482 702 505 702 c 2
 525 702 l 2
EndSplineSet
Substitution2: "'ss06' Style Set 6 lookup 13 subtable" eight.ss03
Substitution2: "'ss05' Style Set 5 lookup 11 subtable" X.ss05
Substitution2: "'aalt' Access All Alternates lookup 0 subtable" X.ss05
Position2: "'cpsp' Capital Spacing lookup 1 subtable" dx=5 dy=0 dh=10 dv=0
EndChar

StartChar: Y
Encoding: 89 89 58
Width: 559
Flags: MW
HStem: -2 21G<253 270 270 290> 682 20G<62 87 87 99 483 502 502 502>
VStem: 222 116<24 346>
LayerCount: 2
Back
Fore
SplineSet
483 702 m 2
 502 702 l 2
 537 701 552 695 552 684 c 0
 552 678 548 671 544 663 c 2
 338 346 l 1
 338 24 l 2
 338 7 324 -2 290 -2 c 2
 270 -2 l 2
 236 -2 222 7 222 24 c 2
 222 349 l 1
 17 663 l 2
 11 671 8 678 8 684 c 0
 8 695 23 702 62 702 c 2
 87 702 l 2
 111 702 129 699 137 685 c 2
 283 453 l 1
 431 686 l 2
 439 699 459 702 483 702 c 2
EndSplineSet
Position2: "'cpsp' Capital Spacing lookup 1 subtable" dx=5 dy=0 dh=10 dv=0
EndChar

StartChar: Yacute
Encoding: 221 221 59
Width: 559
Flags: MW
HStem: -2 21G<253 270 270 290> 682 20G<62 87 87 99 483 502 502 502>
VStem: 222 116<24 346>
LayerCount: 2
Back
Fore
SplineSet
360 910 m 0
 396 910 413 907 413 896 c 0
 413 885 405 879 315 779 c 0
 304 767 286 758 253 758 c 0
 234 758 227 761 227 770 c 0
 227 780 242 803 288 883 c 0
 299 903 325 910 360 910 c 0
483 702 m 2
 502 702 l 2
 537 701 552 695 552 684 c 0
 552 678 548 671 544 663 c 2
 338 346 l 1
 338 24 l 2
 338 7 324 -2 290 -2 c 2
 270 -2 l 2
 236 -2 222 7 222 24 c 2
 222 349 l 1
 17 663 l 2
 11 671 8 678 8 684 c 0
 8 695 23 702 62 702 c 2
 87 702 l 2
 111 702 129 699 137 685 c 2
 283 453 l 1
 431 686 l 2
 439 699 459 702 483 702 c 2
EndSplineSet
Position2: "'cpsp' Capital Spacing lookup 1 subtable" dx=5 dy=0 dh=10 dv=0
EndChar

StartChar: Ydieresis
Encoding: 376 376 60
Width: 559
Flags: MW
HStem: -2 21G<253 270 270 290> 682 20G<62 87 87 99 483 502 502 502> 771 108<183 217 343 377>
VStem: 150 100<798 853 789.5 861> 222 116<24 346> 310 100<798 853 789.5 861>
LayerCount: 2
Back
Fore
SplineSet
201 879 m 0xf4
 235 879 250 870 250 853 c 2
 250 798 l 2
 250 781 235 771 199 771 c 0
 165 771 150 781 150 798 c 2
 150 853 l 2
 150 869 165 879 201 879 c 0xf4
361 879 m 0
 395 879 410 870 410 853 c 2
 410 798 l 2
 410 781 395 771 359 771 c 0
 325 771 310 781 310 798 c 2
 310 853 l 2
 310 869 325 879 361 879 c 0
483 702 m 2
 502 702 l 2
 537 701 552 695 552 684 c 0
 552 678 548 671 544 663 c 2
 338 346 l 1
 338 24 l 2
 338 7 324 -2 290 -2 c 2
 270 -2 l 2
 236 -2 222 7 222 24 c 2
 222 349 l 1xe8
 17 663 l 2
 11 671 8 678 8 684 c 0
 8 695 23 702 62 702 c 2
 87 702 l 2
 111 702 129 699 137 685 c 2
 283 453 l 1
 431 686 l 2
 439 699 459 702 483 702 c 2
EndSplineSet
Position2: "'cpsp' Capital Spacing lookup 1 subtable" dx=5 dy=0 dh=10 dv=0
EndChar

StartChar: Z
Encoding: 90 90 61
Width: 616
Flags: MW
HStem: 0 100<196 549 196 549> 600 100<80.5 546 89 413>
VStem: 33 542
LayerCount: 2
Back
Fore
SplineSet
546 700 m 2
 557 700 575 653 575 630 c 0
 575 625 574 622 573 620 c 2
 196 100 l 1
 549 100 l 2
 566 100 574 88 574 59 c 2
 574 41 l 2
 574 12 566 0 549 0 c 2
 64 0 l 2
 50 0 33 46 33 69 c 0
 33 73 34 77 36 80 c 2
 413 600 l 1
 89 600 l 2
 72 600 64 612 64 641 c 2
 64 659 l 2
 64 688 72 700 89 700 c 2
 546 700 l 2
EndSplineSet
Position2: "'cpsp' Capital Spacing lookup 1 subtable" dx=5 dy=0 dh=10 dv=0
EndChar

StartChar: Zcaron
Encoding: 381 381 62
Width: 616
Flags: MW
HStem: 0 100<196 549 196 549> 600 100<80.5 546 89 413> 755 143<202 298 202 317>
VStem: 33 542
LayerCount: 2
Back
Fore
SplineSet
414 898 m 2
 429 898 436 894 436 886 c 0
 436 881 434 875 430 869 c 2
 370 775 l 2
 359 759 341 755 317 755 c 2
 298 755 l 2
 275 755 256 759 246 775 c 2
 186 869 l 2
 182 876 180 882 180 886 c 0
 180 894 187 898 202 898 c 2
 212 898 l 2
 233 898 249 894 261 880 c 2
 307 821 l 1
 355 881 l 2
 366 894 383 898 403 898 c 2
 414 898 l 2
546 700 m 2
 557 700 575 653 575 630 c 0
 575 625 574 622 573 620 c 2
 196 100 l 1
 549 100 l 2
 566 100 574 88 574 59 c 2
 574 41 l 2
 574 12 566 0 549 0 c 2
 64 0 l 2
 50 0 33 46 33 69 c 0
 33 73 34 77 36 80 c 2
 413 600 l 1
 89 600 l 2
 72 600 64 612 64 641 c 2
 64 659 l 2
 64 688 72 700 89 700 c 2
 546 700 l 2
EndSplineSet
Position2: "'cpsp' Capital Spacing lookup 1 subtable" dx=5 dy=0 dh=10 dv=0
EndChar

StartChar: E.ss04.alt
Encoding: 65537 -1 63
Width: 700
Flags: MW
HStem: -6.00999 23 0 64 0 255 23.99 40 70.99 23 101.99 40 140.99 37 158.99 34 176.99 39 192.99 34 225.99 39 226.99 28 324 38.99 329.99 26 521 26 683 20G<309.499 323.499>
VStem: 12.99 68 95.99 49 181.99 52 254.99 18 311.99 38 420.99 14 437.99 77 538.99 20 659.99 40
LayerCount: 2
Back
Fore
SplineSet
275 559 m 0x8a175d80
 275 551 279.989257812 546.999023438 292.989257812 546.999023438 c 2
 311.989257812 546.999023438 l 2
 317.989257812 546.999023438 325.989257812 549.999023438 325.989257812 557.999023438 c 0
 326.109375 559.359375 326.159179688 560.749023438 326.208984375 562.189453125 c 0
 326.598632812 573.369140625 327.088867188 587.2890625 358.989257812 612.989257812 c 0
 365.048828125 616.779296875 369.96875 621.149414062 375.0390625 625.649414062 c 0
 376.659179688 627.08984375 378.298828125 628.540039062 379.989257812 630 c 0
 395.989257812 645 402.989257812 663 402.989257812 685 c 0
 402.989257812 706 395.989257812 722 380.989257812 735 c 0
 364.989257812 748 344.989257812 754 318.989257812 754 c 0
 300.989257812 754 282.989257812 752 267.989257812 745 c 0
 252.989257812 740 230.989257812 727 230.989257812 716 c 0
 230.989257812 712 232.989257812 705 238.989257812 697 c 0
 244.989257812 689 249.989257812 685 254.989257812 685 c 0
 260.569335938 687.08984375 268.579101562 690.639648438 275.2890625 693.609375 c 0
 278.208984375 694.899414062 280.87890625 696.08984375 282.999023438 697 c 0
 293.999023438 701 304.999023438 703 313.999023438 703 c 0
 332.999023438 703 341.999023438 695 341.999023438 681 c 0
 341.999023438 665.440429688 321.21875 644.530273438 308.19921875 631.419921875 c 0
 305.319335938 628.509765625 302.809570312 625.990234375 301 624 c 0
 279 600 275 576 275 559 c 0x8a175d80
268.989257812 472.999023438 m 2
 268.989257812 463.999023438 276.989257812 459.999023438 293.989257812 459.999023438 c 2
 305.989257812 459.999023438 l 2
 320.989257812 459.999023438 328.989257812 463.999023438 328.989257812 472.999023438 c 2
 328.989257812 507.999023438 l 2
 328.989257812 516.999023438 320.989257812 520.999023438 305.989257812 520.999023438 c 2
 293.989257812 520.999023438 l 2
 276.989257812 520.999023438 268.989257812 516.999023438 268.989257812 507.999023438 c 2
 268.989257812 472.999023438 l 2
536.989257812 449.999023438 m 2
 542.989257812 450.999023438 543.989257812 450.98828125 545.989257812 450.98828125 c 0
 551.989257812 450.98828125 555.989257812 445.98828125 555.989257812 439.98828125 c 2
 555.989257812 362.98828125 l 1
 626.989257812 362.98828125 l 2
 667.989257812 362.98828125 699.989257812 332.98828125 699.989257812 293.98828125 c 0
 699.989257812 256.98828125 667.989257812 225.98828125 626.989257812 225.98828125 c 0
 619.989257812 225.98828125 616.989257812 227.98828125 615.989257812 229.98828125 c 0
 613.989257812 233.98828125 612.989257812 238.98828125 612.989257812 246.98828125 c 0
 612.819335938 248.408203125 612.729492188 249.728515625 612.729492188 250.96875 c 0
 612.729492188 256.69921875 614.51953125 260.529296875 616.989257812 262.999023438 c 0
 618.989257812 264.999023438 619.989257812 264.999023438 626.989257812 264.999023438 c 0
 643.989257812 264.999023438 659.989257812 276.999023438 659.989257812 293.999023438 c 0
 659.989257812 310.999023438 643.989257812 323.999023438 626.989257812 323.999023438 c 2
 555.989257812 323.999023438 l 1
 555.989257812 246.999023438 l 2
 555.989257812 240.999023438 551.989257812 235.999023438 545.989257812 235.999023438 c 0
 543.989257812 235.999023438 542.989257812 235.999023438 536.989257812 236.999023438 c 2
 113.989257812 321.999023438 l 2
 100.989257812 324.999023438 95.9892578125 328.999023438 95.9892578125 335.999023438 c 2
 95.9892578125 350.999023438 l 2
 95.9892578125 356.999023438 100.989257812 360.999023438 113.989257812 363.999023438 c 2x00284080
 536.989257812 449.999023438 l 2
80.9892578125 355.98828125 m 1x000480
 80.9892578125 329.98828125 l 1
 12.9892578125 329.98828125 l 2
 5.9892578125 329.98828125 -0.0107421875 334.98828125 -0.0107421875 342.98828125 c 0
 -0.0107421875 349.98828125 4.9892578125 355.98828125 12.9892578125 355.98828125 c 2
 80.9892578125 355.98828125 l 1x000480
112.989257812 254.98828125 m 2x200040
 144.989257812 254.98828125 l 1x200040
 144.989257812 -0.01171875 l 1
 112.989257812 -0.01171875 l 2
 102.989257812 -0.01171875 95.9892578125 7.98828125 95.9892578125 16.98828125 c 2x400040
 95.9892578125 237.98828125 l 2
 95.9892578125 246.98828125 102.989257812 254.98828125 112.989257812 254.98828125 c 2x200040
272.989257812 16.98828125 m 2x401010
 272.989257812 7.98828125 265.989257812 -0.01171875 255.989257812 -0.01171875 c 2
 181.989257812 -0.01171875 l 1
 181.989257812 254.98828125 l 1
 255.989257812 254.98828125 l 2
 265.989257812 254.98828125 272.989257812 246.98828125 272.989257812 237.98828125 c 2
 272.989257812 16.98828125 l 2x401010
233.989257812 226.98828125 m 0x021024
 233.989257812 220.98828125 237.989257812 215.98828125 244.989257812 215.98828125 c 0
 250.989257812 215.98828125 254.989257812 220.98828125 254.989257812 226.98828125 c 0
 254.989257812 231.98828125 250.989257812 236.98828125 244.989257812 236.98828125 c 0
 237.989257812 236.98828125 233.989257812 231.98828125 233.989257812 226.98828125 c 0x021024
556.989257812 160.98828125 m 2
 557.989257812 159.98828125 556.989257812 156.98828125 555.989257812 155.98828125 c 2
 539.989257812 141.98828125 l 2
 538.989257812 139.98828125 536.989257812 140.98828125 535.989257812 141.98828125 c 2
 526.989257812 154.98828125 l 2
 525.989257812 155.98828125 523.989257812 155.98828125 522.989257812 154.98828125 c 2
 513.989257812 141.98828125 l 2
 511.989257812 139.98828125 509.989257812 140.98828125 508.989257812 141.98828125 c 2
 499.989257812 154.98828125 l 2
 498.989257812 155.98828125 496.989257812 155.98828125 495.989257812 154.98828125 c 2
 487.989257812 142.98828125 l 2
 486.989257812 141.98828125 485.989257812 140.98828125 484.989257812 140.98828125 c 0
 482.989257812 139.98828125 480.989257812 140.98828125 480.989257812 141.98828125 c 2
 471.989257812 154.98828125 l 2
 470.989257812 156.98828125 468.989257812 155.98828125 467.989257812 154.98828125 c 2
 458.989257812 142.98828125 l 2
 457.989257812 141.98828125 454.989257812 140.98828125 453.989257812 140.98828125 c 2
 434.989257812 140.98828125 l 1x020004
 434.989257812 125.98828125 l 2
 433.989257812 124.98828125 432.989257812 124.98828125 431.989257812 125.98828125 c 2
 420.989257812 135.98828125 l 1
 412.989257812 115.98828125 392.989257812 101.98828125 369.989257812 101.98828125 c 0
 336.989257812 101.98828125 311.989257812 127.98828125 311.989257812 159.98828125 c 0
 312.989257812 190.98828125 337.989257812 215.98828125 369.989257812 215.98828125 c 0
 392.989257812 215.98828125 412.989257812 201.98828125 421.989257812 181.98828125 c 1
 431.989257812 191.98828125 l 2
 432.989257812 192.98828125 433.989257812 192.98828125 434.989257812 191.98828125 c 2x04800c
 434.989257812 177.98828125 l 1
 540.989257812 177.98828125 l 2
 542.989257812 177.98828125 544.989257812 176.98828125 545.989257812 175.98828125 c 2
 556.989257812 160.98828125 l 2
233.989257812 192.98828125 m 0x04402c
 233.989257812 185.98828125 237.989257812 181.98828125 244.989257812 181.98828125 c 0
 250.989257812 181.98828125 254.989257812 185.98828125 254.989257812 192.98828125 c 0
 254.989257812 197.98828125 250.989257812 202.98828125 244.989257812 202.98828125 c 0
 237.989257812 202.98828125 233.989257812 197.98828125 233.989257812 192.98828125 c 0x04402c
349.989257812 141.98828125 m 0
 359.989257812 141.98828125 367.989257812 149.98828125 367.989257812 159.98828125 c 0x04402c
 367.989257812 168.98828125 359.989257812 176.98828125 349.989257812 176.98828125 c 0
 340.989257812 176.98828125 332.989257812 168.98828125 332.989257812 159.98828125 c 0x00800c
 332.989257812 150.98828125 340.989257812 141.98828125 349.989257812 141.98828125 c 0
233.989257812 158.98828125 m 0x110022
 233.989257812 152.98828125 237.989257812 147.98828125 244.989257812 147.98828125 c 0
 250.989257812 147.98828125 254.989257812 152.98828125 254.989257812 158.98828125 c 0
 254.989257812 163.98828125 250.989257812 168.98828125 244.989257812 168.98828125 c 0
 237.989257812 168.98828125 233.989257812 163.98828125 233.989257812 158.98828125 c 0x110022
311.989257812 44.98828125 m 2
 322.989257812 59.98828125 l 2
 323.989257812 61.98828125 325.989257812 63.98828125 327.989257812 63.98828125 c 2
 437.989257812 63.98828125 l 1x400002
 437.989257812 72.98828125 444.989257812 87.98828125 461.989257812 88.98828125 c 2
 531.989257812 93.98828125 l 2x080002
 544.989257812 93.98828125 553.989257812 89.98828125 558.989257812 78.98828125 c 0
 560.989257812 74.98828125 564.989257812 57.98828125 564.989257812 42.98828125 c 0
 564.989257812 27.98828125 560.989257812 12.98828125 558.989257812 8.98828125 c 0
 553.989257812 -3.01171875 544.989257812 -6.01171875 531.989257812 -6.01171875 c 2x880001
 461.989257812 -1.01171875 l 2x800002
 444.989257812 -0.01171875 437.989257812 13.98828125 437.989257812 23.98828125 c 1
 390.989257812 23.98828125 l 2
 389.989257812 23.98828125 386.989257812 24.98828125 384.989257812 25.98828125 c 2
 375.989257812 37.98828125 l 2
 374.989257812 38.98828125 372.989257812 39.98828125 371.989257812 37.98828125 c 2
 361.989257812 24.98828125 l 2
 360.989257812 23.98828125 358.989257812 22.98828125 356.989257812 24.98828125 c 2
 347.989257812 37.98828125 l 2
 346.989257812 38.98828125 344.989257812 39.98828125 342.989257812 37.98828125 c 2
 333.989257812 24.98828125 l 2
 332.989257812 23.98828125 330.989257812 23.98828125 328.989257812 24.98828125 c 2
 312.989257812 39.98828125 l 2
 311.989257812 40.98828125 310.989257812 42.98828125 311.989257812 44.98828125 c 2
514.989257812 57.98828125 m 2x080002
 514.989257812 27.98828125 l 2
 514.989257812 20.98828125 517.989257812 16.98828125 521.989257812 16.98828125 c 2
 532.989257812 16.98828125 l 2
 536.989257812 16.98828125 538.989257812 20.98828125 538.989257812 27.98828125 c 2
 538.989257812 57.98828125 l 2x880001
 538.989257812 66.98828125 536.989257812 70.98828125 532.989257812 70.98828125 c 2
 521.989257812 70.98828125 l 2
 517.989257812 70.98828125 514.989257812 66.98828125 514.989257812 57.98828125 c 2x080002
EndSplineSet
EndChar

StartChar: A.ss01
Encoding: 65538 -1 64
Width: 730
Flags: MW
HStem: -0.00999451 21G 141.99 133
VStem: 167 19<22 393> 268 62 565 55
LayerCount: 2
Back
Fore
SplineSet
435 14 m 2
 439 4 444.000976562 -0.0087890625 453.000976562 -0.0087890625 c 0
 460.000976562 -0.0087890625 469.000976562 5.9912109375 469.000976562 13.9912109375 c 0
 469.000976562 17.130859375 466.911132812 23.2705078125 466.000976562 25.990234375 c 2
 336.000976562 413.990234375 l 2
 333.000976562 422.990234375 326.000976562 428.990234375 314.000976562 428.990234375 c 2
 311.000976562 428.990234375 l 1
 313.000976562 508.990234375 317.000976562 630.990234375 317.000976562 668.990234375 c 0
 317.000976562 694.98046875 307.000976562 715.990234375 276.000976562 726.990234375 c 0
 249.000976562 736.990234375 208.000976562 759.990234375 208.000976562 777.990234375 c 2
 208.000976562 795.990234375 l 1
 213.000976562 798.990234375 221.000976562 804.990234375 221.000976562 825.990234375 c 0
 223.390625 876.290039062 224.020507812 889.270507812 224.020507812 890.73046875 c 0
 224.020507812 914.73046875 200.41015625 930 176 930 c 0
 150.540039062 930 126.969726562 914.75 126.969726562 890.549804688 c 0
 126.969726562 887.859375 127.629882812 875.76953125 130 826 c 0
 131 805 139 799 143 796 c 1
 143 778 l 2
 143 760 103 737 75 727 c 0
 44 716 35 695 35 669 c 0
 35 632 39 511 41 432 c 0
 42 406 56 393 76 393 c 1
 91 22 l 2
 91 8 103 0 127 0 c 0
 151 0 167 8 167 22 c 2
 167 393 l 1
 186 393 l 1
 186 22 l 2
 186 8 200 0 224 0 c 0
 248 -0 260.490234375 8.6396484375 261 22 c 2
 275 393 l 1
 303 393 l 1
 435 14 l 2
637.000976562 397.991210938 m 0
 639.000976562 397.991210938 640.000976562 396.991210938 640.000976562 392.991210938 c 2
 640.000976562 364.991210938 l 1
 709.000976562 328.991210938 l 2
 715.000976562 325.991210938 718.000976562 323.991210938 718.000976562 319.991210938 c 0
 718.000976562 313.991210938 715.000976562 304.991210938 711.000976562 297.991210938 c 0
 703.000976562 283.991210938 696.000976562 280.991210938 686.000976562 280.991210938 c 2
 643.000976562 280.991210938 l 1
 619.000976562 165.991210938 l 1
 620.000976562 14.9912109375 l 2
 620.000976562 4.9912109375 613.000976562 -0.0087890625 596.000976562 -0.0087890625 c 0
 580.000976562 -0.0087890625 565.000976562 4.9912109375 565.000976562 14.9912109375 c 2
 554.000976562 141.991210938 l 1
 497.000976562 141.991210938 l 2
 481.000976562 141.991210938 460.000976562 143.991210938 444.000976562 147.991210938 c 1
 400.000976562 278.991210938 l 1
 541.000976562 270.991210938 l 1
 632.000976562 394.991210938 l 2
 633.600585938 397.391601562 634.600585938 397.991210938 637.000976562 397.991210938 c 0
330.000976562 263.991210938 m 1
 386.000976562 101.990234375 l 1
 372.000976562 14.990234375 l 2
 370.000976562 0.990234375 364.000976562 -0.009765625 341.000976562 -0.009765625 c 0
 324.2109375 -0.009765625 316.000976562 5.140625 316.000976562 14.62109375 c 0
 316.000976562 15.771484375 319.220703125 72.2412109375 330.000976562 263.991210938 c 1
EndSplineSet
EndChar

StartChar: B.ss01
Encoding: 65539 -1 65
Width: 730
Flags: MW
HStem: 0 21G<409.05 424 626 641>
VStem: 82.99 83 126.96 97.07 141.99 67.01 184.99 83.5 601.5 56.5
LayerCount: 2
Back
Fore
SplineSet
291 396 m 0x8c
 287 394 281.991210938 392.999023438 275.991210938 392.999023438 c 1
 260.991210938 21.9990234375 l 2
 259.991210938 6.9990234375 248.991210938 -0.0009765625 224.991210938 -0.0009765625 c 0
 200.991210938 -0.0009765625 184.991210938 7.9990234375 184.991210938 21.9990234375 c 2
 184.991210938 388.999023438 l 1x8c
 165.991210938 388.999023438 l 1
 165.991210938 21.9990234375 l 2
 165.991210938 7.9990234375 149.991210938 -0.0009765625 126.991210938 -0.0009765625 c 0
 102.991210938 -0.0009765625 91.9912109375 6.9990234375 90.9912109375 21.9990234375 c 2
 74.9912109375 392.999023438 l 1
 49.9912109375 392.999023438 41.4716796875 411.979492188 40.9912109375 430.999023438 c 0
 35.9111328125 632.0390625 34.9912109375 655.348632812 34.9912109375 671.999023438 c 0xcc
 34.9912109375 696.999023438 43.9912109375 718.999023438 73.9912109375 729.999023438 c 0
 101.991210938 739.999023438 141.991210938 761.999023438 141.991210938 781.999023438 c 2
 141.991210938 796.999023438 l 1x94
 137.991210938 798.999023438 130.991210938 805.999023438 129.991210938 826.999023438 c 0
 129.141601562 844.739257812 126.961914062 889.338867188 126.961914062 891.508789062 c 0
 126.961914062 914.668945312 149.561523438 929.999023438 175.991210938 929.999023438 c 0
 201.451171875 929.999023438 224.03125 914.668945312 224.03125 891.499023438 c 0
 224.03125 873.548828125 222.831054688 844.44921875 222.000976562 826.999023438 c 0xa4
 221.000976562 805.999023438 213.000976562 798.999023438 209.000976562 796.999023438 c 1
 209.000976562 781.999023438 l 2x94
 209.000976562 761.999023438 249.000976562 739.999023438 277.000976562 729.999023438 c 0
 305.80078125 719.439453125 317.060546875 698.739257812 317.060546875 674.979492188 c 0
 317.060546875 671.849609375 316.16015625 643.049804688 309.990234375 431 c 0
 309.990234375 427 308.990234375 423 307.990234375 419 c 0
 414.259765625 339.879882812 521.109375 285.290039062 613.999023438 263 c 1
 665.999023438 329 l 2
 667.529296875 330.940429688 669.809570312 332 672 332 c 0
 674.48046875 332 676 330.48046875 676 328 c 2
 676 301 l 1
 734 268 l 2
 739 265 743 260 743 256 c 0
 743 251 741 245 737 237 c 0
 732 227 725 222 713 222 c 2
 674 222 l 1
 658 146 l 1
 658 13 l 2
 658 4 649 0 633 0 c 0
 619 0 606.83984375 3.9404296875 606 13 c 2
 597 110 l 1
 550 110 l 2
 525 110 492 116 462 129 c 1
 443 13 l 2
 441 4 432 0 416 0 c 0
 402.099609375 0 394 3.9404296875 394 12.810546875 c 0
 393.990234375 13.560546875 396.830078125 58.5009765625 406 206.000976562 c 1
 392 212.000976562 380 231.000976562 380 245.000976562 c 1
 584 224.000976562 l 1
 595 238.000976562 l 1
 490.919921875 264.020507812 394.209960938 322.290039062 291 396 c 0x8c
EndSplineSet
EndChar

StartChar: C.ss01
Encoding: 65540 -1 66
Width: 540
Flags: MW
HStem: 0 929.99
VStem: 30 497<46.5 548.99>
LayerCount: 2
Back
Fore
SplineSet
427 236 m 2
 424 259 423 263.990234375 417 277.990234375 c 2
 326 456.990234375 l 1
 335 605.990234375 l 1
 372 549.990234375 l 2
 382 536.990234375 390 532.990234375 408 527.990234375 c 2
 482 508.990234375 l 2
 486 507.990234375 491 506.990234375 496 506.990234375 c 0
 512.490234375 506.990234375 527 523.150390625 527 541.990234375 c 0
 527 555.990234375 521 562.990234375 506 567.990234375 c 2
 422 592.990234375 l 1
 351 715.990234375 l 2
 338 737.990234375 323 751.990234375 306 758.990234375 c 1
 308 789.990234375 l 1
 320 793.990234375 327 803.990234375 329 817.990234375 c 0
 334.030273438 861.440429688 337 882.040039062 337 890.990234375 c 0
 337 911.990234375 314 929.990234375 287 929.990234375 c 0
 260 929.990234375 244 914.990234375 242 890.990234375 c 0
 239.23046875 846.959960938 238 826.690429688 238 825 c 0
 238 810 243 801 252 793 c 1
 252 778 240 769 228 764 c 0
 212 758 192.490234375 743.650390625 175 721 c 2
 97 620 l 2
 88 608 81 590 79 572 c 0
 69.990234375 496.33984375 66 468.719726562 66 462 c 0
 66 446 80 430 98 430 c 0
 115 430 126 438 129 462 c 2
 142 572 l 1
 197 624 l 1
 179 451 l 1
 131 225 l 1
 59 106 l 2
 34 65 30 57 30 51 c 0
 30 42 36 34 48 25 c 0
 62 15 70 12 78 12 c 0
 85 12 92 15 96 21 c 2
 178 148 l 2
 195 176 206 195 215 218 c 2
 265 357 l 1
 343 231 l 1
 375 22 l 2
 380 4 394 0 419 0 c 0
 440 0 452 6 452 17 c 0
 452 19 452 20 451 31 c 2
 427 236 l 2
EndSplineSet
EndChar

StartChar: D.ss01
Encoding: 65541 -1 67
Width: 800
Flags: MW
HStem: 0 51 523 68<455.736 585.001 479.001 537.001>
VStem: 158.99 88 207.96 97.07 222.99 67.01 265.99 86 503.99 52 537 31.99 620.99 32 634.99 52
LayerCount: 2
Back
Fore
SplineSet
362 623 m 1xc580
 341.9921875 21.9990234375 l 2
 340.9921875 6.9990234375 329.9921875 -0.0009765625 305.9921875 -0.0009765625 c 0
 281.9921875 -0.0009765625 265.9921875 7.9990234375 265.9921875 21.9990234375 c 2
 265.9921875 388.999023438 l 1xc580
 246.9921875 388.999023438 l 1
 246.9921875 21.9990234375 l 2
 246.9921875 7.9990234375 231.9921875 -0.0009765625 207.9921875 -0.0009765625 c 0
 183.9921875 -0.0009765625 169.9921875 6.9990234375 168.9921875 21.9990234375 c 2
 148.9921875 642.999023438 l 1
 99.9921875 606.999023438 l 2xe580
 83.9921875 594.999023438 71.9921875 592.999023438 57.9921875 592.999023438 c 0
 39.47265625 592.999023438 26.4423828125 599.168945312 19.9921875 610.999023438 c 2
 -56.0078125 759.999023438 l 2
 -61.0078125 769.999023438 -64.0078125 775.999023438 -64.0078125 782.999023438 c 0
 -64.0078125 797.999023438 -51.0078125 810.999023438 -36.0078125 810.999023438 c 0
 -24.0078125 810.999023438 -15.0078125 803.999023438 -9.0078125 791.999023438 c 2
 57.9921875 662.999023438 l 1
 87.9921875 691.999023438 134.9921875 724.999023438 169.9921875 734.999023438 c 0
 193.9921875 741.999023438 222.9921875 761.999023438 222.9921875 781.999023438 c 2
 222.9921875 796.999023438 l 1xc980
 218.9921875 798.999023438 212.162109375 806.0390625 210.9921875 826.999023438 c 0
 209.952148438 845.729492188 207.961914062 889.33984375 207.961914062 891.5 c 0
 207.961914062 914.66015625 230.561523438 930 256.991210938 930 c 0
 282.451171875 930 305.03125 914.66015625 305.03125 891.5 c 0
 305.03125 883.540039062 304.000976562 843.459960938 303.000976562 827 c 0xd180
 301.720703125 806.009765625 294.000976562 799 290.000976562 797 c 1
 290.000976562 782 l 2
 290.000976562 762 329.000976562 741 358.000976562 730 c 0
 379.000976562 722 398.000976562 707 411.000976562 691 c 2
 479.000976562 591 l 1
 585.000976562 591 l 2
 612.000976562 591 624.000976562 577 624.000976562 554 c 1
 640.000976562 554 l 2
 649.000976562 554 653.000976562 548 653.000976562 534 c 2
 653.000976562 448 l 1
 663.000976562 448 l 2xc980
 699.000976562 448 730.000976562 419 731.000976562 381 c 0
 734.000976562 286.66015625 740.000976562 112.169921875 740.000976562 98 c 0
 740.000976562 88 731.000976562 69 711.000976562 69 c 2xc540
 479.000976562 69 l 2
 459.000976562 69 450.000976562 88 450.000976562 98 c 0
 450.000976562 112.169921875 456.000976562 286.66015625 459.000976562 381 c 0
 460.000976562 424 494.000976562 448 537.000976562 448 c 1
 537.000976562 523 l 1
 461.791015625 523 l 2
 449.680664062 523 442.190429688 527.48046875 430 542 c 2
 362 623 l 1xc580
620.9921875 447.999023438 m 1
 620.9921875 522.999023438 l 1
 568.9921875 522.999023438 l 1
 568.9921875 447.999023438 l 1
 620.9921875 447.999023438 l 1
529.9921875 50.9990234375 m 0xc640
 543.9921875 50.9990234375 555.9921875 39.9990234375 555.9921875 24.9990234375 c 0
 555.9921875 10.9990234375 543.9921875 -0.0009765625 529.9921875 -0.0009765625 c 0
 515.9921875 -0.0009765625 503.9921875 10.9990234375 503.9921875 24.9990234375 c 0
 503.9921875 39.9990234375 515.9921875 50.9990234375 529.9921875 50.9990234375 c 0xc640
660.9921875 50.9990234375 m 0
 675.9921875 50.9990234375 686.9921875 39.9990234375 686.9921875 24.9990234375 c 0
 686.9921875 10.9990234375 675.9921875 -0.0009765625 660.9921875 -0.0009765625 c 0
 646.9921875 -0.0009765625 634.9921875 10.9990234375 634.9921875 24.9990234375 c 0
 634.9921875 39.9990234375 646.9921875 50.9990234375 660.9921875 50.9990234375 c 0
EndSplineSet
EndChar

StartChar: E.ss01
Encoding: 65542 -1 68
Width: 700
Flags: MW
HStem: -0.0200043 51 522.98 31.01 522.99 65.37
VStem: 96 52 130 31.99 214 32 227 52 428.5 86.73 477.49 94.94 493.12 66.31 534.7 82.94
LayerCount: 2
Back
Fore
SplineSet
625 737.549804688 m 0xac40
 651.26953125 728.530273438 657.150390625 707.598632812 657.150390625 668.758789062 c 2
 657.150390625 431.69921875 l 2xac40
 657.150390625 412.2890625 650.440429688 393.279296875 625.430664062 393.26953125 c 1
 609.850585938 21.94921875 l 2
 609.310546875 7.4794921875 597.780273438 0.1796875 573.870117188 0.1796875 c 0
 550.1796875 0.1796875 534.69921875 8.0595703125 534.69921875 21.9599609375 c 2
 534.758789062 389.299804688 l 1xad20
 515.168945312 389.299804688 l 1
 515.228515625 21.9599609375 l 2
 515.228515625 8.0595703125 499.80859375 0.1796875 475.938476562 0.1796875 c 0
 452.028320312 0.1796875 440.568359375 7.4892578125 439.978515625 21.958984375 c 2
 417.018554688 620.7890625 l 1
 357.838867188 541.838867188 l 2
 345.87890625 527.098632812 336.909179688 522.98828125 318.599609375 522.98828125 c 2
 246.009765625 522.98828125 l 1
 246.009765625 447.98828125 l 1xad
 289.009765625 447.98828125 323.009765625 423.98828125 324.009765625 380.98828125 c 0
 327.009765625 286.658203125 333.009765625 112.318359375 333.009765625 97.98828125 c 0
 333.009765625 87.98828125 324.009765625 68.98828125 304.009765625 68.98828125 c 2
 72.009765625 68.98828125 l 2
 52.009765625 68.98828125 43.009765625 87.98828125 43.009765625 97.98828125 c 0
 43.009765625 112.318359375 49.009765625 286.658203125 52.009765625 380.98828125 c 0
 53.009765625 418.98828125 84.009765625 447.98828125 120.009765625 447.98828125 c 2
 130.009765625 447.98828125 l 1
 130.009765625 533.98828125 l 2
 130.009765625 547.98828125 134.009765625 553.98828125 143.009765625 553.98828125 c 2xcd
 159.849609375 553.98828125 l 1
 159.859375 556.388671875 l 2
 159.849609375 574.858398438 174.01953125 588.358398438 192.469726562 588.358398438 c 2
 296.9296875 588.358398438 l 1
 367.91015625 695.978515625 l 2
 383.73046875 719.96875 399.3203125 730.678710938 424.83984375 737.548828125 c 0
 460.379882812 747.208984375 493.120117188 758.7890625 493.120117188 778.2890625 c 2
 493.1796875 796.619140625 l 1xac40
 488.849609375 798.859375 481.059570312 802.569335938 480.189453125 823.239257812 c 0
 479.469726562 841.599609375 478.239257812 872.409179688 477.489257812 889.889648438 c 0
 476.508789062 913.859375 499.829101562 929.979492188 526.338867188 929.979492188 c 0
 552.798828125 929.979492188 576.279296875 913.76953125 575.139648438 889.889648438 c 0
 574.309570312 872.469726562 573.109375 841.639648438 572.4296875 823.239257812 c 0xac80
 571.620117188 802.569335938 563.8203125 798.859375 559.5 796.58984375 c 1
 559.4296875 778.290039062 l 2
 559.4296875 758.790039062 598.219726562 746.799804688 625 737.549804688 c 0xac40
214.000976562 447.978515625 m 1xcd
 214.000976562 522.978515625 l 1
 162.000976562 522.978515625 l 1
 162.000976562 447.978515625 l 1
 214.000976562 447.978515625 l 1xcd
122.000976562 50.978515625 m 0xb3
 136.000976562 50.978515625 148.000976562 39.978515625 148.000976562 24.978515625 c 0
 148.000976562 10.978515625 136.000976562 -0.021484375 122.000976562 -0.021484375 c 0
 107.000976562 -0.021484375 96.0009765625 10.978515625 96.0009765625 24.978515625 c 0
 96.0009765625 39.978515625 107.000976562 50.978515625 122.000976562 50.978515625 c 0xb3
253.000976562 50.978515625 m 0
 267.000976562 50.978515625 279.000976562 39.978515625 279.000976562 24.978515625 c 0
 279.000976562 10.978515625 267.000976562 -0.021484375 253.000976562 -0.021484375 c 0
 239.000976562 -0.021484375 227.000976562 10.978515625 227.000976562 24.978515625 c 0
 227.000976562 39.978515625 239.000976562 50.978515625 253.000976562 50.978515625 c 0
EndSplineSet
EndChar

StartChar: F.ss01
Encoding: 65543 -1 69
Width: 698
Flags: MW
HStem: -1.02 337 -0.00999451 21G 522.99 66
VStem: 425.7 87.29 473.48 94.94 489.11 66.31 531.99 83.59
LayerCount: 2
Back
Fore
SplineSet
420.830078125 737.549804688 m 0x64
 456.370117188 747.209960938 489.111328125 758.77734375 489.111328125 778.27734375 c 2
 489.170898438 796.607421875 l 1x64
 484.840820312 798.84765625 477.05078125 802.557617188 476.180664062 823.227539062 c 0
 475.4609375 841.587890625 474.23046875 872.397460938 473.48046875 889.877929688 c 0
 472.5 913.84765625 495.8203125 929.967773438 522.330078125 929.967773438 c 0
 548.790039062 929.967773438 572.270507812 913.7578125 571.130859375 889.877929688 c 0
 570.30078125 872.458007812 569.100585938 841.627929688 568.420898438 823.227539062 c 0x68
 567.611328125 802.557617188 559.811523438 798.84765625 555.491210938 796.578125 c 1
 555.420898438 778.278320312 l 2
 555.420898438 758.778320312 594.2109375 746.788085938 620.991210938 737.538085938 c 0
 647.260742188 728.518554688 653.140625 707.608398438 653.140625 668.768554688 c 2
 653.140625 431.708984375 l 2x64
 653.140625 412.298828125 646.430664062 393.2890625 623.180664062 393.2890625 c 1
 607.990234375 21.9892578125 l 2
 607.390625 6.9697265625 595.990234375 -0.0107421875 571.990234375 -0.0107421875 c 0
 547.990234375 -0.0107421875 531.990234375 7.9892578125 531.990234375 21.9892578125 c 2
 531.990234375 388.989257812 l 1x72
 512.990234375 388.989257812 l 1
 512.990234375 21.9892578125 l 2
 512.990234375 7.9892578125 496.990234375 -0.0107421875 473.990234375 -0.0107421875 c 0
 449.990234375 -0.0107421875 438.580078125 6.9697265625 437.990234375 21.9892578125 c 2
 413.41015625 611.508789062 l 1
 361.990234375 537.989257812 l 2x70
 355.600585938 528.819335938 350.990234375 522.989257812 330.990234375 522.989257812 c 2
 202.990234375 522.989257812 l 2
 183.990234375 522.989257812 168.990234375 537.989257812 168.990234375 556.989257812 c 0
 168.990234375 572.989257812 182.990234375 588.989257812 201.990234375 588.989257812 c 2
 306.990234375 588.989257812 l 1
 365.629882812 686.94921875 l 2
 381.290039062 713.099609375 387.889648438 728.599609375 420.830078125 737.549804688 c 0x64
187.000976562 455.977539062 m 2
 192.000976562 445.977539062 l 2
 197.000976562 434.977539062 200.000976562 424.977539062 200.000976562 417.977539062 c 0
 200.000976562 406.977539062 197.000976562 403.977539062 187.000976562 398.977539062 c 2
 170.000976562 390.977539062 l 2
 166.000976562 388.977539062 162.000976562 387.977539062 159.000976562 387.977539062 c 0
 149.000976562 387.977539062 141.000976562 397.977539062 132.000976562 416.977539062 c 2
 127.000976562 427.977539062 l 2
 121.000976562 440.977539062 119.000976562 448.977539062 119.000976562 453.977539062 c 0
 119.000976562 462.977539062 122.000976562 468.977539062 130.000976562 472.977539062 c 2
 149.000976562 481.977539062 l 2
 154.000976562 483.977539062 157.000976562 483.977539062 161.000976562 483.977539062 c 0
 169.000976562 483.977539062 178.000976562 474.977539062 187.000976562 455.977539062 c 2
51.0009765625 335.977539062 m 2xb0
 248.000976562 335.977539062 l 2
 264.000976562 335.977539062 275.000976562 324.977539062 275.000976562 313.977539062 c 0
 275.000976562 293.647460938 254.331054688 131.307617188 244.000976562 39.9775390625 c 0
 241.000976562 18.9775390625 230.000976562 -1.0224609375 201.000976562 -1.0224609375 c 2
 98.0009765625 -1.0224609375 l 2
 69.0009765625 -1.0224609375 58.0009765625 18.9775390625 56.0009765625 39.9775390625 c 0
 45.3310546875 131.307617188 24.0009765625 293.647460938 24.0009765625 313.977539062 c 0
 24.0009765625 325.977539062 35.0009765625 335.977539062 51.0009765625 335.977539062 c 2xb0
EndSplineSet
EndChar

StartChar: G.ss01
Encoding: 65544 -1 70
Width: 880
Flags: MW
HStem: -0.169998 21G 390.33 73.33 699.99 29 753.99 27 849.99 22 899.99 30
VStem: -0.0200043 29 95.98 26 124.98 26 199.98 30 338.08 97.88 355.4 63.24 617.02 82.96 662.21 94.98 676.56 66.26 719.47 82.72
LayerCount: 2
Back
Fore
SplineSet
850.830078125 668.490234375 m 2xe761
 844.861328125 431.3125 l 2
 844.37109375 411.90234375 835.220703125 393.092773438 809.720703125 393.092773438 c 1
 794.670898438 21.623046875 l 2
 794.130859375 7.11328125 782.650390625 -0.1669921875 758.720703125 -0.1669921875 c 0
 734.900390625 -0.1669921875 719.470703125 7.712890625 719.470703125 21.623046875 c 2
 719.530273438 389.163085938 l 1xe761
 699.930664062 389.163085938 l 1
 699.98046875 21.623046875 l 2
 699.98046875 7.712890625 684.5 -0.1669921875 660.6796875 -0.1669921875 c 0
 636.799804688 -0.1669921875 625.219726562 7.11328125 624.6796875 21.623046875 c 2
 609.359375 390.333007812 l 1
 15.5693359375 390.333007812 l 2
 5.609375 390.333007812 0.62890625 399.373046875 0.62890625 417.422851562 c 2
 0.62890625 436.5625 l 2
 0.62890625 454.622070312 5.609375 463.662109375 15.5693359375 463.662109375 c 2
 268.2890625 463.662109375 l 1
 268.779296875 640.692382812 l 2
 268.779296875 661.782226562 282.149414062 678.211914062 311.219726562 682.971679688 c 0
 338.939453125 687.471679688 355.399414062 706.8515625 355.399414062 729.181640625 c 2
 355.399414062 740.931640625 l 2xe759
 351.549804688 742.662109375 341.58984375 746.702148438 340.780273438 767.432617188 c 2
 338.080078125 834.1328125 l 2
 338.080078125 858.0625 360.709960938 874.2421875 386.959960938 874.2421875 c 0
 413.330078125 874.2421875 435.959960938 858.0625 435.959960938 834.1328125 c 2
 433.200195312 767.432617188 l 2xe761
 432.390625 746.702148438 422.430664062 742.662109375 418.640625 740.931640625 c 2
 418.640625 729.181640625 l 2
 418.640625 706.8515625 435.100585938 687.471679688 462.760742188 682.971679688 c 0
 491.890625 678.211914062 505.260742188 662.811523438 505.260742188 640.69140625 c 2
 505.640625 463.661132812 l 1
 573.750976562 463.661132812 l 1
 568.661132812 668.491210938 l 2xe759
 568.661132812 693.861328125 577.970703125 715.491210938 608.180664062 726.340820312 c 0
 636.55078125 736.470703125 676.560546875 758.911132812 676.560546875 778.37109375 c 2
 676.560546875 797.2109375 l 1xe762
 672.23046875 799.401367188 664.430664062 805.87109375 663.5703125 826.55078125 c 2
 660.860351562 889.970703125 l 2
 659.830078125 913.900390625 683.219726562 930.060546875 709.689453125 930.060546875 c 0
 736.219726562 930.060546875 759.76953125 913.870117188 758.51953125 889.969726562 c 2
 755.869140625 826.549804688 l 2xe764
 754.999023438 805.870117188 747.208984375 799.400390625 742.819335938 797.209960938 c 1
 742.819335938 778.370117188 l 2
 742.819335938 758.91015625 782.889648438 736.469726562 811.259765625 726.33984375 c 0xe762
 841.41015625 715.490234375 850.830078125 693.860351562 850.830078125 668.490234375 c 2xe761
113.981445312 699.9921875 m 0
 49.9814453125 699.9921875 -0.0185546875 749.9921875 -0.0185546875 814.9921875 c 0
 -0.0185546875 878.9921875 49.9814453125 929.9921875 113.981445312 929.9921875 c 0
 178.981445312 929.9921875 229.981445312 878.9921875 229.981445312 814.9921875 c 0
 229.981445312 749.9921875 178.981445312 699.9921875 113.981445312 699.9921875 c 0
113.981445312 728.9921875 m 0
 161.981445312 728.9921875 199.981445312 766.9921875 199.981445312 814.9921875 c 0
 199.981445312 861.9921875 161.981445312 899.9921875 113.981445312 899.9921875 c 0
 66.9814453125 899.9921875 28.9814453125 861.9921875 28.9814453125 814.9921875 c 0
 28.9814453125 766.9921875 66.9814453125 728.9921875 113.981445312 728.9921875 c 0
107.981445312 791.9921875 m 2xeee1
 100.981445312 791.9921875 98.9814453125 791.993164062 98.9814453125 795.993164062 c 0
 98.9814453125 805.623046875 103.771484375 814.012695312 109.981445312 820.993164062 c 0
 117.981445312 829.993164062 124.981445312 835.993164062 124.981445312 840.993164062 c 0
 124.981445312 845.993164062 121.981445312 849.993164062 112.981445312 849.993164062 c 0
 106.071289062 849.993164062 100.590820312 847.603515625 97.2109375 846.133789062 c 0
 95.69140625 845.473632812 94.6015625 844.993164062 93.9814453125 844.993164062 c 0
 89.9814453125 844.993164062 83.9814453125 854.993164062 83.9814453125 857.993164062 c 0
 83.9814453125 867.993164062 101.981445312 871.993164062 114.981445312 871.993164062 c 0
 137.981445312 871.993164062 150.981445312 860.993164062 150.981445312 841.993164062 c 0
 150.981445312 827.3828125 141.750976562 819.602539062 133.291015625 812.462890625 c 0
 127.271484375 807.392578125 121.641601562 802.642578125 119.981445312 795.9921875 c 0
 118.981445312 791.9921875 116.981445312 791.9921875 111.981445312 791.9921875 c 2
 107.981445312 791.9921875 l 2xeee1
111.981445312 780.993164062 m 2
 118.981445312 780.993164062 121.981445312 778.993164062 121.981445312 774.993164062 c 2
 121.981445312 758.993164062 l 2
 121.981445312 755.993164062 118.981445312 753.993164062 111.981445312 753.993164062 c 2
 105.981445312 753.993164062 l 2
 99.9814453125 753.993164062 95.9814453125 755.993164062 95.9814453125 758.993164062 c 2xf761
 95.9814453125 774.993164062 l 2
 95.9814453125 778.993164062 99.9814453125 780.993164062 105.981445312 780.993164062 c 2
 111.981445312 780.993164062 l 2
EndSplineSet
EndChar

StartChar: H.ss01
Encoding: 65545 -1 71
Width: 310
Flags: MW
HStem: 0 21G<92 115.5 190 214> 475 58<24.5 190 33 190>
VStem: 6 46<505.495 552> 58 85 103 98<884.5 902> 120 63<791 797 779.5 797> 162 85.5 261 44<572 614>
LayerCount: 2
Back
Fore
SplineSet
33 475 m 2xd2
 16 475 6 494 6 516.990234375 c 0
 6 536.080078125 20.3603515625 616.549804688 34 702 c 0
 37 723 47 740 76 744 c 0
 104 749 120 768 120 791 c 2
 120 797 l 2xe4
 117 799 107 806 106 827 c 0
 105 848 103 879 103 890 c 0
 103 914 126 930 152 930 c 0
 178 930 201 914 201 890 c 0
 201 879 199 848 198 827 c 0xc8
 197 806 187 799 183 797 c 1
 183 791 l 2
 183 768 200 749 229 744 c 0
 258 740 271 723 276 702 c 0
 297.870117188 615.4296875 305 588.76953125 305 576 c 0
 305 568 304 560 299 551 c 0xc5
 289 532 268 513 257 513 c 1
 238 22 l 2
 237 7 226 0 202 0 c 0
 178 0 162 8 162 22 c 2
 162 389 l 1xc2
 143 389 l 1
 143 22 l 2
 143 8 127 0 104 0 c 0
 80 0 69 7 68 22 c 2
 48 475 l 1
 33 475 l 2xd2
215 625 m 2xe3
 204 613 l 2
 199 607 198 603 198 601 c 0
 198 598 199 594 201 591 c 2
 111 591 l 2
 68 591 52 571 52 533 c 1
 190 533 l 2
 195 533 201 535 206 540 c 2
 256 591 l 2
 260 595 261 601 261 607 c 0
 261 621 248 633 234 633 c 0
 227 633 220 630 215 625 c 2xe3
EndSplineSet
EndChar

StartChar: I.ss01
Encoding: 65546 -1 72
Width: 880
Flags: MW
HStem: 0 51<617.01 631.01 748.01 762.51> 0 78<617.01 789.01 748.01 762.51>
VStem: 598.01 52 729.01 52
LayerCount: 2
Back
Fore
SplineSet
105 225 m 1x70
 33.009765625 106 l 2
 8.009765625 65 4.009765625 57 4.009765625 51 c 0
 4.009765625 42 10.009765625 34 22.009765625 25 c 0
 36.009765625 15 44.009765625 12 52.009765625 12 c 0
 59.009765625 12 66.009765625 15 70.009765625 21 c 2
 152.009765625 148 l 2
 169.009765625 176 180.009765625 195 189.009765625 218 c 2
 239.009765625 357 l 1
 317.009765625 231 l 1
 349.009765625 22 l 2
 354.009765625 4 368.009765625 0 393.009765625 0 c 0
 414.009765625 0 425.009765625 6 425.009765625 17 c 0
 425.009765625 19 425.009765625 20 424.009765625 31 c 2
 401.009765625 236 l 2
 398.009765625 259 397.009765625 264 391.009765625 278 c 2
 303.009765625 458 l 1
 310.009765625 534 l 1
 336.009765625 510 l 2
 343.899414062 502.709960938 351.76953125 500 365.009765625 500 c 2
 450.009765625 500 l 1
 506.009765625 430 l 1
 552.009765625 148 l 2
 560.219726562 97.6298828125 590.009765625 78 642.009765625 78 c 2
 789.009765625 78 l 1x70
 803.009765625 64 l 2
 812.009765625 55 821.009765625 53 844.009765625 53 c 0
 869.009765625 53 876.009765625 57 876.009765625 63 c 0
 876.009765625 66 873.819335938 69.8095703125 871.009765625 73 c 2xb0
 771.009765625 186 l 2
 759.009765625 199 745.009765625 204 726.009765625 204 c 1
 648.009765625 305 l 1
 646.009765625 319 l 1
 653.009765625 322 661.009765625 328 662.009765625 345 c 0
 663.009765625 360 665.009765625 384 665.009765625 390 c 0
 665.009765625 414 649.009765625 431 618.009765625 431 c 0
 591.009765625 431 579.009765625 419 573.009765625 401 c 1
 481.009765625 519 l 2
 477.529296875 523.459960938 474.009765625 528 468.009765625 531 c 1
 468.009765625 548 455.009765625 561 439.009765625 561 c 2
 367.009765625 561 l 1
 306.009765625 637 l 1
 306.009765625 670.540039062 296.799804688 699.469726562 283.83984375 724.58984375 c 0
 276.669921875 738.5 270 751.419921875 270 767 c 2
 269 794 l 1
 281 797 288 805 288 827 c 0
 288.33984375 848 289 878 289 890 c 0
 289 914 266 930 240 930 c 0
 214 930 191 914 191 890 c 0
 191 878 193 848 194 827 c 0
 195 806 205 799 208 797 c 2
 207 767 l 2
 206.629882812 755.76953125 201.099609375 743.629882812 195.639648438 728.330078125 c 0
 186.919921875 703.900390625 175.379882812 671.580078125 168 623 c 2
 105 225 l 1x70
624.009765625 51 m 0xb0
 638.009765625 51 650.009765625 40 650.009765625 25 c 0
 650.009765625 11 638.009765625 0 624.009765625 0 c 0x70
 610.009765625 0 598.009765625 11 598.009765625 25 c 0
 598.009765625 40 610.009765625 51 624.009765625 51 c 0xb0
755.009765625 51 m 0
 770.009765625 51 781.009765625 40 781.009765625 25 c 0
 781.009765625 11 770.009765625 0 755.009765625 0 c 0x70
 741.009765625 0 729.009765625 11 729.009765625 25 c 0
 729.009765625 40 741.009765625 51 755.009765625 51 c 0
EndSplineSet
EndChar

StartChar: J.ss01
Encoding: 65547 -1 73
Width: 620
Flags: MW
HStem: -0.00999451 21G 377.99 53 679.99 20G
VStem: 83.5 67.5 130.5 57 168 68.5 362.5 83.5 406.96 97.07 421.99 67.01 465 83
LayerCount: 2
Back
Fore
SplineSet
320 431 m 1xe6
 313.989257812 671.98046875 l 2xe6
 313.989257812 696.98046875 323.989257812 718.98046875 353.989257812 729.98046875 c 0
 381.989257812 739.98046875 421.989257812 761.98046875 421.989257812 781.98046875 c 2
 421.989257812 796.98046875 l 1xe480
 417.989257812 798.98046875 410.918945312 806.040039062 408.989257812 826.98046875 c 0
 407.989257812 837.840820312 406.958984375 884.380859375 406.958984375 891.48046875 c 0
 406.958984375 914.650390625 429.5390625 929.98046875 454.989257812 929.98046875 c 0
 481.4296875 929.98046875 504.029296875 914.650390625 504.029296875 891.490234375 c 0
 504.029296875 883.900390625 502.029296875 844.530273438 500.999023438 826.990234375 c 0xe5
 499.758789062 806.020507812 492.999023438 798.990234375 488.999023438 796.990234375 c 1
 488.999023438 781.990234375 l 2
 488.999023438 761.990234375 528.999023438 739.990234375 556.999023438 729.990234375 c 0xe480
 586.999023438 718.990234375 595.999023438 696.990234375 595.999023438 671.990234375 c 2
 589.999023438 430.990234375 l 2
 588.999023438 411.990234375 580.999023438 392.990234375 555.999023438 392.990234375 c 1
 539.999023438 21.990234375 l 2
 539.348632812 7.009765625 527.999023438 -0.009765625 503.999023438 -0.009765625 c 0
 480.999023438 -0.009765625 464.999023438 7.990234375 464.999023438 21.990234375 c 2
 464.999023438 388.990234375 l 1xe640
 445.999023438 388.990234375 l 1
 445.999023438 21.990234375 l 2
 445.999023438 7.990234375 429.999023438 -0.009765625 405.999023438 -0.009765625 c 0
 381.999023438 -0.009765625 370.999023438 6.990234375 369.999023438 21.990234375 c 2
 354.999023438 377.990234375 l 1
 310.999023438 377.990234375 l 2
 286.749023438 377.990234375 272.30859375 383.520507812 263.999023438 395.990234375 c 2
 240.999023438 426.990234375 l 1
 231.999023438 21.990234375 l 2
 231.638671875 5.9599609375 225.999023438 -0.009765625 200.999023438 -0.009765625 c 0
 177.999023438 -0.009765625 167.999023438 7.990234375 167.999023438 21.990234375 c 2
 167.999023438 262.990234375 l 1xe6
 150.999023438 262.990234375 l 1
 150.999023438 21.990234375 l 2
 150.999023438 7.990234375 140.999023438 -0.009765625 116.999023438 -0.009765625 c 0
 92.9990234375 -0.009765625 88.9990234375 6.990234375 87.9990234375 21.990234375 c 2
 78.9990234375 285.990234375 l 1
 64.189453125 285.990234375 53.759765625 293.700195312 53.759765625 304.360351562 c 0
 53.759765625 308.950195312 59.4599609375 371.180664062 75 515.990234375 c 0xf6
 77.4697265625 539.049804688 96 557.990234375 130 557.990234375 c 1
 131 580.990234375 l 1
 125 583.990234375 115.73046875 589.970703125 115 606.990234375 c 0
 113.08984375 651.360351562 112.939453125 660.290039062 112.939453125 662.219726562 c 0
 112.939453125 679.040039062 124.549804688 699.990234375 159 699.990234375 c 0
 192.950195312 699.990234375 205.049804688 680.009765625 205.049804688 662.950195312 c 0
 205.049804688 660.830078125 204.83984375 655.360351562 203 607 c 0
 202 590 194 584 187 581 c 1
 188 558 l 1
 217 558 229 543 247 517 c 2xea
 307 431 l 1
 320 431 l 1xe6
EndSplineSet
EndChar

StartChar: K.ss01
Encoding: 65548 -1 74
Width: 398
Flags: MW
HStem: 0 21G<308.5 319>
VStem: 95 80 297 33<14 411>
LayerCount: 2
Back
Fore
SplineSet
297 420 m 1
 212 496.000976562 l 1
 176 429.000976562 l 1
 175 22.0009765625 l 2
 175 8.0009765625 160 0.0009765625 136 0.0009765625 c 0
 112 0.0009765625 101 7.0009765625 100 22.0009765625 c 2
 90 239.000976562 l 1
 55 362.000976562 l 2
 48 385.000976562 40 422.000976562 40 446.000976562 c 0
 40 466.000976562 47 490.000976562 53 500.000976562 c 2
 160 678.000976562 l 2
 173 700.000976562 188 711.000976562 223 728.000976562 c 0
 234.25 733.62109375 240.33984375 739.220703125 248.169921875 748.990234375 c 2
 257 760 l 2
 256 762 255 764 255 767 c 0
 255 772 257 778 263 788 c 2
 301 848 l 2
 308 858 320 863 332 863 c 0
 343 863 353 861 365 852 c 0
 380 841 388 826 388 810 c 0
 388 802 386 796 382 790 c 2
 335 728 l 2
 330 722 324 720 319 720 c 0
 314 720 306 724 304 725 c 2
 301 720 l 2
 295 711 291 693 290 670 c 0
 289 649 279 621 269 601 c 1
 269 537 l 1
 344 465 l 2
 353 454 354 449 354 442 c 0
 354 431 345 415 330 411 c 1
 330 14 l 2
 330 7 324 0 314 0 c 0
 303 0 297 7 297 14 c 2
 297 420 l 1
EndSplineSet
EndChar

StartChar: L.ss01
Encoding: 65549 -1 75
Width: 530
Flags: MW
HStem: 0 21G<424 450.5> 219 101<113 349> 508 20G<62 73> 700 29<440.5 488 440.5 496.5> 734 20G<118 142.5> 801 26<460.5 500 478 500 478 500> 900 30<440.5 488>
VStem: 82 99<649 713 639.5 725> 98 62<600 609 609 618 598 618> 350 29<791 838.5 791 847> 451 27<827 866 827 866 858 866 827 869.5> 550 30<791 838.5>
LayerCount: 2
Back
Fore
SplineSet
464 700 m 0xf6f0
 400 700 350 750 350 815 c 0
 350 879 400 930 464 930 c 0
 529 930 580 879 580 815 c 0
 580 750 529 700 464 700 c 0xf6f0
464 729 m 0
 512 729 550 767 550 815 c 0
 550 862 512 900 464 900 c 0
 417 900 379 862 379 815 c 0
 379 767 417 729 464 729 c 0
514 814 m 0
 514 805 507 801 500 801 c 2
 464 801 l 2
 457 801 451 806 451 814 c 0
 451 827 451 850 451 866 c 0
 451 873 455 880 464 880 c 0
 473 880 478 873 478 866 c 2
 478 827 l 1
 500 827 l 2
 507 827 514 823 514 814 c 0
395 290 m 2
 469.349609375 25.509765625 l 2
 471.389648438 18.2099609375 473 12.4599609375 473 11 c 0
 473 3 464 0 437 0 c 0
 411 0 401 3 397 14 c 2
 332 219 l 1
 113 219 l 2
 86 219 74 239 71 261 c 2
 47 447 l 2
 44 468 40 501 40 511 c 0
 40 522 51 528 73 528 c 1
 84 548 98 581 98 600 c 2
 98 618 l 1
 94 620 82 628 82 649 c 2
 82 713 l 2
 82 737 106 754 130 754 c 0
 155 754 181 737 181 713 c 2
 181 648 l 2xef70
 181 631 165 619 160 618 c 1
 160 609 l 2
 160 587 168 575 182 562 c 0
 197 550 213 535 222 498 c 2
 255 359 l 1
 300 359 l 2
 326 359 341 343 341 320 c 1
 349 320 l 2
 372 320 389 313 395 290 c 2
EndSplineSet
EndChar

StartChar: M.ss01
Encoding: 65550 -1 76
Width: 580
Flags: MW
HStem: 0 21G<149.99 173.99> 388 135<451.99 463.99 463.99 572.99> 490 33 490 66<299.99 414 326 403.99> 542 17<486.49 491.49> 575 18<449.99 454.49 486.49 491.49> 584 32<443 443 460 460> 616 32<443 443 460 460> 629 7 648 31 663 18<368.49 373.49> 679 21 688 12
VStem: 120.99 80 370.99 18 410.99 18 434.99 17 443.99 17 488.99 84 509.99 17 538.99 18
LayerCount: 2
Back
Fore
SplineSet
573 523 m 1xa096a0
 572.990234375 388 l 1
 463.990234375 388 l 2
 439.990234375 388 430.990234375 399 421.990234375 429 c 2x401120
 403.990234375 490 l 1
 304.990234375 490 l 2
 294.990234375 490 281.990234375 493 274.990234375 500 c 2
 242.990234375 534 l 1
 184.990234375 429 l 1x2004
 200.990234375 245 l 1
 200.990234375 22 l 2
 200.990234375 8 185.990234375 0 161.990234375 0 c 0
 137.990234375 0 126.990234375 7 125.990234375 22 c 2
 115.990234375 239 l 1
 69.990234375 362 l 2
 60.990234375 385 43.990234375 434 43.990234375 465 c 0
 43.990234375 478 46.990234375 490 52.990234375 500 c 2
 165.990234375 678 l 2
 183.990234375 705 196.990234375 715 231.990234375 732 c 0
 243.990234375 738 253.280273438 742.940429688 261.990234375 756 c 2
 267.990234375 765 l 2
 267.120117188 766.75 266.049804688 769.26953125 266.049804688 772.889648438 c 0
 266.049804688 777.540039062 267.809570312 784 274 793 c 2
 313 853 l 2
 320 863 332 868 344 868 c 0
 355 868 365 866 377 857 c 0
 392 846 400 831 400 815 c 0
 400 807 398 801 394 795 c 2
 346 732 l 2
 341 726 335 724 330 724 c 0
 325 724 317 728 315 729 c 2
 312 724 l 2
 306 715 303 698 302 675 c 0
 301 654 293 629 283 609 c 1
 326 556 l 1
 414 556 l 2x900480
 431 556 446 540 446 523 c 1
 573 523 l 1xa096a0
428.990234375 700 m 0
 428.990234375 695 424.990234375 691 419.990234375 691 c 0
 414.990234375 691 410.990234375 695 410.990234375 700 c 0
 410.990234375 705 414.990234375 709 419.990234375 709 c 0
 424.990234375 709 428.990234375 705 428.990234375 700 c 0
388.990234375 688 m 0x000a
 383.990234375 688 379.990234375 692 379.990234375 696 c 0
 379.990234375 701 383.990234375 705 388.990234375 705 c 0
 393.990234375 705 397.990234375 701 397.990234375 696 c 0
 397.990234375 692 393.990234375 688 388.990234375 688 c 0x000a
451.990234375 679 m 0x004080
 451.990234375 674 447.990234375 670 443.990234375 670 c 0
 438.990234375 670 434.990234375 674 434.990234375 679 c 0
 434.990234375 684 438.990234375 688 443.990234375 688 c 0
 447.990234375 688 451.990234375 684 451.990234375 679 c 0x004080
370.990234375 663 m 0x0022
 365.990234375 663 361.990234375 667 361.990234375 672 c 0
 361.990234375 677 365.990234375 681 370.990234375 681 c 0
 375.990234375 681 379.990234375 677 379.990234375 672 c 0
 379.990234375 667 375.990234375 663 370.990234375 663 c 0x0022
460.990234375 648 m 0x010040
 460.990234375 644 456.990234375 640 451.990234375 640 c 0
 447.990234375 640 443.990234375 644 443.990234375 648 c 0
 443.990234375 654 447.990234375 658 451.990234375 658 c 0
 456.990234375 658 460.990234375 654 460.990234375 648 c 0x010040
526.990234375 636 m 0x008010
 526.990234375 631 522.990234375 627 518.990234375 627 c 0
 513.990234375 627 509.990234375 631 509.990234375 636 c 0
 509.990234375 641 513.990234375 645 518.990234375 645 c 0
 522.990234375 645 526.990234375 641 526.990234375 636 c 0x008010
556.990234375 629 m 0x008008
 556.990234375 624 552.990234375 620 547.990234375 620 c 0
 542.990234375 620 538.990234375 624 538.990234375 629 c 0
 538.990234375 634 542.990234375 638 547.990234375 638 c 0
 552.990234375 638 556.990234375 634 556.990234375 629 c 0x008008
460.990234375 616 m 0x020040
 460.990234375 611 456.990234375 607 451.990234375 607 c 0
 447.990234375 607 443.990234375 611 443.990234375 616 c 0
 443.990234375 621 447.990234375 625 451.990234375 625 c 0
 456.990234375 625 460.990234375 621 460.990234375 616 c 0x020040
506.990234375 613 m 0x020020
 506.990234375 608 502.990234375 604 497.990234375 604 c 0
 492.990234375 604 488.990234375 608 488.990234375 613 c 0
 488.990234375 618 492.990234375 622 497.990234375 622 c 0
 502.990234375 622 506.990234375 618 506.990234375 613 c 0x020020
460.990234375 584 m 0x020040
 460.990234375 579 456.990234375 575 451.990234375 575 c 0
 447.990234375 575 443.990234375 579 443.990234375 584 c 0
 443.990234375 589 447.990234375 593 451.990234375 593 c 0
 456.990234375 593 460.990234375 589 460.990234375 584 c 0x020040
488.990234375 593 m 0x040020
 493.990234375 593 497.990234375 589 497.990234375 584 c 0
 497.990234375 579 493.990234375 575 488.990234375 575 c 0
 483.990234375 575 479.990234375 579 479.990234375 584 c 0
 479.990234375 589 483.990234375 593 488.990234375 593 c 0x040020
488.990234375 542 m 0x080020
 483.990234375 542 479.990234375 546 479.990234375 551 c 0
 479.990234375 555 483.990234375 559 488.990234375 559 c 0
 493.990234375 559 497.990234375 555 497.990234375 551 c 0
 497.990234375 546 493.990234375 542 488.990234375 542 c 0x080020
EndSplineSet
EndChar

StartChar: N.ss01
Encoding: 65551 -1 77
Width: 370
Flags: MW
HStem: 0 21G<124 147.5 222 246>
VStem: 92 83 135.96 97.07 151 67<782.01 797 772 797.01 772 797.01> 194 83.5
LayerCount: 2
Back
Fore
SplineSet
319 431 m 0x88
 318 414 310 393 285 393 c 1
 270 22 l 2
 269 7 258 0 234 0 c 0
 210 0 194 8 194 22 c 2
 194 389 l 1x88
 175 389 l 1
 175 22 l 2
 175 8 159 0 136 0 c 0
 112 0 101 7 100 22 c 2
 84 393 l 1
 59 393 51 412 50 431 c 0
 48 511.33984375 44 636.669921875 44 672.009765625 c 0xc8
 44 697.009765625 53 719.009765625 83 730.009765625 c 0
 111 740.009765625 151 762.009765625 151 782.009765625 c 2
 151 797.009765625 l 1x90
 147 799.009765625 140.299804688 806.049804688 139 827.009765625 c 0
 137.950195312 843.729492188 135.959960938 883.33984375 135.959960938 891.509765625 c 0
 135.959960938 914.669921875 158.559570312 930 185 930 c 0
 210.450195312 930 233.030273438 914.669921875 233.030273438 891.5 c 0
 233.030273438 873.549804688 232.040039062 843.469726562 231 827 c 0xa0
 229.669921875 806.01953125 222 799 218 797 c 1
 218 782 l 2
 218 762 258 740 286 730 c 0x90
 316 719 326 696.959960938 326 672 c 0
 326 636.669921875 321.330078125 511.330078125 319 431 c 0x88
EndSplineSet
EndChar

StartChar: O.ss01
Encoding: 65552 -1 78
Width: 298
Flags: MW
HStem: 0 21G<91.5 115.5 176 200> 679.99 20G
VStem: 69.5 67.5 117.51 56.99 154 67.5
LayerCount: 2
Back
Fore
SplineSet
66 286 m 1xe0
 51.1298828125 286 40.7685546875 294.068359375 40.7685546875 304.478515625 c 0
 40.7685546875 306.638671875 41.8486328125 317.888671875 62.0087890625 515.98828125 c 0xe0
 64.478515625 540.278320312 83.0087890625 557.98828125 117.008789062 557.98828125 c 1
 118.008789062 580.98828125 l 1
 111.008789062 583.98828125 102.668945312 589.978515625 102.008789062 606.98828125 c 0
 100.12890625 655.377929688 99.9384765625 660.23828125 99.9384765625 662.228515625 c 0
 99.9384765625 678.938476562 111.55859375 699.98828125 145.999023438 699.98828125 c 0
 180.479492188 699.98828125 192.059570312 678.8984375 192.059570312 662.178710938 c 0
 192.059570312 660.079101562 191.879882812 655.499023438 190 606.989257812 c 0
 189.330078125 589.87890625 180 583.989257812 174 580.989257812 c 1
 175 557.989257812 l 1
 209 557.989257812 227.559570312 540.279296875 230 515.989257812 c 0
 249.830078125 319.1796875 251.23046875 306.58984375 251.23046875 304.330078125 c 0xd0
 251.23046875 293.959960938 240.790039062 286 226 286 c 1
 217 22 l 2
 216 7 212 0 188 0 c 0
 164 0 154 8 154 22 c 2
 154 263 l 1xe8
 137 263 l 1
 137 22 l 2
 137 8 127 0 104 0 c 0
 79 0 74 7 73 22 c 2
 66 286 l 1xe0
EndSplineSet
EndChar

StartChar: P.ss01
Encoding: 65553 -1 79
Width: 620
Flags: MW
HStem: -8 35 226 101<417 469 417 417> 356 36 726 20G<252 276.5>
VStem: 20 35<145.999 233.499 145.999 242> 216 99<641 705 631.5 717> 232 62<592 601 601 610 590 610> 384 36<145.999 197.999>
LayerCount: 2
Back
Fore
SplineSet
207 392 m 1xfd
 206 438.999023438 l 2
 204.650390625 480.819335938 205.3203125 504.239257812 215.640625 531.139648438 c 0
 222.200195312 548.259765625 232 573.799804688 232 592 c 2
 232 610 l 1
 228 612 216 620 216 641 c 2
 216 705 l 2
 216 729 240 746 264 746 c 0
 289 746 315 729 315 705 c 2
 315 640 l 2xfd
 315 623 299 611 294 610 c 1
 294 601 l 2
 294 579 302 567 316 554 c 0
 331 542 341.049804688 527.009765625 350 490 c 2
 389.370117188 327 l 1
 477 327 l 2
 500 327 513 320 523 297 c 2
 608 101 l 2
 616 82 620 72 620 68 c 0
 620 62 617 59 615 57 c 0
 608 50 583 40 574 40 c 0
 569 40 564 42 562 46 c 2
 469 226 l 1
 417 226 l 1xdb
 419 214 420 204 420 192 c 0
 420 81 330 -8 220 -8 c 0
 110 -8 20 81 20 192 c 0
 20 292 95 382 207 392 c 1xfd
207 355.999023438 m 1
 113 344.999023438 55 274.999023438 55 191.999023438 c 0
 55 99.9990234375 128 26.9990234375 220 26.9990234375 c 0
 311 26.9990234375 384 99.9990234375 384 191.999023438 c 0
 384 203.999023438 383 213.999023438 380 225.999023438 c 1
 250 225.999023438 l 2
 223 225.999023438 208 245.999023438 208 267.999023438 c 2xdd
 207 355.999023438 l 1
EndSplineSet
EndChar

StartChar: Q.ss01
Encoding: 65554 -1 80
Width: 290
Flags: MW
HStem: 0 21G<125.5 150> 502 20G<74 74>
VStem: 46 98<890 902> 63 61<784 793 773 795 773 795> 93.5 77.5
LayerCount: 2
Back
Fore
SplineSet
141 734 m 2xd0
 195 659 l 2
 199 654 201 649 201 643 c 0
 201 637 199 629 193 623 c 1xd0
 241 575 261 551 261 482 c 0
 261 461.6796875 259.709960938 443.080078125 258.540039062 426.200195312 c 0
 257.110351562 405.5 256 339.5703125 256 319 c 0
 256 301 250 294 224 294 c 2
 173 293 l 1
 171 22 l 2
 171 8 162 0 138 0 c 0
 113 0 100 7 99 22 c 2
 88 292 l 1
 60 292 l 2
 42 292 34 301 34 320 c 2
 34 418 l 2
 34 453 49 486 74 522 c 1
 46 653 l 2
 44 662 43 671 43 679 c 0xc8
 43 694.419921875 47.009765625 712.040039062 54 733 c 0
 59 748 63 764 63 784 c 2
 63 795 l 1xd0
 59 797 49 804 48 825 c 2
 46 890 l 2
 46 914 69 930 95 930 c 0
 121 930 144 914 144 890 c 2
 142 821 l 2xe0
 142 806.330078125 133.700195312 798.799804688 124 793 c 1
 124 777 l 2
 124 769 129 751 141 734 c 2xd0
EndSplineSet
EndChar

StartChar: R.ss01
Encoding: 65555 -1 81
Width: 893
Flags: MW
HStem: 0 21G<333 357.5 536 564.5> 225 37 262 66 328 49<219 263 219 304 219 304 630 674>
VStem: 399 98<755 767> 415 67<642 661 632 661> 512 78.5 750 99<655 657 657 723 646 735> 770 63<619 625 601.145 625>
LayerCount: 2
Back
Fore
SplineSet
448 795 m 0xdb
 475 795 497 779 497 755 c 2
 495 691 l 2xdb
 494 670 485 663 482 661 c 2
 482 642 l 2
 482 622 516 603 545 595 c 0
 572 588 585 563 585 537 c 0
 585 518 582.330078125 445 581 399 c 1
 541 405 496 408 447 408 c 0
 399 408 354 405 315 399 c 1
 314 445 312 518 312 537 c 0
 312 563 325 587 352 595 c 0
 380 603 415 622 415 642 c 2
 415 661 l 1xd7
 411 663 402 670 401 691 c 2
 399 755 l 2
 399 779 421 795 448 795 c 0xdb
512 16 m 2xd3
 512 262 l 1
 626 269 712 296 722 328 c 1
 589 328 l 1
 589 352 607 377 630 377 c 2
 674 377 l 1
 708 508 l 2
 715 539 726 553 747 572 c 0xd280
 762 587 770 598 770 619 c 2
 770 625 l 1
 756.690429688 631.299804688 750 641.08984375 750 655 c 2
 750 723 l 2
 750 747 775 763 800 763 c 0
 825 763 849 747 849 723 c 2
 849 657 l 2
 849 635 837 627 833 625 c 1
 833 611 l 2
 833 591.290039062 847.25 557.780273438 858 538 c 1
 877 538 883 533 883 521 c 0
 883 508 869.66015625 350 863 266 c 0
 861.169921875 242.98046875 844 225 818 225 c 2
 595 225 l 1
 586 14 l 2
 585.610351562 4.9501953125 578 0 551 0 c 0
 521 0 512 4 512 16 c 2xd3
381 16 m 2
 381 262 l 1
 267 269 181 296 171 328 c 1
 304 328 l 1
 304 352 285 377 263 377 c 2
 219 377 l 1xa3
 186 508 l 2
 178 539 167 553 146 572 c 0
 131 587 123 598 123 619 c 2
 123 625 l 1
 137.080078125 630.51953125 144 641.169921875 144 655 c 2
 143 723 l 2
 143 747 118 763 93 763 c 0
 68 763 44 747 44 723 c 2
 44 657 l 2
 44 635 56 627 60 625 c 1
 60 611 l 2
 60 591.290039062 45.75 557.780273438 35 538 c 1
 16 538 10 533 10 521 c 0
 10 508 23.330078125 350 30 266 c 0
 31.830078125 242.959960938 49 225 75 225 c 2
 298 225 l 1
 308 16 l 2
 308.530273438 4.9697265625 320 0 346 0 c 0
 369 0 381 5 381 16 c 2
EndSplineSet
EndChar

StartChar: S.ss01
Encoding: 65556 -1 82
Width: 853
Flags: MW
HStem: 30 106 169 111 320 161
VStem: 37 111
LayerCount: 2
Back
Fore
SplineSet
607 362 m 1
 626.000976562 305.000976562 l 1
 565.000976562 276.000976562 532.000976562 224.000976562 532.000976562 156.000976562 c 0
 532.000976562 59.0009765625 608.000976562 -7.9990234375 695.000976562 -7.9990234375 c 0
 782.000976562 -7.9990234375 859.000976562 59.0009765625 859.000976562 156.000976562 c 0
 859.000976562 243.000976562 791.000976562 320.000976562 695.000976562 320.000976562 c 0
 685.000976562 320.000976562 667.000976562 318.000976562 655.000976562 315.000976562 c 1
 593.000976562 503.000976562 l 2
 589.000976562 517.000976562 585.000976562 523.000976562 573.000976562 523.000976562 c 2
 556.000976562 523.000976562 l 1
 556.000976562 536.000976562 544.000976562 548.000976562 525.000976562 548.000976562 c 2
 431.000976562 548.000976562 l 1
 383.000976562 692.000976562 l 2
 380.680664062 698.310546875 379.020507812 704.560546875 379.020507812 710.610351562 c 0
 379.020507812 718.360351562 380.830078125 725.41015625 383 730 c 0
 399 734 412.299804688 747.959960938 414 762 c 0
 419.030273438 803.440429688 422 826.740234375 422 835 c 0
 422 856 399 874 372 874 c 0
 345 874 328.66015625 859.030273438 327 835 c 0
 324.9296875 804.9296875 323 771.01953125 323 769 c 0
 323 761 324 755 327 749 c 2
 327 740 l 2
 327 731.620117188 319.419921875 724.990234375 309.219726562 716.080078125 c 0
 296.299804688 704.790039062 279.1796875 689.830078125 268 663 c 2
 191 462 l 2
 187 451 186 441 186 433 c 0
 187 393 220 375 244 366 c 1
 216 308 l 1
 200 314 178 317 162 317 c 0
 75 317 0 246 0 155 c 0
 0 62 75 -8 162 -8 c 0
 256 -8 319 70 324 136 c 1
 363 136 l 1
 359 117 l 2
 358.299804688 113.259765625 357.870117188 109.950195312 357.870117188 107.009765625 c 0
 357.870117188 97.419921875 362.450195312 91.830078125 377 88 c 0
 388 85 404 82 407 82 c 0
 422 82 427 86 431 107 c 2
 445 180 l 1
 607 362 l 1
595.000976562 397.000976562 m 1
 456.000976562 240.000976562 l 1
 476.000976562 337.000976562 l 2
 477.470703125 344.130859375 480.000976562 356.000976562 480.000976562 365.000976562 c 0
 480.000976562 374.000976562 474.000976562 383.000976562 465.000976562 388.000976562 c 2
 335.000976562 462.000976562 l 1
 354.000976562 558.000976562 l 1
 393.000976562 491.000976562 l 2
 397.661132812 483.000976562 402.920898438 481.000976562 431.000976562 481.000976562 c 2
 567.000976562 481.000976562 l 1
 595.000976562 397.000976562 l 1
398.000976562 317.000976562 m 1
 369.000976562 169.000976562 l 1
 324.000976562 169.000976562 l 1
 320.000976562 218.000976562 289.000976562 272.000976562 244.000976562 294.000976562 c 1
 273.000976562 355.000976562 l 1
 398.000976562 317.000976562 l 1
821.000976562 156.000976562 m 0
 821.000976562 89.0009765625 762.000976562 30.0009765625 695.000976562 30.0009765625 c 0
 627.000976562 30.0009765625 569.000976562 89.0009765625 569.000976562 156.000976562 c 0
 569.000976562 204.000976562 597.000976562 249.000976562 638.000976562 269.000976562 c 1
 676.000976562 156.000976562 l 2
 681.000976562 141.000976562 686.000976562 137.000976562 694.000976562 137.000976562 c 0
 702.000976562 137.000976562 709.000976562 143.000976562 709.000976562 152.000976562 c 0
 709.000976562 156.000976562 708.000976562 159.000976562 705.000976562 167.000976562 c 2
 667.000976562 279.000976562 l 1
 678.000976562 281.000976562 687.000976562 282.000976562 695.000976562 282.000976562 c 0
 763.000976562 282.000976562 821.000976562 226.000976562 821.000976562 156.000976562 c 0
162.000976562 280.000976562 m 0
 175.000976562 280.000976562 190.000976562 278.000976562 201.000976562 274.000976562 c 1
 152.000976562 165.000976562 l 2
 149.4609375 159.340820312 148.000976562 154.000976562 148.000976562 150.000976562 c 0
 148.000976562 142.000976562 152.000976562 136.000976562 162.000976562 136.000976562 c 2
 286.000976562 136.000976562 l 1
 281.000976562 86.0009765625 231.000976562 30.0009765625 162.000976562 30.0009765625 c 0
 95.0009765625 30.0009765625 37.0009765625 88.0009765625 37.0009765625 155.000976562 c 0
 37.0009765625 224.000976562 95.0009765625 280.000976562 162.000976562 280.000976562 c 0
229.000976562 260.000976562 m 1
 259.000976562 243.000976562 284.000976562 205.000976562 287.000976562 169.000976562 c 1
 188.000976562 169.000976562 l 1
 229.000976562 260.000976562 l 1
EndSplineSet
EndChar

StartChar: T.ss01
Encoding: 65557 -1 83
Width: 610
Flags: MW
HStem: 279 20<460.695 485>
VStem: 40 580<380 412.845>
LayerCount: 2
Back
Fore
SplineSet
375 370 m 1
 390.01953125 322.76953125 433.389648438 299 488 299 c 1
 509 354 l 1
 572 354 l 2
 591 354 602 362 610 378 c 0
 616 391 620 401 620 409 c 0
 620 416.690429688 613 423 605 428 c 2
 513 481 l 1
 513 524 l 2
 513 527 510 530 506 530 c 0
 503 530 500.08984375 528.959960938 497 525 c 2
 375 370 l 1
485 279 m 1
 419.129882812 279 380.4296875 303.219726562 359 358 c 1
 40 391 l 1
 40 369 59 338 82 329 c 1
 75.330078125 226.330078125 62 48.1103515625 62 21 c 0
 62 6 75 0 98 0 c 0
 123 0 138.540039062 5.830078125 141 21 c 2
 171 206 l 1
 219 185 272 176 312 176 c 2
 387 176 l 1
 401 21 l 2
 402.349609375 5.9697265625 422 0 444 0 c 0
 470 0 484 6 484 21 c 2
 485 279 l 1
EndSplineSet
EndChar

StartChar: U.ss01
Encoding: 65558 -1 84
Width: 389
Flags: MW
HStem: -0.00999451 21G 196.99 27 403.99 18
VStem: 27 335
LayerCount: 2
Back
Fore
SplineSet
193.099609375 535 m 0
 158.859375 535 147.01953125 514.500976562 147.01953125 497.420898438 c 0
 147.01953125 485.000976562 147.619140625 470.600585938 148.999023438 448.990234375 c 0
 149.999023438 431.990234375 157.999023438 423.990234375 164.999023438 421.990234375 c 1
 162.999023438 403.990234375 l 1
 146.208984375 403.990234375 127.458984375 390.879882812 117.999023438 380.990234375 c 2
 37.9990234375 300.990234375 l 2
 30.9990234375 293.990234375 26.9990234375 285.990234375 26.9990234375 277.990234375 c 0
 26.9990234375 269.990234375 29.9990234375 262.990234375 35.9990234375 255.990234375 c 0
 42.9990234375 248.990234375 50.9990234375 244.990234375 58.9990234375 244.990234375 c 0
 65.9990234375 244.990234375 73.638671875 249.290039062 80.9990234375 255.990234375 c 2
 136.999023438 306.990234375 l 1
 127.999023438 223.990234375 l 1
 258.999023438 223.990234375 l 1
 249.999023438 306.990234375 l 1
 307.999023438 253.990234375 l 2
 314.999023438 246.990234375 321.999023438 242.990234375 328.999023438 242.990234375 c 0
 336.999023438 242.990234375 345.999023438 247.990234375 352.999023438 254.990234375 c 0
 358.999023438 260.990234375 361.999023438 267.990234375 361.999023438 275.990234375 c 0
 361.999023438 283.990234375 356.999023438 292.990234375 349.999023438 299.990234375 c 2
 268.999023438 380.990234375 l 2
 259.5390625 390.879882812 240.7890625 403.990234375 223.999023438 403.990234375 c 1
 220.999023438 421.990234375 l 1
 227.999023438 423.990234375 235.999023438 431.990234375 236.999023438 448.990234375 c 0
 239.439453125 485.459960938 239.08984375 494.370117188 239.08984375 497.419921875 c 0
 239.08984375 520.549804688 220.799804688 535 193.099609375 535 c 0
56.9990234375 125.991210938 m 2
 51.9990234375 119.991210938 48.9990234375 112.991210938 48.9990234375 104.991210938 c 0
 48.9990234375 99.9912109375 49.9990234375 92.9912109375 54.9990234375 86.9912109375 c 2
 112.999023438 11.9912109375 l 2
 118.999023438 4.9912109375 123.999023438 -0.0087890625 131.999023438 -0.0087890625 c 0
 135.999023438 -0.0087890625 140.999023438 0.9912109375 145.999023438 4.9912109375 c 0
 162.999023438 17.9912109375 170.999023438 24.9912109375 170.999023438 32.9912109375 c 0
 170.999023438 35.9912109375 169.999023438 37.9912109375 165.999023438 43.9912109375 c 2
 130.999023438 92.9912109375 l 1
 180.999023438 139.991210938 l 1
 123.999023438 196.991210938 l 1
 56.9990234375 125.991210938 l 2
329.999023438 125.991210938 m 2
 334.999023438 119.991210938 338.999023438 112.991210938 338.999023438 105.991210938 c 0
 338.999023438 99.9912109375 336.999023438 93.9912109375 331.999023438 86.9912109375 c 2
 272.999023438 11.9912109375 l 2
 267.999023438 4.9912109375 262.999023438 -0.0087890625 254.999023438 -0.0087890625 c 0
 250.999023438 -0.0087890625 245.999023438 1.9912109375 240.999023438 4.9912109375 c 0
 223.999023438 16.9912109375 215.999023438 24.9912109375 215.999023438 32.9912109375 c 0
 215.999023438 35.9912109375 216.999023438 37.9912109375 218.999023438 40.9912109375 c 2
 255.999023438 92.9912109375 l 1
 205.999023438 139.991210938 l 1
 262.999023438 196.991210938 l 1
 329.999023438 125.991210938 l 2
EndSplineSet
EndChar

StartChar: A.ss02
Encoding: 65559 -1 85
Width: 720
Flags: MW
HStem: 0 81 0 81.01 31 82
VStem: 213 133.99 312 97<690 734 690 746> 346.99 27
LayerCount: 2
Back
Fore
SplineSet
536 546 m 1x84
 361 638 l 1
 185 546 l 1
 185 592 l 2
 185 605 192 606 213 606 c 1
 213 672 l 2
 213 687 226 690 253 690 c 2x90
 312 690 l 1
 312 734 l 2x84
 312 758 335 763 361 763 c 0
 386 763 409 758 409 734 c 2
 409 690 l 1
 468 690 l 2
 495 690 509 687 509 672 c 2
 509 606 l 1x88
 529 606 536 605 536 592 c 2
 536 546 l 1x84
347 602 m 1
 346.990234375 114 l 1
 328.209960938 116.290039062 314.459960938 122.990234375 300.950195312 129.5703125 c 0x24
 284.959960938 137.360351562 269.299804688 145 246 145 c 0
 238 145 231 144 224 143 c 1
 179 331 l 2
 161.379882812 396.83984375 149.780273438 416.240234375 135.419921875 440.25 c 0
 130.01953125 449.290039062 123 463.9296875 123 471 c 0
 123 480 129 487 144 495 c 2
 347 602 l 1
597.990234375 471 m 0
 597.990234375 480 592.030273438 487.071289062 576.990234375 495.000976562 c 2
 373.990234375 602.000976562 l 1
 373.990234375 114.000976562 l 1
 393.520507812 116.321289062 407.640625 123.19140625 421.390625 129.87109375 c 0
 437.200195312 137.55078125 452.520507812 145.000976562 474.990234375 145.000976562 c 0
 482.990234375 145.000976562 490.990234375 144.000976562 496.990234375 143.000976562 c 1
 542.990234375 331.000976562 l 2
 557.009765625 386.291015625 567.990234375 408.831054688 579.25 428.850585938 c 0
 589.370117188 446.850585938 597.990234375 460.780273438 597.990234375 471 c 0
18.990234375 31.0009765625 m 0
 5.990234375 31.0009765625 -0.009765625 41.0009765625 -0.009765625 65.0009765625 c 2
 -0.009765625 78.0009765625 l 2
 -0.009765625 99.0009765625 3.990234375 113.000976562 18.990234375 113.000976562 c 0x24
 45.490234375 113.000976562 60.490234375 105.000976562 75.490234375 97.0009765625 c 0
 90.490234375 89.0009765625 105.490234375 81.0009765625 131.990234375 81.0009765625 c 0x84
 159.430664062 81.0009765625 176.690429688 89.5712890625 193.330078125 97.8515625 c 0
 208.830078125 105.551757812 223.810546875 113.001953125 245.990234375 113.001953125 c 0x24
 267.900390625 113.001953125 283.880859375 105.412109375 300.291015625 97.6318359375 c 0
 317.581054688 89.421875 335.340820312 81.001953125 361.000976562 81.001953125 c 0x84
 385.880859375 81.001953125 403.291015625 89.251953125 420.420898438 97.3818359375 c 0
 437.020507812 105.251953125 453.360351562 113.001953125 475.990234375 113.001953125 c 0x24
 498.180664062 113.001953125 513.150390625 105.551757812 528.66015625 97.8515625 c 0
 545.299804688 89.5712890625 562.549804688 81.0009765625 589.990234375 81.0009765625 c 0x84
 616.75 81.0009765625 631.780273438 89.1513671875 646.669921875 97.2314453125 c 0
 661.26953125 105.151367188 675.739257812 112.991210938 700.989257812 112.991210938 c 0
 715.989257812 112.991210938 719.989257812 98.9912109375 719.989257812 77.9912109375 c 2
 719.989257812 64.9912109375 l 2
 719.989257812 40.9912109375 713.989257812 30.9912109375 700.989257812 30.9912109375 c 0x24
 675.739257812 30.9912109375 661.26953125 23.3916015625 646.669921875 15.7216796875 c 0
 631.780273438 7.8916015625 616.75 -0.0087890625 589.990234375 -0.0087890625 c 0x44
 562.549804688 -0.0087890625 545.299804688 8.30078125 528.66015625 16.3203125 c 0
 513.150390625 23.7802734375 498.180664062 30.990234375 475.990234375 30.990234375 c 0x24
 453.360351562 30.990234375 437.020507812 23.490234375 420.420898438 15.8603515625 c 0
 403.291015625 7.990234375 385.880859375 0 361.000976562 0 c 0x84
 335.340820312 0 317.581054688 8.16015625 300.291015625 16.1103515625 c 0
 283.880859375 23.650390625 267.900390625 31 245.990234375 31 c 0x24
 223.810546875 31 208.830078125 23.7900390625 193.330078125 16.3203125 c 0
 176.690429688 8.310546875 159.430664062 0.0009765625 131.990234375 0.0009765625 c 0x84
 78.990234375 0.0009765625 71.990234375 31.0009765625 18.990234375 31.0009765625 c 0
EndSplineSet
EndChar

StartChar: B.ss02
Encoding: 65560 -1 86
Width: 882
Flags: MW
HStem: 0 68<382.5 827 388 827> 0 97<382.5 727 438 727 727 761 438 827> 204 68<456 533 456 533 572 640 456 572 679 737> 387 59<488.5 502 502 533 271 572 572 615>
VStem: 456 77<204 272 204 272> 572 68<204 272 204 272> 679 58<204 272 272 272>
LayerCount: 2
Back
Fore
SplineSet
502 387 m 2xbc
 475 387 470 384 458 367 c 2
 447 349 l 1
 87 349 l 1
 61 411 l 2
 57 420 45 426 28 426 c 0
 14 426 10 423 10 416 c 2
 10 320 l 2
 10 302 22 287 40 281 c 2
 369 174 l 1
 397 116 l 2
 403 103 411 97 438 97 c 2
 727 97 l 2
 795 97 872 145 872 194 c 1x7c
 776 329 l 2
 764 346 757 349 730 349 c 2
 670 349 l 1
 659 367 l 2
 647 384 642 387 615 387 c 2
 572 387 l 1
 572 446 l 1
 834 446 l 2
 840 446 843 451 843 458 c 2
 843 472 l 2
 843 479 840 484 834 484 c 2
 271 484 l 2
 265 484 262 479 262 472 c 2
 262 458 l 2
 262 451 265 446 271 446 c 2
 533 446 l 1
 533 387 l 1
 502 387 l 2xbc
533 204 m 1
 456 204 l 1
 456 272 l 1
 533 272 l 1
 533 204 l 1
572 204 m 1
 572 272 l 1
 640 272 l 1
 640 204 l 1
 572 204 l 1
679 272 m 1xbe
 737 272 l 1
 776 204 l 1
 679 204 l 1
 679 272 l 1xbe
827 0 m 2
 388 0 l 2
 377 0 372 9 372 21 c 2
 372 47 l 2
 372 59 377 68 388 68 c 2
 827 68 l 2
 838 68 843 59 843 47 c 2
 843 21 l 2
 843 9 838 0 827 0 c 2
EndSplineSet
EndChar

StartChar: C.ss02
Encoding: 65561 -1 87
Width: 799
Flags: MW
HStem: 0 759<154 761.275 708 761.275>
VStem: 20 759<135.17 740.25 687.5 740.25>
LayerCount: 2
Back
Fore
SplineSet
749 759 m 0
 712 759 683 746 629 696 c 2
 490 559 l 1
 68 734 l 2
 66.2900390625 734.709960938 62 736 59 736 c 0
 51 736 41.490234375 730.389648438 35 720 c 2
 25 704 l 2
 21.900390625 699.040039062 20 693 20 690 c 0
 20 685 22 681 29 674 c 2
 323 415 l 1
 137 164 l 1
 43 164 l 2
 36 164 32 161 25 152 c 0
 20 144 20 141 20 138 c 0
 20 132.33984375 21.650390625 129.280273438 27 125 c 2
 99 80 l 1
 145 8 l 2
 149 2 153 0 155 0 c 0
 160 0 165 2 175 8 c 0
 182 13 183 19 183 26 c 2
 183 116 l 1
 435 303 l 1
 696 7 l 2
 701 2 706 0 710 0 c 0
 715.1796875 0 720.76953125 3.1103515625 727 7 c 0
 743 17 756 29 756 39 c 0
 756 42 755 46 753 51 c 2
 579 470 l 1
 715 609 l 2
 760 654 779 693 779 728 c 0
 779 752.5 773.549804688 759 749 759 c 0
EndSplineSet
EndChar

StartChar: D.ss02
Encoding: 65562 -1 88
Width: 864
Flags: MW
HStem: 0 21G<319.025 342.99> 8.00999 108
VStem: 20 858<94.0098 259>
LayerCount: 2
Back
Fore
SplineSet
878 250 m 0xa0
 878 218.469726562 825.150390625 166.599609375 770.990234375 146 c 2
 382.990234375 9 l 2
 362.990234375 2 351.990234375 0 333.990234375 0 c 0
 304.060546875 0 244.16015625 2.5400390625 192.669921875 4.73046875 c 0
 171.25 5.640625 153.169921875 6.41015625 104 8.009765625 c 0
 91 8.009765625 82 14.009765625 73 26.009765625 c 2
 24 86.009765625 l 2
 21 90.009765625 20 93.009765625 20 95.009765625 c 0xa0
 20 101.009765625 27 110.009765625 36 116.009765625 c 0
 46 123.009765625 49 123.009765625 53 123.009765625 c 0
 57 123.009765625 63 121.009765625 73 116.009765625 c 2
 141 78.009765625 l 1
 332 148.009765625 l 1x60
 73 395.009765625 l 2
 64.2998046875 403.299804688 59 411.4296875 59 416.479492188 c 0
 59 419.939453125 60.1796875 422.1796875 64 426 c 0
 83 445 102 454 109.830078125 454 c 0
 112.780273438 454 118.25 452.299804688 125.799804688 449.049804688 c 2
 606 242 l 1
 722 281 l 2
 745 288 756 290 773 290 c 0
 840 290 878 268 878 250 c 0xa0
EndSplineSet
EndChar

StartChar: E.ss02
Encoding: 65563 -1 89
Width: 691
Flags: MW
HStem: -1 49<412.5 425.5> 30 48<332 345.5> 57 49<253 266.5>
VStem: 235 49<74.5 88> 314 49<47.5 60.5> 395 48<16.5 30>
LayerCount: 2
Back
Fore
SplineSet
587 155 m 2x94
 661 120 691 62 691 39 c 0
 691 36 691 35 690 33 c 0
 686 24 659 10 619 10 c 0
 596 10 569.059570312 15.1298828125 538 28 c 2
 217 161 l 2
 200.830078125 167.700195312 189.4296875 175.5703125 175 190 c 2
 14 357 l 2
 2.26953125 369.5703125 0 374 0 386.450195312 c 0
 0 396 9 458 10 464 c 0
 11 472 17 477 25 477 c 0
 28 477 32 476 42 472 c 0
 55 467 57 465 62 450 c 2
 89 373 l 1
 237 308 l 1
 262 298 l 1
 235 628 l 2
 234.9296875 628.860351562 234.889648438 629.700195312 234.889648438 630.540039062 c 0
 234.889648438 641.379882812 240.9296875 650 253 650 c 2
 279 650 l 2
 295 650 302 648 306 639 c 2
 507 193 l 1
 587 155 l 2x94
235 81 m 0xb4
 235 95 246 106 260 106 c 0
 273 106 284 95 284 81 c 0
 284 68 273 57 260 57 c 0
 246 57 235 68 235 81 c 0xb4
314 54 m 0x5c
 314 67 325 78 339 78 c 0
 352 78 363 67 363 54 c 0
 363 41 352 30 339 30 c 0
 325 30 314 41 314 54 c 0x5c
395 23 m 0x94
 395 37 406 48 419 48 c 0
 432 48 443 37 443 23 c 0
 443 10 432 -1 419 -1 c 0
 406 -1 395 10 395 23 c 0x94
EndSplineSet
EndChar

StartChar: F.ss02
Encoding: 65564 -1 90
Width: 903
Flags: MW
HStem: -8 38<152.5 221 152.5 233.5 684 751.5> 139 31<180.5 312 212 311 349 379> 282 37<152.5 198> 368 31<312 431 317 327 367 367 367 389 421 421 421 431> 492 31<503 598 508 587>
VStem: 23 37<122.5 191 122.5 202> 312 37<139 170> 389 32<189 368 189 368 189 368> 555 37<122.5 180 122.5 190> 844 38<122.5 191>
LayerCount: 2
Back
Fore
SplineSet
446 156 m 1
 446 135 431 120 413 120 c 0
 398 120 384 128 380 139 c 1
 349 139 l 1
 344 73 281 -8 186 -8 c 0
 99 -8 23 62 23 156 c 0
 23 248 99 319 186 319 c 0
 224 319 246 311 271 296 c 1
 327 368 l 1
 317 368 l 2
 307 368 301 376 301 384 c 0
 301 392 308 399 317 399 c 2
 431 399 l 2
 440 399 447 392 447 384 c 0
 447 376 441 368 431 368 c 2
 421 368 l 1
 421 189 l 1
 425 188 427 187 430 185 c 2
 618 398 l 1
 587 492 l 1
 508 492 l 2
 498 492 492 500 492 508 c 0
 492 516 499 523 508 523 c 2
 598 523 l 2
 608 523 612 516 616 503 c 2
 678 315 l 1
 690 318 708 320 718 320 c 0
 814 320 882 243 882 156 c 0
 882 59 805 -8 718 -8 c 0
 631 -8 555 59 555 156 c 0
 555 224 588 276 649 305 c 1
 630 363 l 1
 446 156 l 1
389 368 m 1
 367 368 l 1
 295 277 l 1
 325 251 346 208 349 170 c 1
 379 170 l 1
 382 175 384 178 389 182 c 1
 389 368 l 1
186 282 m 0
 119 282 60 226 60 156 c 0
 60 89 119 30 186 30 c 0
 256 30 306 89 311 139 c 1
 186 139 l 2
 175 139 166 144 166 153 c 0
 166 159 167 163 170 167 c 2
 248 267 l 1
 230 277 210 282 186 282 c 0
844 156 m 0
 844 226 786 282 718 282 c 0
 710 282 701 281 690 279 c 1
 728 167 l 2
 731 159 732 156 732 152 c 0
 732 143 725 137 717 137 c 0
 709 137 704 141 699 156 c 2
 661 269 l 1
 620 249 592 204 592 156 c 0
 592 89 650 30 718 30 c 0
 785 30 844 89 844 156 c 0
273 248 m 1
 212 170 l 1
 312 170 l 1
 310 198 295 228 273 248 c 1
EndSplineSet
EndChar

StartChar: G.ss02
Encoding: 65565 -1 91
Width: 752
Flags: MW
HStem: 122 73 248 201
VStem: 107 74<148.001 168.001> 571 73<148.001 168.001>
LayerCount: 2
Back
Fore
SplineSet
711 105 m 1
 718.73046875 177.08984375 722 204.190429688 722 208 c 0
 722 223 715 236 701 248 c 2
 685 262 l 1
 611 506 l 2
 607.860351562 516.349609375 594 522 571 522 c 2
 181 522 l 2
 158 522 144.110351562 516.280273438 141 506 c 2
 67 262 l 1
 51 248 l 2
 37 236 30 223 30 208 c 0
 30 199.700195312 33.7998046875 174.08984375 42 103 c 1
 42 30 l 2
 42 9 56 -1 96 -1 c 2
 146 -1 l 2
 185 -1 196 9 196 42 c 1
 557 43 l 1
 557 10 570 0 608 0 c 2
 660 0 l 2
 696 0 711 10 711 31 c 2
 711 105 l 1
603 248.000976562 m 1
 151 248.000976562 l 1
 209 449.000976562 l 1
 549 449.000976562 l 1
 603 248.000976562 l 1
181 158.000976562 m 0
 181 138.000976562 165 122.000976562 145 122.000976562 c 0
 124 122.000976562 107 138.000976562 107 158.000976562 c 0
 107 178.000976562 124 195.000976562 145 195.000976562 c 0
 165 195.000976562 181 178.000976562 181 158.000976562 c 0
644 158.000976562 m 0
 644 138.000976562 628 122.000976562 607 122.000976562 c 0
 587 122.000976562 571 138.000976562 571 158.000976562 c 0
 571 178.000976562 587 195.000976562 607 195.000976562 c 0
 628 195.000976562 644 178.000976562 644 158.000976562 c 0
EndSplineSet
EndChar

StartChar: H.ss02
Encoding: 65566 -1 92
Width: 752
Flags: MW
HStem: -1 21G<76 96 96 146> 0 21G<589 608 608 660> 42.5 79.49 194.99 53 448.99 73.01
VStem: 42 65<29.9902 167.99 102.99 167.99> 644 67
LayerCount: 2
Back
Fore
SplineSet
96 -1 m 2xbe
 56 -1 42 8.990234375 42 29.990234375 c 2xbe
 42 102.990234375 l 1
 33.7998046875 174.080078125 30 199.690429688 30 208 c 0
 30 223 37 236 51 248 c 2
 67 262 l 1
 141 506 l 2
 144.129882812 516.33984375 158 522 181 522 c 2
 273 522 l 1
 280 546 l 2
 282.400390625 554.219726562 292 558 306 558 c 2
 451 558 l 2
 465 558 475.780273438 554.879882812 478 546 c 2
 484 522 l 1
 571 522 l 2
 594 522 607.950195312 516.059570312 611 506 c 2
 685 262 l 1
 701 248 l 2
 715 236 722 223 722 208 c 0
 722 204.190429688 718.73046875 177.080078125 711 105 c 1
 711 31 l 2
 711 10 696 0 660 0 c 2
 608 0 l 2x7e
 570 0 557 10 557 43 c 1
 196 42 l 1
 196 9 185 -1 146 -1 c 2
 96 -1 l 2xbe
151 247.990234375 m 1
 603 247.990234375 l 1
 549 448.990234375 l 1
 209 448.990234375 l 1x7e
 151 247.990234375 l 1
145 121.990234375 m 0
 165 121.990234375 181 137.990234375 181 157.990234375 c 0
 181 177.990234375 165 194.990234375 145 194.990234375 c 0
 124 194.990234375 107 177.990234375 107 157.990234375 c 0
 107 137.990234375 124 121.990234375 145 121.990234375 c 0
607 121.990234375 m 0
 628 121.990234375 644 137.990234375 644 157.990234375 c 0
 644 177.990234375 628 194.990234375 607 194.990234375 c 0
 587 194.990234375 571 177.990234375 571 157.990234375 c 0
 571 137.990234375 587 121.990234375 607 121.990234375 c 0
EndSplineSet
EndChar

StartChar: I.ss02
Encoding: 65567 -1 93
Width: 752
Flags: MW
HStem: 122 73<134.501 155.001 597.001 617.501> 248 201<51.001 549.001 151.001 549.001 209.001 549.001 209.001 603.001 209.001 701.001> 522 97.99 522 177<169.501 557 355 557 557 559 355 571.001> 632 67<355 453 355 557> 656 43<478 478 485.001 485.001 525.001 525.001 532.001 532.001> 710.99 40
VStem: 107 74 150 35 226 129 571 73
LayerCount: 2
Back
Fore
SplineSet
586 669 m 2x48e0
 586.830078125 667.919921875 587.090820312 666.23046875 587.090820312 664.830078125 c 0
 587.090820312 663.08984375 586.260742188 661.25 585.000976562 660 c 2
 556.000976562 634 l 2
 554.7109375 632.83984375 553.37109375 632.41015625 552.2109375 632.41015625 c 0
 550.701171875 632.41015625 549.331054688 633.25 548.000976562 635 c 2x0820
 532.000976562 656 l 2
 530.701171875 657.709960938 529.541015625 658.459960938 528.44140625 658.459960938 c 0
 527.250976562 658.459960938 526.140625 657.559570312 525.000976562 656 c 2
 509.000976562 634 l 2
 507.80078125 632.400390625 506.661132812 631.610351562 505.510742188 631.610351562 c 0
 504.37109375 631.610351562 503.231445312 632.41015625 502.000976562 634 c 2
 485.000976562 656 l 2
 483.80078125 657.549804688 482.650390625 658.290039062 481.510742188 658.290039062 c 0
 480.350585938 658.290039062 479.190429688 657.490234375 478 656 c 2x0420
 462 636 l 2
 460 633 456 632 453 632 c 2
 355 632 l 1x0840
 355 609 339 592 310 590 c 0
 272.330078125 587 205.669921875 581 197 581 c 0
 175 581 159 587 150 606 c 0
 147 614 141 640 141 666 c 0
 141 691 146.33984375 717.280273438 150 725 c 0
 159 744 175 751 197 751 c 0
 205.669921875 751 272.330078125 745 310 742 c 0x22c0
 339 740 355 722 355 699 c 1
 557 699 l 2
 561 699 565 697 566 695 c 2
 586 669 l 2x48e0
226.000976562 639.990234375 m 2x22c0
 226.000976562 690.990234375 l 2
 226.000976562 704.990234375 222.000976562 710.990234375 215.000976562 710.990234375 c 2
 196.000976562 710.990234375 l 2
 189.000976562 710.990234375 185.000976562 704.990234375 185.000976562 690.990234375 c 2
 185.000976562 639.990234375 l 2
 185.000976562 626.990234375 189.000976562 619.990234375 196.000976562 619.990234375 c 2
 215.000976562 619.990234375 l 2
 222.000976562 619.990234375 226.000976562 626.990234375 226.000976562 639.990234375 c 2x22c0
711.000976562 104.990234375 m 1
 718.731445312 177.0703125 722.000976562 204.190429688 722.000976562 208 c 0
 722.000976562 223 715.000976562 236 701.000976562 248 c 2
 685.000976562 262 l 1
 611.000976562 506 l 2
 607.861328125 516.33984375 594.000976562 522 571.000976562 522 c 2
 181.000976562 522 l 2
 158.000976562 522 144.111328125 516.26953125 141.000976562 506 c 2x1080
 67.0009765625 262 l 1
 51.0009765625 248 l 2
 37.0009765625 236 30.0009765625 223 30.0009765625 208 c 0
 30.0009765625 199.690429688 33.80078125 174.080078125 42.0009765625 102.990234375 c 1
 42.0009765625 29.990234375 l 2
 42.0009765625 8.990234375 56.0009765625 -1.009765625 96.0009765625 -1.009765625 c 2
 146.000976562 -1.009765625 l 2
 185.000976562 -1.009765625 196.000976562 8.990234375 196.000976562 41.990234375 c 1
 557.000976562 42.990234375 l 1
 557.000976562 9.990234375 570.000976562 -0.009765625 608.000976562 -0.009765625 c 2
 660.000976562 -0.009765625 l 2
 696.000976562 -0.009765625 711.000976562 9.990234375 711.000976562 30.990234375 c 2
 711.000976562 104.990234375 l 1
603.000976562 248 m 1xc120
 151.000976562 248 l 1
 209.000976562 449 l 1
 549.000976562 449 l 1
 603.000976562 248 l 1xc120
181.000976562 158 m 0
 181.000976562 138 165.000976562 122 145.000976562 122 c 0
 124.000976562 122 107.000976562 138 107.000976562 158 c 0
 107.000976562 178 124.000976562 195 145.000976562 195 c 0
 165.000976562 195 181.000976562 178 181.000976562 158 c 0
644.000976562 158 m 0
 644.000976562 138 628.000976562 122 607.000976562 122 c 0
 587.000976562 122 571.000976562 138 571.000976562 158 c 0
 571.000976562 178 587.000976562 195 607.000976562 195 c 0
 628.000976562 195 644.000976562 178 644.000976562 158 c 0
EndSplineSet
EndChar

StartChar: J.ss02
Encoding: 65568 -1 94
Width: 780
Flags: MW
HStem: 0 121<92 169.5 149 162 613 619 619 633> 194 54<149 169.5 613 633> 605 52<332 447 447 454 332 630> 697 49<325.5 332 332 447>
VStem: 40 83<147 248 147 252.5> 58 154<31 43 26.5 94 26.5 94> 568 154<26.5 31 31 43> 660 80<147 177>
LayerCount: 2
Back
Fore
SplineSet
740 177 m 2xf9
 740 169 739 164 737 157 c 2
 722 94 l 1
 722 31 l 2
 722 10 707 0 671 0 c 2xf9
 619 0 l 2
 581 0 568 10 568 43 c 1
 212 43 l 1
 212 10 201 0 162 0 c 2
 112 0 l 2
 72 0 58 10 58 31 c 2
 58 94 l 1xf6
 43 156 l 2
 41 164 40 169 40 177 c 2
 40 248 l 2
 40 257 41 271 42 280 c 2
 80 718 l 2
 82 743 85 746 119 746 c 2
 667 746 l 2
 694 746 697 742 699 718 c 2
 738 280 l 2
 739 271 740 257 740 248 c 2
 740 177 l 2xf9
467 668 m 2
 467 686 l 2
 467 693 461 697 447 697 c 2
 332 697 l 2
 319 697 313 693 313 686 c 2
 313 668 l 2
 313 660 319 657 332 657 c 2
 447 657 l 2
 461 657 467 660 467 668 c 2
655 248 m 1
 630 605 l 1
 145 605 l 1
 121 248 l 1
 655 248 l 1
123 157 m 0
 123 137 139 121 159 121 c 0
 180 121 196 137 196 157 c 0
 196 178 180 194 159 194 c 0
 139 194 123 178 123 157 c 0
660 157 m 0
 660 178 643 194 623 194 c 0
 603 194 587 178 587 157 c 0
 587 137 603 121 623 121 c 0
 643 121 660 137 660 157 c 0
EndSplineSet
EndChar

StartChar: K.ss02
Encoding: 65569 -1 95
Width: 704
Flags: MW
HStem: 0 21G<13 20 20 91 604.5 614 614 685> 177 80<168 227 181 227 206 410 206 295> 330 55<206 227 475 495> 603 52<315 390 390 396.5 315 504> 696 49<308.5 315 315 390>
VStem: 106 84.5 523 76<284 357 357 385>
LayerCount: 2
Back
Fore
SplineSet
698 16 m 2
 702 12 704 9 704 6 c 0
 704 1 698 0 685 0 c 2
 614 0 l 2
 595 0 590 4 578 16 c 2
 410 177 l 1
 295 177 l 1
 126 16 l 2
 114 4 110 0 91 0 c 2
 20 0 l 2
 6 0 0 1 0 6 c 0
 0 9 1 11 7 16 c 2
 199 177 l 1
 181 177 l 2
 155 177 138 188 133 212 c 2
 106 357 l 2
 104.690429688 363 105 369 105 375 c 0
 105 383 105.299804688 386.969726562 106 395 c 2
 134 719 l 2
 137 740 142 745 169 745 c 2
 530 745 l 2
 562 745 568 740 570 720 c 2
 599 395 l 2
 599.629882812 387.940429688 600 382 600 375 c 0
 600 368 600 363 599 357 c 2
 571 212 l 2
 566 188 548 177 524 177 c 2
 503 177 l 1
 698 16 l 2
410 666 m 2
 410 685 l 2
 410 692 403 696 390 696 c 2
 315 696 l 2
 302 696 296 692 296 685 c 2
 296 666 l 2
 296 659 302 655 315 655 c 2
 390 655 l 2
 403 655 410 659 410 666 c 2
523 385 m 1
 504 603 l 1
 199 603 l 1
 182 385 l 1
 523 385 l 1
180 294 m 0
 180 274 196 257 216 257 c 0
 238 257 254 274 254 294 c 0
 254 314 238 330 216 330 c 0
 196 330 180 314 180 294 c 0
485 257 m 0
 505 257 523 274 523 294 c 0
 523 314 505 330 485 330 c 0
 465 330 449 314 449 294 c 0
 449 274 465 257 485 257 c 0
EndSplineSet
EndChar

StartChar: A.ss03
Encoding: 65570 -1 96
Width: 787
Flags: MW
HStem: 0 68<70 666 121 666 121 703> 110 18 228 51 294 18 625 75<121 666 121 121> 774 155<227.5 308 304 308 304 379 480 484>
VStem: 44 77<68 625 68 660 68 674> 190 38 207.94 49.06 237 42.5 331 18 430 50<438.001 470.001 433.001 476.001> 515 19 666 77<68 625 625 625>
LayerCount: 2
Back
Fore
SplineSet
318 920 m 2xef3c
 390 794 l 2
 393 789 394 787 394 784 c 0
 394 778 388 774 379 774 c 2
 233 774 l 2
 222 774 219 778 219 783 c 0
 219 787 220.450195312 791.299804688 222 794 c 2
 294 920 l 2
 298 927 302 929 306 929 c 0
 310 929 314 927 318 920 c 2xef3c
494 783 m 2
 490 776 486 774 482 774 c 0
 478 774 474 776 470 783 c 2
 398 909 l 2
 395.780273438 912.879882812 395 916 395 920 c 0
 395 925 398 929 409 929 c 2
 555 929 l 2
 564 929 570 925 570 919 c 0
 570 916 569 914 566 909 c 2
 494 783 l 2
703 700 m 2
 731 700 743 688 743 660 c 2
 743 40 l 2
 743 12 731 0 703 0 c 2
 84 0 l 2
 56 0 44 12 44 40 c 2
 44 660 l 2
 44 688 56 700 84 700 c 2
 703 700 l 2
666 68 m 1
 666 625 l 1
 121 625 l 1
 121 68 l 1
 666 68 l 1
300 328 m 0x0880
 300 319 295.999023438 308.999023438 282.999023438 308.999023438 c 1
 275.999023438 120.999023438 l 2
 275.739257812 114.05859375 269.999023438 109.999023438 256.999023438 109.999023438 c 0
 244.999023438 109.999023438 236.999023438 113.999023438 236.999023438 120.999023438 c 2x2040
 236.999023438 306.999023438 l 1
 227.999023438 306.999023438 l 1
 227.999023438 120.999023438 l 2
 227.999023438 113.999023438 219.999023438 109.999023438 207.999023438 109.999023438 c 0
 195.999023438 109.999023438 189.999023438 113.999023438 189.999023438 120.999023438 c 2
 181.999023438 308.999023438 l 1
 168.999023438 308.999023438 164.999023438 317.999023438 164.999023438 327.999023438 c 0
 163.668945312 368.659179688 160.999023438 434.329101562 160.999023438 449.989257812 c 0
 160.999023438 461.989257812 165.678710938 473.87890625 180.999023438 478.989257812 c 0
 195.999023438 483.989257812 215.999023438 494.989257812 215.999023438 504.989257812 c 2
 215.999023438 512.989257812 l 2x41
 213.999023438 513.989257812 209.69921875 517.008789062 208.999023438 527.989257812 c 0
 208.499023438 535.849609375 207.939453125 558.009765625 207.939453125 561.379882812 c 0
 207.939453125 572.610351562 219.549804688 579.990234375 233 579.990234375 c 0
 246 579.990234375 257 571.990234375 257 559.990234375 c 0
 257 554.990234375 256.5 536.790039062 256 527.990234375 c 0
 255.370117188 516.959960938 251 513.990234375 249 512.990234375 c 2
 249 504.990234375 l 2
 249 494.990234375 269 483.990234375 284 478.990234375 c 0
 299.3203125 473.879882812 304 461.990234375 304 449.990234375 c 0
 304 434.330078125 301.330078125 368.66015625 300 328 c 0x0880
425.999023438 311.999023438 m 1x5028
 425.659179688 318.999023438 424.999023438 333.000976562 424.999023438 336.000976562 c 0
 424.999023438 355.750976562 424.69921875 369.201171875 430.149414062 382.4609375 c 0x1030
 433.719726562 391.161132812 439 404.000976562 439 413.000976562 c 2
 439 422.000976562 l 2
 437 423.000976562 430 427.000976562 430 438.000976562 c 2
 430 470.000976562 l 2
 430 482.000976562 443 491.000976562 455 491.000976562 c 0
 467 491.000976562 480 482.000976562 480 470.000976562 c 2
 480 437.000976562 l 2
 480 429.000976562 472 423.000976562 470 422.000976562 c 2
 470 418.000976562 l 2
 470 407.000976562 474 400.000976562 481 394.000976562 c 0
 488.58984375 387.491210938 493.740234375 379.94140625 498 362.000976562 c 2
 517.98046875 279.000976562 l 1
 562 279.000976562 l 2
 574 279.000976562 581 276.000976562 586 264.000976562 c 2
 629 165.000976562 l 2
 633 155.000976562 635 150.000976562 635 148.000976562 c 0
 635 145.560546875 633.6796875 144.440429688 632 143 c 0
 627.83984375 139.419921875 616.109375 134 610.999023438 134 c 0
 608.999023438 134 605.999023438 135 604.999023438 137 c 2
 557.999023438 228 l 1
 531.999023438 228 l 1x2018
 533.21875 220.6796875 533.999023438 214.439453125 533.999023438 210.999023438 c 0
 533.999023438 154.999023438 487.999023438 109.999023438 431.999023438 109.999023438 c 0
 376.999023438 109.999023438 330.999023438 154.999023438 330.999023438 210.999023438 c 0
 330.999023438 264.588867188 372.159179688 307.279296875 425.999023438 311.999023438 c 1x5028
425.999023438 294.000976562 m 1
 377.999023438 288.000976562 348.999023438 253.000976562 348.999023438 211.000976562 c 0
 348.999023438 165.000976562 385.999023438 128.000976562 431.999023438 128.000976562 c 0
 477.999023438 128.000976562 514.999023438 165.000976562 514.999023438 211.000976562 c 0
 514.999023438 217.000976562 514.999023438 222.000976562 512.999023438 228.000976562 c 1
 447.999023438 228.000976562 l 2
 433.999023438 228.000976562 425.999023438 238.000976562 425.999023438 249.000976562 c 2x6028
 425.999023438 294.000976562 l 1
EndSplineSet
EndChar

StartChar: B.ss03
Encoding: 65571 -1 97
Width: 718
Flags: MW
HStem: 0 87<80 184 80 195 60 184> 282 83<576 688>
VStem: 556 132<294 345 345 350.5>
LayerCount: 2
Back
Fore
SplineSet
688 365 m 1
 688 282 l 1
 195 0 l 1
 60 0 l 1
 60 67 l 2
 60 78 69 87 80 87 c 2
 184 87 l 1
 184 132 l 2
 184 143 193 152 204 152 c 2
 308 152 l 1
 308 204 l 2
 308 215 317 224 328 224 c 2
 432 224 l 1
 432 274 l 2
 432 285 441 294 452 294 c 2
 556 294 l 1
 556 345 l 2
 556 356 566 365 576 365 c 2
 688 365 l 1
EndSplineSet
EndChar

StartChar: C.ss03
Encoding: 65572 -1 98
Width: 718
Flags: MW
HStem: 0 87<80 184 80 195 60 184> 282 83<576 688> 688 20G<435 438.55>
VStem: 556 132<294 345 345 350.5>
LayerCount: 2
Back
Fore
SplineSet
121 495 m 2
 114 497 113 499 113 501 c 0
 113 502 113.190429688 503.940429688 114 507 c 2
 147 632 l 2
 149.419921875 641.1796875 153.879882812 647.219726562 161 651 c 2
 193 668 l 2
 196.33984375 669.780273438 197.719726562 670 199 670 c 0
 200 670 201 669 201 668 c 0
 201 666.25 198.669921875 659.650390625 196 650 c 2
 170 556 l 1
 429 706 l 2
 431.030273438 707.169921875 434 708 436 708 c 0
 441.099609375 708 444.349609375 705.549804688 448 699 c 2
 453 690 l 2
 456.91015625 682.950195312 458 680 458 677 c 0
 458 673 456 671 451 668 c 2
 192 518 l 1
 301 491 l 2
 305 490 306 489 306 487 c 0
 306 485 306 484 301 481 c 2
 270 463 l 2
 266.01953125 460.690429688 262 460 258 460 c 0
 255 460 250.879882812 460.23046875 248 461 c 2
 121 495 l 2
688 365 m 1
 688 282 l 1
 195 0 l 1
 60 0 l 1
 60 67 l 2
 60 78 69 87 80 87 c 2
 184 87 l 1
 184 132 l 2
 184 143 193 152 204 152 c 2
 308 152 l 1
 308 204 l 2
 308 215 317 224 328 224 c 2
 432 224 l 1
 432 274 l 2
 432 285 441 294 452 294 c 2
 556 294 l 1
 556 345 l 2
 556 356 566 365 576 365 c 2
 688 365 l 1
EndSplineSet
EndChar

StartChar: D.ss03
Encoding: 65573 -1 99
Width: 718
Flags: MW
HStem: 0 87 281.99 83
VStem: 556 132
LayerCount: 2
Back
Fore
SplineSet
441 695 m 2
 448 693 448.999023438 690.989257812 448.999023438 688.989257812 c 0
 448.999023438 687.399414062 448.499023438 684.879882812 447.999023438 682.990234375 c 2
 414.999023438 557.990234375 l 2
 411.859375 548.5703125 407.559570312 542.740234375 401 538.990234375 c 2
 369 521.990234375 l 2
 365.799804688 520.390625 364.599609375 519.990234375 363 519.990234375 c 0
 361.830078125 519.990234375 361 520.8203125 361 521.990234375 c 0
 361 524.990234375 363.330078125 532.0703125 365 537.990234375 c 2
 392 633.990234375 l 1
 133 483.990234375 l 2
 130.629882812 482.620117188 128 481.990234375 126 481.990234375 c 0
 121 481.990234375 116.219726562 485.549804688 112 493.990234375 c 2
 108 501.990234375 l 2
 104.940429688 508.100585938 104 510.700195312 104 512.990234375 c 0
 104 516.990234375 106 518.990234375 111 521.990234375 c 2
 370 671.990234375 l 1
 261 698.990234375 l 2
 257 699.990234375 256 700.990234375 256 702.990234375 c 0
 256 705.290039062 257.1796875 706.700195312 261 709 c 2
 292 727 l 2
 296 729 300 730 304 730 c 0
 308.349609375 730 312.129882812 729.620117188 314 729 c 2
 441 695 l 2
687.999023438 364.989257812 m 1
 687.999023438 281.989257812 l 1
 194.999023438 -0.0107421875 l 1
 59.9990234375 -0.0107421875 l 1
 59.9990234375 66.9892578125 l 2
 59.9990234375 77.9892578125 68.9990234375 86.9892578125 79.9990234375 86.9892578125 c 2
 183.999023438 86.9892578125 l 1
 183.999023438 131.989257812 l 2
 183.999023438 142.989257812 192.999023438 151.989257812 203.999023438 151.989257812 c 2
 307.999023438 151.989257812 l 1
 307.999023438 203.989257812 l 2
 307.999023438 214.989257812 316.999023438 223.989257812 327.999023438 223.989257812 c 2
 431.999023438 223.989257812 l 1
 431.999023438 273.989257812 l 2
 431.999023438 284.989257812 440.999023438 293.989257812 451.999023438 293.989257812 c 2
 555.999023438 293.989257812 l 1
 555.999023438 344.989257812 l 2
 555.999023438 355.989257812 565.999023438 364.989257812 575.999023438 364.989257812 c 2
 687.999023438 364.989257812 l 1
EndSplineSet
EndChar

StartChar: E.ss03
Encoding: 65574 -1 100
Width: 856
Flags: MW
HStem: 0 104<92 109 92 248 78 109> 0 126<129 233 129 248 78 233> 216 35<75.5 166 92 166 92 176> 368 36<773 773> 516 35<701 705 705 764 764 765>
VStem: 0 36<143.5 173.5 143.5 182.5> 605 168<333 368 300 384 300 389.5> 821 35<444.5 474.5>
LayerCount: 2
Back
Fore
SplineSet
856 461 m 0x7f
 856 412 821 373 773 368 c 1
 773 300 l 1
 248 0 l 1
 78 0 l 1
 78 69 l 1
 33 76 0 114 0 158 c 0
 0 207 38 251 92 251 c 2
 166 251 l 1
 665 542 l 2
 675 548 683 551 691 551 c 2
 764 551 l 2
 817 551 856 509 856 461 c 0x7f
109 104 m 1xbf
 109 119 119 126 129 126 c 2
 233 126 l 1
 233 171 l 2
 233 182 242 191 253 191 c 2
 357 191 l 1x7f
 357 243 l 2
 357 254 366 263 377 263 c 2
 481 263 l 1
 481 313 l 2
 481 324 490 333 501 333 c 2
 605 333 l 1
 605 384 l 2
 605 395 615 404 625 404 c 2
 765 404 l 2
 794 404 821 429 821 460 c 0
 821 489 795 516 765 516 c 2
 705 516 l 2
 697 516 689 514 682 510 c 2
 176 216 l 1
 92 216 l 2
 59 216 36 189 36 158 c 0
 36 129 63 104 92 104 c 2
 109 104 l 1xbf
EndSplineSet
EndChar

StartChar: F.ss03
Encoding: 65575 -1 101
Width: 856
Flags: MW
HStem: 0 104<92 109 92 248 78 109> 0 126<129 233 129 248 78 233> 216 35<75.5 166 92 166 92 176> 368 36<773 773> 516 35<701 705 705 764 764 765> 688 20G<485 488.55>
VStem: 0 36<143.5 173.5 143.5 182.5> 605 168<333 368 300 384 300 389.5> 821 35<444.5 474.5>
LayerCount: 2
Back
Fore
SplineSet
171 495 m 2x7f80
 164 497 163 499 163 501 c 0
 163 502 163.190429688 503.940429688 164 507 c 2
 197 632 l 2
 199.419921875 641.1796875 203.879882812 647.219726562 211 651 c 2
 243 668 l 2
 246.33984375 669.780273438 247.719726562 670 249 670 c 0
 250 670 251 669 251 668 c 0
 251 666.25 248.669921875 659.650390625 246 650 c 2
 220 556 l 1
 479 706 l 2
 481.030273438 707.169921875 484 708 486 708 c 0
 491.099609375 708 494.349609375 705.549804688 498 699 c 2
 503 690 l 2
 506.91015625 682.950195312 508 680 508 677 c 0
 508 673 506 671 501 668 c 2
 242 518 l 1
 351 491 l 2
 355 490 356 489 356 487 c 0
 356 485 356 484 351 481 c 2
 320 463 l 2
 316.01953125 460.690429688 312 460 308 460 c 0
 305 460 300.879882812 460.23046875 298 461 c 2
 171 495 l 2x7f80
856 461 m 0
 856 412 821 373 773 368 c 1
 773 300 l 1
 248 0 l 1
 78 0 l 1
 78 69 l 1
 33 76 0 114 0 158 c 0
 0 207 38 251 92 251 c 2
 166 251 l 1
 665 542 l 2
 675 548 683 551 691 551 c 2
 764 551 l 2
 817 551 856 509 856 461 c 0
109 104 m 1xbf80
 109 119 119 126 129 126 c 2
 233 126 l 1
 233 171 l 2
 233 182 242 191 253 191 c 2
 357 191 l 1x7f80
 357 243 l 2
 357 254 366 263 377 263 c 2
 481 263 l 1
 481 313 l 2
 481 324 490 333 501 333 c 2
 605 333 l 1
 605 384 l 2
 605 395 615 404 625 404 c 2
 765 404 l 2
 794 404 821 429 821 460 c 0
 821 489 795 516 765 516 c 2
 705 516 l 2
 697 516 689 514 682 510 c 2
 176 216 l 1
 92 216 l 2
 59 216 36 189 36 158 c 0
 36 129 63 104 92 104 c 2
 109 104 l 1xbf80
EndSplineSet
EndChar

StartChar: G.ss03
Encoding: 65576 -1 102
Width: 856
Flags: MW
HStem: 0 104 0 126 215.99 35 367.99 36 515.99 35
VStem: 0 36 605 168 821 35
LayerCount: 2
Back
Fore
SplineSet
491 695 m 2x7f
 498 693 498.999023438 690.989257812 498.999023438 688.989257812 c 0
 498.999023438 687.399414062 498.499023438 684.879882812 497.999023438 682.990234375 c 2
 464.999023438 557.990234375 l 2
 461.859375 548.5703125 457.559570312 542.740234375 451 538.990234375 c 2
 419 521.990234375 l 2
 415.799804688 520.390625 414.599609375 519.990234375 413 519.990234375 c 0
 411.830078125 519.990234375 411 520.8203125 411 521.990234375 c 0
 411 524.990234375 413.330078125 532.0703125 415 537.990234375 c 2
 442 633.990234375 l 1
 183 483.990234375 l 2
 180.629882812 482.620117188 178 481.990234375 176 481.990234375 c 0
 171 481.990234375 166.219726562 485.549804688 162 493.990234375 c 2
 158 501.990234375 l 2
 154.940429688 508.100585938 154 510.700195312 154 512.990234375 c 0
 154 516.990234375 156 518.990234375 161 521.990234375 c 2
 420 671.990234375 l 1
 311 698.990234375 l 2
 307 699.990234375 306 700.990234375 306 702.990234375 c 0
 306 705.290039062 307.1796875 706.700195312 311 709 c 2
 342 727 l 2
 346 729 350 730 354 730 c 0
 358.349609375 730 362.129882812 729.620117188 364 729 c 2
 491 695 l 2x7f
855.999023438 460.989257812 m 0
 855.999023438 411.989257812 820.999023438 372.989257812 772.999023438 367.989257812 c 1
 772.999023438 299.989257812 l 1
 247.999023438 -0.0107421875 l 1
 77.9990234375 -0.0107421875 l 1
 77.9990234375 68.9892578125 l 1
 32.9990234375 75.9892578125 -0.0009765625 113.989257812 -0.0009765625 157.989257812 c 0
 -0.0009765625 206.989257812 37.9990234375 250.989257812 91.9990234375 250.989257812 c 2
 165.999023438 250.989257812 l 1
 664.999023438 541.989257812 l 2
 674.999023438 547.989257812 682.999023438 550.989257812 690.999023438 550.989257812 c 2
 763.999023438 550.989257812 l 2
 816.999023438 550.989257812 855.999023438 508.989257812 855.999023438 460.989257812 c 0
108.999023438 103.989257812 m 1xbf
 108.999023438 118.989257812 118.999023438 125.989257812 128.999023438 125.989257812 c 2
 232.999023438 125.989257812 l 1
 232.999023438 170.989257812 l 2
 232.999023438 181.989257812 241.999023438 190.989257812 252.999023438 190.989257812 c 2
 356.999023438 190.989257812 l 1x7f
 356.999023438 242.989257812 l 2
 356.999023438 253.989257812 365.999023438 262.989257812 376.999023438 262.989257812 c 2
 480.999023438 262.989257812 l 1
 480.999023438 312.989257812 l 2
 480.999023438 323.989257812 489.999023438 332.989257812 500.999023438 332.989257812 c 2
 604.999023438 332.989257812 l 1
 604.999023438 383.989257812 l 2
 604.999023438 394.989257812 614.999023438 403.989257812 624.999023438 403.989257812 c 2
 764.999023438 403.989257812 l 2
 793.999023438 403.989257812 820.999023438 428.989257812 820.999023438 459.989257812 c 0
 820.999023438 488.989257812 794.999023438 515.989257812 764.999023438 515.989257812 c 2
 704.999023438 515.989257812 l 2
 696.999023438 515.989257812 688.999023438 513.989257812 681.999023438 509.989257812 c 2
 175.999023438 215.989257812 l 1
 91.9990234375 215.989257812 l 2
 58.9990234375 215.989257812 35.9990234375 188.989257812 35.9990234375 157.989257812 c 0
 35.9990234375 128.989257812 62.9990234375 103.989257812 91.9990234375 103.989257812 c 2
 108.999023438 103.989257812 l 1xbf
EndSplineSet
EndChar

StartChar: A.ss04
Encoding: 65577 -1 103
Width: 817
Flags: MW
HStem: -9 532<78.5 438 78.5 438>
VStem: 137 232<97 319> 447 232<97 319 319 360.375>
LayerCount: 2
Back
Fore
SplineSet
727 523 m 2
 582 523 l 2
 495 523 447 484 408 445 c 1
 350.129882812 502.870117188 313.549804688 523 234 523 c 2
 90 523 l 2
 67 523 60 519 60 506 c 2
 60 46 l 2
 60 35 67 30 90 30 c 2
 273 30 l 2
 321 30 360 20 380 -9 c 1
 438 -9 l 1
 456 20 495 30 544 30 c 2
 727 30 l 2
 750 30 757 35 757 46 c 2
 757 506 l 2
 757 519 750 523 727 523 c 2
369 78 m 1
 357 86 323 97 273 97 c 2
 137 97 l 1
 137 445 l 1
 244 445 l 2
 321.8203125 445 369 400.419921875 369 319 c 2
 369 78 l 1
679 445 m 1
 679 97 l 1
 544 97 l 2
 494 97 459 86 447 78 c 1
 447 319 l 2
 447 401.75 498.889648438 445 573 445 c 2
 679 445 l 1
EndSplineSet
EndChar

StartChar: B.ss04
Encoding: 65578 -1 104
Width: 797
Flags: MW
HStem: 0 67<68.5 673 124 673 124 717> 453 70<147 650 147 147>
VStem: 50 74<67 386 67 507> 673 74<67 386 386 386>
LayerCount: 2
Back
Fore
SplineSet
50 507 m 2
 50 518 57 523 80 523 c 2
 717 523 l 2
 740 523 747 518 747 507 c 2
 747 16 l 2
 747 5 740 0 717 0 c 2
 80 0 l 2
 57 0 50 5 50 16 c 2
 50 507 l 2
650 453 m 1
 147 453 l 1
 161 447 l 1
 398 261 l 1
 636 447 l 1
 650 453 l 1
673 67 m 1
 673 386 l 1
 660 374 l 1
 446 211 l 2
 431.73046875 200.299804688 422.540039062 197 407 197 c 2
 391 197 l 2
 377.41015625 197 368.450195312 200.299804688 353 211 c 2
 137 374 l 1
 124 386 l 1
 124 67 l 1
 673 67 l 1
EndSplineSet
EndChar

StartChar: C.ss04
Encoding: 65579 -1 105
Width: 651
Flags: MW
HStem: 0 68 156 38 281 68 494 33.04 494.07 32.98
VStem: 59 77<67.999 155.999 193.999 280.999> 62 38<415 451.005 415 454.5> 311 38<67.999 155.999 67.999 155.999 193.999 280.999> 524 77<67.999 155.999 155.999 155.999 193.999 280.999 280.999 280.999> 561.03 37.97
LayerCount: 2
Back
Fore
SplineSet
601 16 m 2xed80
 601 5 594 0 571 0 c 2
 89 0 l 2
 66 0 59 5 59 16 c 2
 59 329 l 2xa480
 59 339 69 349 89 349 c 2
 98 349 l 1
 74 366 62 398 62 428 c 0
 62 481 100 527.049804688 161.629882812 527.049804688 c 0
 193 527.049804688 223 515 243 484 c 2x2a
 330 358 l 1
 417 484 l 2
 437 515 466 527.040039062 497.26953125 527.040039062 c 0
 556 527.040039062 599 483 599 430 c 0x1040
 599 399 586 367 563 349 c 1
 572 349 l 2
 592 349 601 339 601 329 c 2
 601 16 l 2xed80
291 349 m 1
 214 464.999023438 l 2
 202 482.999023438 183 494.069335938 161.139648438 494.069335938 c 0
 129 494.069335938 100 469.009765625 100 433 c 0x2a40
 100 397 126 349 204 349 c 2
 291 349 l 1
456 348.999023438 m 2
 536.379882812 348.999023438 561.030273438 398.008789062 561.030273438 434.7890625 c 0
 561 471.999023438 529 493.999023438 499 493.999023438 c 0
 482 493.999023438 460 485.999023438 446 464.999023438 c 2x1040
 369 348.999023438 l 1
 456 348.999023438 l 2
136 280.999023438 m 1xe580
 136 193.999023438 l 1
 311 193.999023438 l 1
 311 280.999023438 l 1
 136 280.999023438 l 1xe580
349 280.999023438 m 1
 349 193.999023438 l 1
 524 193.999023438 l 1
 524 280.999023438 l 1
 349 280.999023438 l 1
136 155.999023438 m 1
 136 67.9990234375 l 1
 311 67.9990234375 l 1
 311 155.999023438 l 1
 136 155.999023438 l 1
524 67.9990234375 m 1
 524 155.999023438 l 1
 349 155.999023438 l 1
 349 67.9990234375 l 1
 524 67.9990234375 l 1
EndSplineSet
EndChar

StartChar: D.ss04
Encoding: 65580 -1 106
Width: 801
Flags: MW
HStem: 0 67<68.5 674 127 674 127 721> 115 322<193 328 252 328 367 434 473 549 549 563.5 252 596> 488 35<367 434 367 367> 624 76<127 674 127 127> 759 43<227 261> 816 67<405 510 405 596 549 559 549 550.5 596 600 405 606 596 596.5> 889 42<237 242 227 261>
VStem: 50 77<67 624 67 684 67 689.5> 193 39 270 135<802.5 870 802.5 879.5> 328 39<437 488 437 504 437 509> 434 39<437 488 488 488> 674 77<67 624 624 624>
LayerCount: 2
Back
Fore
SplineSet
635 854 m 2xb5b8
 635 849 635 846 635 845 c 2
 606 816 l 2
 601 816 597 816 596 816 c 2
 578 835 l 1
 559 816 l 2
 556 816 552 816 549 816 c 2
 530 835 l 1
 510 816 l 1
 405 816 l 1x0440
 405 789 392 770 367 768 c 2
 242 759 l 2
 212 759 199 769 193 787 c 0
 186 806 184 826 184 845 c 0
 184 864 186 883 193 902 c 0
 199 920 212 931 242 931 c 2
 367 921 l 2x0ac0
 395 919 405 905 405 883 c 1x0440
 596 883 l 2
 604 883 611 880 616 874 c 2
 635 854 l 2xb5b8
270 870 m 2xdbc8
 270 889 270 889 261 889 c 2
 242 889 l 2
 232 889 232 889 232 870 c 2
 232 821 l 2
 232 802 232 802 242 802 c 2
 261 802 l 2
 270 802 270 802 270 821 c 2
 270 870 l 2xdbc8
50 684 m 2
 50 695 57 700 80 700 c 2
 721 700 l 2
 744 700 751 695 751 684 c 2
 751 16 l 2
 751 5 744 0 721 0 c 2
 80 0 l 2
 57 0 50 5 50 16 c 2
 50 684 l 2
674 67 m 1
 674 624 l 1
 127 624 l 1
 127 67 l 1
 674 67 l 1
626 144 m 0
 626 124 616 115 596 115 c 2
 203 115 l 2
 183 115 174 124 174 144 c 0
 174 169.330078125 180.66015625 295.669921875 184 370 c 0
 185.700195312 408.01953125 223 437 252 437 c 2
 328 437 l 1
 328 504 l 2
 328 514 328 523 338 523 c 2
 463 523 l 2
 473 523 473 514 473 504 c 2
 473 437 l 1
 549 437 l 2x6030
 578 437 614.290039062 408.080078125 616 370 c 0
 619.330078125 295.669921875 626 169.330078125 626 144 c 0
434 437 m 1x6030
 434 488 l 1
 367 488 l 1
 367 437 l 1
 434 437 l 1x6030
EndSplineSet
EndChar

StartChar: E.ss04
Encoding: 65581 -1 107
Width: 552
Flags: MW
HStem: 0 247<108 290.989 113 290.989 194.489 290.989 270.989 290.989 328.989 400.989 439.989 458.989 458.989 475.489 270.989 522.989> 298 34<328.989 400.989 328.989 328.989> 454 34<391.989 392.989 392.989 408.989> 726 34<154 168.5>
VStem: 100 35<568 699 568 716> 187 35<694.5 706> 290.99 38 400.99 39
LayerCount: 2
Back
Fore
SplineSet
135 699 m 2
 135 568 l 1
 187 568 l 2
 209 568 218 563 218 551 c 0
 218 545 140 25 138 14 c 0
 136 4 133 0 124 0 c 2
 113 0 l 2
 103 0 100 4 98 14 c 0
 96 25 20 545 20 551 c 0
 20 563 26 568 51 568 c 2
 100 568 l 1
 100 699 l 2
 100 733 128 760 161 760 c 0
 195 760 222 733 222 699 c 0
 222 689 216 686 204 686 c 0
 191 686 187 690 187 699 c 0
 187 713 176 726 161 726 c 0
 147 726 135 713 135 699 c 2
370 503 m 0
 370 493 374.989257812 488 391.989257812 488 c 2
 416.989257812 488 l 2
 433.989257812 488 437.119140625 498 437.119140625 508.169921875 c 0
 437.119140625 533.049804688 443.989257812 544 479.989257812 574 c 0
 513.989257812 602 537.989257812 625 537.989257812 669 c 0
 537.989257812 729.690429688 490.809570312 760 425.989257812 760 c 0
 401.989257812 760 379.989257812 757 359.989257812 750 c 0
 339.989257812 743 309.989257812 725 309.989257812 711 c 0
 309.989257812 705 313.989257812 696 320.989257812 685 c 0
 328.989257812 674 335.989257812 669 341.989257812 669 c 0
 346.989257812 669 366.62890625 680.860351562 379.989257812 686 c 0
 392.989257812 691 407.989257812 694 419.989257812 694 c 0
 444.989257812 694 457.989257812 683 457.989257812 664 c 0
 457.989257812 646.030273438 433.889648438 621.330078125 416.739257812 603.759765625 c 0
 386.849609375 573.129882812 370 544.889648438 370 503 c 0
361.989257812 390 m 2
 361.989257812 379 371.989257812 373 392.989257812 373 c 2
 408.989257812 373 l 2
 429.989257812 373 439.989257812 379 439.989257812 390 c 2
 439.989257812 437 l 2
 439.989257812 448 429.989257812 454 408.989257812 454 c 2
 392.989257812 454 l 2
 371.989257812 454 361.989257812 448 361.989257812 437 c 2
 361.989257812 390 l 2
290.989257812 247 m 1
 290.989257812 316 l 2
 290.989257812 323 294.989257812 332 304.989257812 332 c 2
 424.989257812 332 l 2
 434.989257812 332 439.989257812 322 439.989257812 316 c 2
 439.989257812 247 l 1
 458.989257812 247 l 2
 491.989257812 247 523.099609375 221.009765625 528.989257812 182 c 0
 546.338867188 67.08984375 551.989257812 30.16015625 551.989257812 25 c 0
 551.989257812 16 547.989257812 0 522.989257812 0 c 2
 206.989257812 0 l 2
 181.989257812 0 177.989257812 16 177.989257812 25 c 0
 177.989257812 30.16015625 183.649414062 67.08984375 200.989257812 182 c 0
 206.87890625 221.009765625 237.989257812 247 270.989257812 247 c 2
 290.989257812 247 l 1
400.989257812 247 m 1
 400.989257812 298 l 1
 328.989257812 298 l 1
 328.989257812 247 l 1
 400.989257812 247 l 1
EndSplineSet
EndChar

StartChar: F.ss04
Encoding: 65582 -1 108
Width: 572
Flags: MW
HStem: 0 84<22.501 333.001 76.001 333.001 76.001 504.001> 0 90<421.001 440.501 421.001 504.001> 171 85<103.001 396.001 108.001 333.001>
VStem: 333 63 396 136
LayerCount: 2
Back
Fore
SplineSet
532 323 m 2xa8
 532.000976562 19 l 2
 532.000976562 10 523.000976562 0 504.000976562 0 c 2
 34.0009765625 0 l 2
 11.0009765625 0 0.0009765625 2 0.0009765625 13 c 2
 0.0009765625 39 l 2
 0.0009765625 67.23046875 39.2705078125 84 76.0009765625 84 c 2
 333.000976562 84 l 1
 333.000976562 171 l 1
 108.000976562 171 l 2
 98.0009765625 171 88.0009765625 181 88.0009765625 203 c 2
 88.0009765625 224 l 2
 88.0009765625 247 98.0009765625 256 108.000976562 256 c 2
 396.000976562 256 l 1
 396.000976562 412 l 1
 285.000976562 472 l 1
 257.000976562 390 l 2
 251.180664062 372.969726562 235.180664062 370 220.990234375 370 c 1
 194.990234375 332 l 2
 188.990234375 324 182.990234375 322 175.990234375 322 c 0
 161.209960938 322 154.990234375 334.16015625 154.990234375 342 c 0
 154.990234375 348.120117188 158.990234375 376 160.990234375 390 c 1
 152.990234375 397 147.990234375 407 147.990234375 413 c 0
 147.990234375 416.309570312 149.370117188 420.309570312 150.98046875 425 c 2
 238 679 l 2
 240.469726562 686.200195312 246.950195312 693 256 693 c 0
 262 693 268 692 275 689 c 1
 289 726 l 2
 293 736 300 740 311 740 c 0
 323.780273438 740 338 728.719726562 338 717 c 0
 338 714.400390625 337.450195312 711.950195312 336 708 c 2
 322 670 l 1
 338 663 343 656 343 650 c 0
 343 646 342.669921875 642.110351562 340 634 c 2
 312 549 l 1
 456 466 l 2
 508 434 532 384 532 323 c 2xa8
431.000976562 90 m 0x68
 450.000976562 90 466.000976562 105 466.000976562 124 c 0x68
 466.000976562 144 450.000976562 160 431.000976562 160 c 0
 411.000976562 160 396.000976562 144 396.000976562 124 c 0x70
 396.000976562 105 411.000976562 90 431.000976562 90 c 0x68
EndSplineSet
EndChar

StartChar: G.ss04
Encoding: 65583 -1 109
Width: 569
Flags: MW
HStem: 0 523<254 328 232.5 348>
VStem: 24 535<209.5 287 230 287>
LayerCount: 2
Back
Fore
SplineSet
52 174 m 2
 205 174 l 1
 205 29 l 2
 205 9 214 0 254 0 c 2
 328 0 l 2
 368 0 376 9 376 29 c 2
 376 174 l 1
 529 174 l 2
 549 174 559 190 559 230 c 2
 559 287 l 2
 559 327 549 346 529 346 c 2
 376 346 l 1
 376 494 l 2
 376 513 367 523 328 523 c 2
 254 523 l 2
 211 523 205 513 205 494 c 2
 205 346 l 1
 52 346 l 2
 31 346 24 327 24 287 c 2
 24 230 l 2
 24 189 33 174 52 174 c 2
EndSplineSet
EndChar

StartChar: H.ss04
Encoding: 65584 -1 110
Width: 352
Flags: MW
HStem: -0.00999451 21G 710.5 222.5
VStem: 50 148<427.99 505.99 505.99 559.76>
LayerCount: 2
Back
Fore
SplineSet
258 711 m 2
 229 709.990234375 l 2
 207 708.990234375 198 689.990234375 198 679.990234375 c 2
 198 252.990234375 l 2
 198 242.990234375 207 223.990234375 229 222.990234375 c 2
 258 221.990234375 l 2
 279 220.990234375 285 213.990234375 287 197.990234375 c 0
 294.450195312 138.330078125 302 52.400390625 302 17.990234375 c 0
 302 4.990234375 294 -0.009765625 273 -0.009765625 c 2
 235 -0.009765625 l 2
 187 -0.009765625 143 15.990234375 121 46.990234375 c 0
 80.8603515625 103.549804688 50 320.330078125 50 427.990234375 c 2
 50 505.990234375 l 2
 50 613.530273438 80.1298828125 828.400390625 121 886 c 0
 143 917 187 933 235 933 c 2
 273 933 l 2
 294 933 302 928 302 915 c 0
 302 880.580078125 294.450195312 794.650390625 287 735 c 0
 285 719 279 712 258 711 c 2
EndSplineSet
EndChar

StartChar: I.ss04
Encoding: 65585 -1 111
Width: 579
Flags: MW
HStem: 71 39<139 198 145 198 266 319 387 440> 148 39<139 198 145 198 266 319 387 440> 225 39<139 198 145 198 266 319 387 440>
VStem: 128 87<81 100 77 104 158 177 235 254> 249 87<81 100 77 104 158 177 235 254> 370 87<81 100 77 104 158 177 235 254 759 779>
LayerCount: 2
Back
Fore
SplineSet
457 779 m 2
 457 787 452 797 440 797 c 2
 387 797 l 2
 375 797 370 787 370 779 c 2
 370 759 l 1
 88 759 l 2
 61 759 50 749 50 735 c 2
 50 33 l 2
 50 13 59 4 88 4 c 2
 505 4 l 2
 524 4 534 13 534 33 c 2
 534 735 l 2
 534 749 522 759 495 759 c 2
 457 759 l 1
 457 779 l 2
457 323 m 1
 128 323 l 1
 128 681 l 1
 457 681 l 1
 457 323 l 1
198 264 m 2
 210 264 215 262 215 254 c 2
 215 235 l 2
 215 227 210 225 198 225 c 2
 145 225 l 2
 133 225 128 227 128 235 c 2
 128 254 l 2
 128 262 133 264 145 264 c 2
 198 264 l 2
319 264 m 2
 331 264 336 262 336 254 c 2
 336 235 l 2
 336 227 331 225 319 225 c 2
 266 225 l 2
 254 225 249 227 249 235 c 2
 249 254 l 2
 249 262 254 264 266 264 c 2
 319 264 l 2
440 264 m 2
 452 264 457 262 457 254 c 2
 457 235 l 2
 457 227 452 225 440 225 c 2
 387 225 l 2
 375 225 370 227 370 235 c 2
 370 254 l 2
 370 262 375 264 387 264 c 2
 440 264 l 2
198 187 m 2
 210 187 215 185 215 177 c 2
 215 158 l 2
 215 150 210 148 198 148 c 2
 145 148 l 2
 133 148 128 150 128 158 c 2
 128 177 l 2
 128 185 133 187 145 187 c 2
 198 187 l 2
319 187 m 2
 331 187 336 185 336 177 c 2
 336 158 l 2
 336 150 331 148 319 148 c 2
 266 148 l 2
 254 148 249 150 249 158 c 2
 249 177 l 2
 249 185 254 187 266 187 c 2
 319 187 l 2
440 187 m 2
 452 187 457 185 457 177 c 2
 457 158 l 2
 457 150 452 148 440 148 c 2
 387 148 l 2
 375 148 370 150 370 158 c 2
 370 177 l 2
 370 185 375 187 387 187 c 2
 440 187 l 2
198 110 m 2
 210 110 215 108 215 100 c 2
 215 81 l 2
 215 73 210 71 198 71 c 2
 145 71 l 2
 133 71 128 73 128 81 c 2
 128 100 l 2
 128 108 133 110 145 110 c 2
 198 110 l 2
319 110 m 2
 331 110 336 108 336 100 c 2
 336 81 l 2
 336 73 331 71 319 71 c 2
 266 71 l 2
 254 71 249 73 249 81 c 2
 249 100 l 2
 249 108 254 110 266 110 c 2
 319 110 l 2
440 110 m 2
 452 110 457 108 457 100 c 2
 457 81 l 2
 457 73 452 71 440 71 c 2
 387 71 l 2
 375 71 370 73 370 81 c 2
 370 100 l 2
 370 108 375 110 387 110 c 2
 440 110 l 2
EndSplineSet
EndChar

StartChar: J.ss04
Encoding: 65586 -1 112
Width: 584
Flags: MW
HStem: 62 58<283 299>
VStem: 128 329<187 680> 262 58<83 99>
LayerCount: 2
Back
Fore
SplineSet
88 759 m 2xc0
 61 759 50 749 50 735 c 2
 50 33 l 2
 50 13 59 4 88 4 c 2
 505 4 l 2
 524 4 534 13 534 33 c 2
 534 735 l 2
 534 749 522 759 495 759 c 2
 88 759 l 2xc0
457 187 m 1
 128 187 l 1
 128 680 l 1
 457 680 l 1
 457 187 l 1
291 62 m 0xa0
 275 62 262 75 262 91 c 0
 262 107 275 120 291 120 c 0
 307 120 320 107 320 91 c 0
 320 75 307 62 291 62 c 0xa0
EndSplineSet
EndChar

StartChar: K.ss04
Encoding: 65587 -1 113
Width: 736
Flags: MW
HStem: 0 66<31.5 513 35 513> 0 77<586.5 660.215 621.635 660.215 621.635 682> 0 96<237 507 507 510.5 237 513 237 598 237 682> 126 68<233.5 237 237 309 435 507>
VStem: 97 212<126 678> 435 204<126 262 194 262> 564 152<13 32 7.5 46.1152>
LayerCount: 2
Back
Fore
SplineSet
507 96 m 2x3c
 514 96 516 98 516 106 c 2
 516 116 l 2
 516 124 514 126 507 126 c 2
 435 126 l 1
 435 194 l 1
 688 194 l 2
 716 194 716 203 716 213 c 2
 716 727 l 2
 716 746 707 756 688 756 c 2
 48 756 l 2
 28 756 20 746 20 727 c 2
 20 213 l 2
 20 203 28 194 48 194 c 2
 309 194 l 1
 309 126 l 1x9c
 237 126 l 2
 230 126 228 124 228 116 c 2
 228 106 l 2
 228 98 230 96 237 96 c 2
 507 96 l 2x3c
639 262 m 1x9c
 97 262 l 1
 97 678 l 1
 639 678 l 1
 639 262 l 1x9c
682 0 m 2x9a
 598 0 l 2
 575 0 564 2 564 13 c 2x9a
 564 32 l 2
 564 60.23046875 603.26953125 77 640 77 c 0
 680.4296875 77 716 58.23046875 716 32 c 2x5a
 716 13 l 2
 716 2 705 0 682 0 c 2x9a
513 66 m 2
 520 66 528 59 528 42 c 2
 528 25 l 2
 528 8 520 0 513 0 c 2
 35 0 l 2
 28 0 20 7 20 24 c 2
 20 42 l 2
 20 59 28 66 35 66 c 2
 513 66 l 2
EndSplineSet
EndChar

StartChar: L.ss04
Encoding: 65588 -1 114
Width: 458
Flags: MW
HStem: 0 940.01
VStem: 46 21<698 930 698 933> 99 23<698 930 698 933> 155 22<698 930> 217 58<639.49 657.33>
LayerCount: 2
Back
Fore
SplineSet
177 698 m 1
 155 698 l 1
 155 930 l 2
 155 936 150 940 139 940 c 0
 128 940 122 936 122 930 c 2
 122 698 l 1
 99 698 l 1
 99 930 l 2
 99 936 95 940 83 940 c 0
 74 940 67 936 67 930 c 2
 67 698 l 1
 46 698 l 1
 46 930 l 2
 46 936 40 940 30 940 c 0
 20 940 14 936 14 930 c 0
 9.330078125 748.740234375 7 659.66015625 7 655 c 0
 7 623.98046875 30 591 49 572 c 0
 74 547 79 533 79 523 c 2
 69 20 l 2
 69 7 83 0 103 0 c 2
 120 0 l 2
 140 0 156 7 156 20 c 2
 146 523 l 2
 146 533 149 548 175 572 c 0
 195 591 217 623.98046875 217 655 c 0
 217 659.66015625 214.25 751.33984375 209 930 c 0
 209 936 204 940 193 940 c 0
 182 940 177 936 177 930 c 2
 177 698 l 1
311 20 m 0
 311 7 325 -0.009765625 345 -0.009765625 c 2
 362 -0.009765625 l 2
 382 -0.009765625 398 6.990234375 398 19.990234375 c 2
 398 910.990234375 l 2
 398 933.990234375 392 939.990234375 370 939.990234375 c 0
 325 939.990234375 275 874.990234375 275 775.990234375 c 2
 275 428.990234375 l 2
 275 407.990234375 287 396.990234375 311 396.990234375 c 2
 321 396.990234375 l 1
 317.66015625 271.330078125 311 34.66015625 311 20 c 0
EndSplineSet
EndChar

StartChar: M.ss04
Encoding: 65589 -1 115
Width: 720
Flags: MW
HStem: 0 66<81.5 95 95 209 455 595> 467 56<551 625 551 551>
VStem: 622 63
LayerCount: 2
Back
Fore
SplineSet
95 0 m 2
 68 0 0 19 0 37 c 2
 0 52 l 2
 0 61 9 66 38 66 c 2
 209 66 l 1
 170 76 146.610351562 113.599609375 141 162 c 2
 104 481 l 2
 103 493 103 497 103 501 c 0
 103 511 113 523 132 523 c 2
 647 523 l 2
 676 523 685 513 685 476 c 0
 685 462 681 406 679 371 c 0
 677.490234375 344.650390625 670.66015625 331.209960938 650 314 c 2
 523 209 l 1
 517 162 l 2
 510 113 484 76 455 66 c 1
 652 66 l 2
 681 66 690 61 690 52 c 2
 690 37 l 2
 690 19 642 0 595 0 c 2
 95 0 l 2
532 292 m 1
 619 359 l 1
 625 467 l 1
 551 467 l 1
 532 292 l 1
EndSplineSet
EndChar

StartChar: N.ss04
Encoding: 65590 -1 116
Width: 723
Flags: MW
HStem: 0 67<10 35 75 646> 488 40<355.5 377.5>
VStem: 286 40<439.5 460.5 439.5 471.5> 345 39<340 372 372 372> 404 40<450 460.5>
LayerCount: 2
Back
Fore
SplineSet
10 67 m 2
 345 340 l 1
 345 372 l 1xd0
 312 380 286 406 286 450 c 0
 286 493 323 528 366 528 c 0
 411 528 444 493 444 450 c 1
 404 450 l 1
 404 471 389 488 366 488 c 0
 345 488 326 471 326 450 c 0xf8
 326 429 340 412 364 405 c 0
 377 401 384 391 384 376 c 2
 384 340 l 1
 713 67 l 2
 720 61 723 56 723 45 c 0
 723 28 706 0 688 0 c 2
 35 0 l 2
 17 0 0 28 0 45 c 0
 0 56 3 61 10 67 c 2
646 67 m 1
 364 301 l 1
 75 67 l 1
 646 67 l 1
EndSplineSet
EndChar

StartChar: O.ss04
Encoding: 65591 -1 117
Width: 748
Flags: MW
HStem: -1 78<19.5 603 24 603 627 662 24 627 682 714> 271 36<371.5 579 410 579> 329 36<387.5 579 410 579> 514 36<382 439>
VStem: 271 33<382.5 440.5 382.5 450> 327 36<413 414 400 416> 515 35<408 412 406.5 440.5> 627 35<-1 77 -1 77 117 223> 682 37<116 117 117 223>
LayerCount: 2
Back
Fore
SplineSet
662 117 m 2
 662 112 657 110 649 110 c 2
 639 110 l 2
 631 110 627 112 627 117 c 2
 627 223 l 2
 627 248 604 271 579 271 c 2
 410 271 l 2
 333 271 271 334 271 412 c 0
 271 488 333 550 410 550 c 0
 489 550 550 488 550 412 c 2
 550 408 l 2
 550 405 546 402 537 402 c 2
 531 402 l 2
 520 402 515 405 515 408 c 2
 515 412 l 2
 515 469 468 514 410 514 c 0
 354 514 304 469 304 412 c 0
 304 353 354 307 410 307 c 0
 468 307 533 307 579 307 c 0
 626 307 662 269 662 223 c 2xfb
 662 117 l 2
719 117 m 2xbf80
 719 112 715 110 704 110 c 2
 697 110 l 2
 687 110 682 111 682 116 c 2
 682 223 l 2
 682 281 637 329 579 329 c 2
 410 329 l 2
 365 329 327 365 327 413 c 2
 327 414 l 2
 327 418 331 422 339 422 c 2
 348 422 l 2
 357 422 363 422 363 414 c 2
 363 413 l 2
 363 387 384 365 410 365 c 2
 579 365 l 2
 656 365 719 301 719 223 c 2
 719 117 l 2xbf80
603 77 m 1
 603 -1 l 1
 24 -1 l 2
 15 -1 10 10 10 28 c 2
 10 51 l 2
 10 69 15 77 24 77 c 2
 603 77 l 1
627 -1 m 1xbb
 627 77 l 1
 662 77 l 1
 662 -1 l 1
 627 -1 l 1xbb
727 28 m 2xbb80
 727 10 722 -1 714 -1 c 2
 682 -1 l 1
 682 77 l 1
 714 77 l 2
 722 77 727 69 727 51 c 2
 727 28 l 2xbb80
EndSplineSet
EndChar

StartChar: A.ss05
Encoding: 65592 -1 118
Width: 756
Flags: MW
HStem: -8 78<301 455 301 476.5> 461 80<359.5 387 371 387> 630 78<301 455>
VStem: 20 78<273 427 273 449> 338 82<173 406 478 523> 658 78<273 427>
LayerCount: 2
Back
Fore
SplineSet
378 708 m 0
 575 708 736 548 736 350 c 0
 736 152 575 -8 378 -8 c 0
 180 -8 20 152 20 350 c 0
 20 548 180 708 378 708 c 0
378 630 m 0
 224 630 98 504 98 350 c 0
 98 196 224 70 378 70 c 0
 532 70 658 196 658 350 c 0
 658 504 532 630 378 630 c 0
387 541 m 2
 410 541 420 535 420 523 c 2
 420 478 l 2
 420 467 410 461 387 461 c 2
 371 461 l 2
 348 461 338 467 338 478 c 2
 338 523 l 2
 338 535 348 541 371 541 c 2
 387 541 l 2
387 424 m 2
 410 424 420 418 420 406 c 2
 420 173 l 2
 420 161 410 155 387 155 c 2
 371 155 l 2
 348 155 338 161 338 173 c 2
 338 406 l 2
 338 418 348 424 371 424 c 2
 387 424 l 2
EndSplineSet
EndChar

StartChar: B.ss05
Encoding: 65593 -1 119
Width: 756
Flags: MW
HStem: 315 75<313 443 313 443>
VStem: 224 89<173 315 390 523> 443 89<173 315 315 315 390 523>
LayerCount: 2
Back
Fore
SplineSet
378 708 m 0
 180 708 20 548 20 350 c 0
 20 152 180 -8 378 -8 c 0
 576 -8 736 152 736 350 c 0
 736 548 576 708 378 708 c 0
378 629 m 0
 532 629 657 504 657 350 c 0
 657 196 532 71 378 71 c 0
 224 71 99 196 99 350 c 0
 99 504 224 629 378 629 c 0
497 541 m 2
 521 541 532 535 532 523 c 2
 532 173 l 2
 532 161 521 155 497 155 c 2
 477 155 l 2
 453 155 443 161 443 173 c 2
 443 315 l 1
 313 315 l 1
 313 173 l 2
 313 161 303 155 279 155 c 2
 259 155 l 2
 235 155 224 161 224 173 c 2
 224 523 l 2
 224 535 235 541 259 541 c 2
 279 541 l 2
 303 541 313 535 313 523 c 2
 313 390 l 1
 443 390 l 1
 443 523 l 2
 443 535 453 541 477 541 c 2
 497 541 l 2
EndSplineSet
EndChar

StartChar: C.ss05
Encoding: 65594 -1 120
Width: 756
Flags: MW
HStem: -8 78<301 455 301 476.5> 111 96 475.01 85 630 78<301 455>
VStem: 20 78<273 427 273 449> 317 98<132.002 186.002 125.502 193.002> 427 101<430.276 449.511> 658 78<273 427>
LayerCount: 2
Back
Fore
SplineSet
378 708 m 0
 575 708 736 548 736 350 c 0
 736 152 575 -8 378 -8 c 0
 180 -8 20 152 20 350 c 0
 20 548 180 708 378 708 c 0
378 630 m 0
 224 630 98 504 98 350 c 0
 98 196 224 70 378 70 c 0
 532 70 658 196 658 350 c 0
 658 504 532 630 378 630 c 0
358 246 m 2
 336 246 326 250.001953125 326 264.001953125 c 0
 326 305.001953125 352.209960938 339.76171875 387.669921875 378.53125 c 0
 408.719726562 401.55078125 427 421.541015625 427 439.010742188 c 0
 427 460.010742188 412 475.010742188 379 475.010742188 c 0
 353.75 475.010742188 333.150390625 465.690429688 320.080078125 459.770507812 c 0
 314 457.020507812 309.540039062 455.010742188 307 455.010742188 c 0
 288 455.010742188 266 494.010742188 266 508.010742188 c 0
 266 546.010742188 337 560.010742188 388 560.010742188 c 0
 474 560.010742188 528 516.010742188 528 445.010742188 c 0
 528 389.590820312 492.0703125 360.28125 459.350585938 333.581054688 c 0xbf
 433.030273438 312.100585938 408.780273438 291.3203125 407 262 c 0
 406.190429688 248.6796875 394 246 373 246 c 2
 358 246 l 2
376 207.001953125 m 2xdd
 403 207.001953125 415 200.001953125 415 186.001953125 c 2
 415 132.001953125 l 2
 415 119.001953125 403 111.001953125 376 111.001953125 c 2
 355 111.001953125 l 2
 329 111.001953125 317 119.001953125 317 132.001953125 c 2
 317 186.001953125 l 2
 317 200.001953125 329 207.001953125 355 207.001953125 c 2
 376 207.001953125 l 2xdd
EndSplineSet
EndChar

StartChar: D.ss05
Encoding: 65595 -1 121
Width: 756
Flags: MW
HStem: -8 78<301 455 301 476.5> 149 72 472 72 630 78<301 455>
VStem: 20 78<273 427 273 449> 265 82<431.501 444.501 431.501 467.5> 376 31<124.001 149.001 118.501 149.001 227.001 298.001 402.001 469.001 469.001 469.001 544.001 562 562 562.001> 431 82<252.001 269.001> 658 78<273 427>
LayerCount: 2
Back
Fore
SplineSet
378 708 m 0
 575 708 736 548 736 350 c 0
 736 152 575 -8 378 -8 c 0
 180 -8 20 152 20 350 c 0
 20 548 180 708 378 708 c 0
378 630 m 0
 224 630 98 504 98 350 c 0
 98 196 224 70 378 70 c 0
 532 70 658 196 658 350 c 0
 658 504 532 630 378 630 c 0
376 562 m 2
 376 573 381 578.000976562 392 578.000976562 c 0x9a80
 403 578.000976562 407 573.000976562 407 562.000976562 c 2
 407 544.000976562 l 1
 459 542.000976562 496 523.000976562 496 506.000976562 c 0
 496 492.000976562 478 458.000976562 466 458.000976562 c 0
 463.26953125 458.000976562 459.599609375 459.401367188 454.569335938 461.321289062 c 0
 444.859375 465.03125 430.049804688 470.69140625 407 472.000976562 c 1
 407 387.000976562 l 1xba80
 477.759765625 357.510742188 513 332.020507812 513 272.000976562 c 0xdb80
 513 190.000976562 461 156.000976562 407 149.000976562 c 1
 407 124.000976562 l 2
 407 113.000976562 403 108.000976562 393 108.000976562 c 0
 381 108.000976562 376 113.000976562 376 124.000976562 c 2
 376 149.000976562 l 1
 299 151.000976562 257 179.000976562 257 197.000976562 c 0
 257 214.000976562 280 246.000976562 291 246.000976562 c 0
 294.200195312 246.000976562 299.459960938 243.430664062 306.599609375 239.940429688 c 0
 321.759765625 232.540039062 345.41015625 221 376 221 c 1
 376 312 l 1xda80
 300.559570312 341.25 265 365.76953125 265 431 c 0x9e80
 265 504 318 538 376 544 c 1
 376 562 l 2
376 469.000976562 m 1
 351 462.000976562 347 449.000976562 347 440.000976562 c 0x9e80
 347 423.000976562 359 412.000976562 376 402.000976562 c 1
 376 469.000976562 l 1
407 227.000976562 m 1
 421 233.000976562 431 243.000976562 431 261.000976562 c 0x9b80
 431 277.000976562 422 288.000976562 407 298.000976562 c 1
 407 227.000976562 l 1
EndSplineSet
EndChar

StartChar: E.ss05
Encoding: 65596 -1 122
Width: 756
Flags: MW
HStem: -8 78<301 455 301 476.5> 153 73<272 484 343 484 343 484> 316 72<343 469 343 469> 469 74<343 484 343 343> 630 78<301 455>
VStem: 20 78<273 427 273 449> 258 85<226 316 388 469> 658 78<273 427>
LayerCount: 2
Back
Fore
SplineSet
378 708 m 0
 575 708 736 548 736 350 c 0
 736 152 575 -8 378 -8 c 0
 180 -8 20 152 20 350 c 0
 20 548 180 708 378 708 c 0
378 630 m 0
 224 630 98 504 98 350 c 0
 98 196 224 70 378 70 c 0
 532 70 658 196 658 350 c 0
 658 504 532 630 378 630 c 0
484 543 m 2
 496 543 500 534 500 515 c 2
 500 497 l 2
 500 478 496 469 484 469 c 2
 343 469 l 1
 343 388 l 1
 469 388 l 2
 480 388 486 381 486 361 c 2
 486 343 l 2
 486 324 480 316 469 316 c 2
 343 316 l 1
 343 226 l 1
 484 226 l 2
 496 226 501 217 501 198 c 2
 501 180 l 2
 501 161 496 153 484 153 c 2
 280 153 l 2
 264 153 258 159 258 175 c 2
 258 520 l 2
 258 536 264 543 280 543 c 2
 484 543 l 2
EndSplineSet
Substitution2: "Single Substitution lookup 14 subtable" K.ss05
Substitution2: "'aalt' Access All Alternates lookup 0 subtable" K.ss05
EndChar

StartChar: F.ss05
Encoding: 65597 -1 123
Width: 756
Flags: MW
HStem: -8 78<301 455 301 476.5> 299 73<357 406 406 416 357 406> 469 72<357 406 357 357> 630 78<301 455>
VStem: 20 78<273 427 273 449> 272 85<173 299 372 469> 455 86<400 440> 658 78<273 427>
LayerCount: 2
Back
Fore
SplineSet
378 708 m 0
 575 708 736 548 736 350 c 0
 736 152 575 -8 378 -8 c 0
 180 -8 20 152 20 350 c 0
 20 548 180 708 378 708 c 0
378 630 m 0
 224 630 98 504 98 350 c 0
 98 196 224 70 378 70 c 0
 532 70 658 196 658 350 c 0
 658 504 532 630 378 630 c 0
410 541 m 2
 459 541 541 526 541 420 c 0
 541 314 445 299 416 299 c 2
 357 299 l 1
 357 173 l 2
 357 160 347 155 324 155 c 2
 305 155 l 2
 282 155 272 160 272 173 c 2
 272 518 l 2
 272 534 279 541 294 541 c 2
 410 541 l 2
357 372 m 1
 406 372 l 2
 427 372 455 380 455 420 c 0
 455 460 427 469 406 469 c 2
 357 469 l 1
 357 372 l 1
EndSplineSet
Substitution2: "Single Substitution lookup 14 subtable" L.ss05
Substitution2: "'aalt' Access All Alternates lookup 0 subtable" L.ss05
EndChar

StartChar: G.ss05
Encoding: 65598 -1 124
Width: 756
Flags: MW
HStem: -8 78<301 455 301 476.5> 571 137 630 78<301 455>
VStem: 20 78<273 427 273 449> 318 27 658 78<273 427>
LayerCount: 2
Back
Fore
SplineSet
378 708 m 0xbc
 575 708 736 548 736 350 c 0
 736 152 575 -8 378 -8 c 0
 180 -8 20 152 20 350 c 0
 20 548 180 708 378 708 c 0xbc
378 630 m 0
 224 630 98 504 98 350 c 0
 98 196 224 70 378 70 c 0
 532 70 658 196 658 350 c 0
 658 504 532 630 378 630 c 0
468 234 m 0
 466.940429688 242.110351562 465.171875 248.591796875 462.001953125 255.001953125 c 2
 416.001953125 348.001953125 l 1
 420.001953125 425.001953125 l 1
 440.001953125 396.001953125 l 2
 444.90234375 388.90234375 449.15234375 386.662109375 459.001953125 384.001953125 c 2
 491.391601562 375.251953125 l 2
 494.481445312 374.412109375 501.000976562 373.001953125 505.000976562 373.001953125 c 0
 512.491210938 373.001953125 520.000976562 378.881835938 520.000976562 391.001953125 c 0
 520.000976562 398.001953125 516.000976562 402.001953125 509.000976562 404.001953125 c 2
 466.000976562 417.001953125 l 1
 429.000976562 481.001953125 l 2
 422.720703125 491.862304688 414.000976562 499.001953125 406.000976562 503.001953125 c 1
 407.000976562 519.001953125 l 1
 413.000976562 522.001953125 417.000976562 526.001953125 418.000976562 534.001953125 c 0
 418.481445312 537.90234375 422.000976562 568.541992188 422.000976562 571.001953125 c 0
 422.000976562 582.001953125 410.000976562 591.001953125 396.000976562 591.001953125 c 0
 382.000976562 591.001953125 372.651367188 582.08203125 372.000976562 571.001953125 c 0
 371.920898438 569.362304688 370.000976562 541.001953125 370.000976562 537.001953125 c 0
 370.000976562 530.872070312 371.930664062 527.51171875 377.000976562 521.001953125 c 1
 377.000976562 513.001953125 371.000976562 509.001953125 365.000976562 506.001953125 c 0
 357.000976562 503.001953125 347.000976562 495.001953125 338.000976562 483.001953125 c 2xdc
 298.000976562 432.001953125 l 2
 289.640625 421.971679688 289.500976562 412.69140625 287.000976562 396.000976562 c 2
 283.62109375 370.37109375 l 2
 282.250976562 360.750976562 281.000976562 349.520507812 281.000976562 346.000976562 c 0
 281.000976562 338.000976562 290.000976562 333.000976562 298.000976562 333.000976562 c 0
 308.000976562 333.000976562 313.611328125 336.831054688 315.000976562 350.000976562 c 2
 321.000976562 407.000976562 l 1
 350.000976562 433.000976562 l 1
 340.000976562 344.000976562 l 1
 315.000976562 228.000976562 l 1
 269.250976562 151.220703125 l 2
 264.430664062 142.610351562 263.000976562 140.0703125 263.000976562 138 c 0
 263.000976562 133 267.130859375 129.190429688 273.000976562 125 c 0
 280.000976562 120 284.000976562 117 288.000976562 117 c 0
 292.000976562 117 295.000976562 119 297.000976562 122 c 2
 340.000976562 188 l 2
 349.140625 202.030273438 355.66015625 214.379882812 359 224 c 2
 384 296 l 1
 425 230 l 1
 441 122 l 2
 442.23046875 113.690429688 452 111 464 111 c 0
 474 111 482 115 482 120 c 0
 482 132.33984375 469.700195312 220.91015625 468 234 c 0
EndSplineSet
Substitution2: "Single Substitution lookup 14 subtable" M.ss05
Substitution2: "'aalt' Access All Alternates lookup 0 subtable" M.ss05
EndChar

StartChar: H.ss05
Encoding: 65599 -1 125
Width: 756
Flags: MW
HStem: -8 78<301 455 301 476.5> 630 78<301 455>
VStem: 20 78<273 427 273 449> 658 78<273 427>
LayerCount: 2
Back
Fore
SplineSet
378 708 m 0
 575 708 736 548 736 350 c 0
 736 152 575 -8 378 -8 c 0
 180 -8 20 152 20 350 c 0
 20 548 180 708 378 708 c 0
378 630 m 0
 224 630 98 504 98 350 c 0
 98 196 224 70 378 70 c 0
 532 70 658 196 658 350 c 0
 658 504 532 630 378 630 c 0
501 355 m 1
 517 405 l 1
 559 405 l 2
 572 405 580.259765625 410.33984375 585 421 c 0
 589 430 591 437 591 442 c 0
 591 447.290039062 588.280273438 450.8203125 581 455 c 2
 520 490 l 1
 520 519 l 2
 520 521 518 523 515 523 c 0
 513 523 510.759765625 522.209960938 509 520 c 2
 420 408 l 1
 204 430 l 1
 204 415 217 395 232 389 c 1
 227.66015625 320.330078125 219 190.799804688 219 183 c 0
 219 173 227 169 243 169 c 0
 259 169 269.400390625 173.08984375 271 183 c 2
 291 307 l 1
 324 293 359 287 386 287 c 2
 436 287 l 1
 445 183 l 2
 445.950195312 171.959960938 459 169 474 169 c 0
 491 169 501 173 501 183 c 2
 501 355 l 1
EndSplineSet
Substitution2: "Single Substitution lookup 14 subtable" N.ss05
Substitution2: "'aalt' Access All Alternates lookup 0 subtable" N.ss05
EndChar

StartChar: I.ss05
Encoding: 65600 -1 126
Width: 756
Flags: MW
HStem: -8 78<301 455 301 476.5> 164 32<281 333 310 333 333 336.5 367 390 390 393 423 446 446 449.5> 215 16<307 333 310 333 367 390 423 446> 250 15<307 333 310 333 367 390 423 446> 285 35<307 310 310 333 363.5 367 367 390 420 423 423 446> 494 29<301 410 447 456 301 301> 630 78<301 455>
VStem: 20 78<273 427 273 449> 271 30<197.5 199 199 211 232.5 234 234 246 267.5 269 269 281 320 494> 343 14<199 211 197.5 213 234 246 269 281> 400 14<199 211 197.5 213 234 246 269 281> 456 30<199 211 211 213 234 246 246 248 269 281 281 283 320 494 494 494> 658 78<273 427>
LayerCount: 2
Back
Fore
SplineSet
378 708 m 0
 575 708 736 548 736 350 c 0
 736 152 575 -8 378 -8 c 0
 180 -8 20 152 20 350 c 0
 20 548 180 708 378 708 c 0
378 630 m 0
 224 630 98 504 98 350 c 0
 98 196 224 70 378 70 c 0
 532 70 658 196 658 350 c 0
 658 504 532 630 378 630 c 0
468 523 m 2
 480 523 486 519 486 513 c 2
 486 175 l 2
 486 169 481 164 470 164 c 2
 287 164 l 2
 275 164 271 169 271 175 c 2
 271 513 l 2
 271 519 277 523 289 523 c 2
 410 523 l 1
 414 535 l 2
 415.599609375 539.809570312 419 541 426 541 c 2
 431 541 l 2
 438 541 442.969726562 539.099609375 444 535 c 2
 447 523 l 1
 468 523 l 2
456 320 m 1x0c90
 456 494 l 1
 301 494 l 1
 301 320 l 1
 456 320 l 1x0c90
343 269 m 2x10c0
 343 281 l 2
 343 285 340 285 333 285 c 2
 310 285 l 2
 304 285 301 285 301 281 c 2x08c0
 301 269 l 2
 301 266 304 265 310 265 c 2
 333 265 l 2
 340 265 343 266 343 269 c 2x10c0
400 269 m 2x1060
 400 281 l 2
 400 285 396 285 390 285 c 2
 367 285 l 2
 360 285 357 285 357 281 c 2x0860
 357 269 l 2
 357 266 360 265 367 265 c 2
 390 265 l 2
 396 265 400 266 400 269 c 2x1060
456 269 m 2x1030
 456 281 l 2
 456 285 453 285 446 285 c 2
 423 285 l 2
 417 285 414 285 414 281 c 2x28f0
 414 269 l 2
 414 266 417 265 423 265 c 2
 446 265 l 2
 453 265 456 266 456 269 c 2x1030
343 234 m 2
 343 246 l 2
 343 250 340 250 333 250 c 2
 310 250 l 2
 304 250 301 250 301 246 c 2x10c0
 301 234 l 2
 301 231 304 231 310 231 c 2
 333 231 l 2
 340 231 343 231 343 234 c 2
400 234 m 2x2060
 400 246 l 2
 400 250 396 250 390 250 c 2
 367 250 l 2
 360 250 357 250 357 246 c 2x1060
 357 234 l 2
 357 231 360 231 367 231 c 2
 390 231 l 2
 396 231 400 231 400 234 c 2x2060
456 234 m 2x2030
 456 246 l 2
 456 250 453 250 446 250 c 2
 423 250 l 2
 417 250 414 250 414 246 c 2x50f0
 414 234 l 2
 414 231 417 231 423 231 c 2
 446 231 l 2
 453 231 456 231 456 234 c 2x2030
343 199 m 2
 343 211 l 2
 343 215 340 215 333 215 c 2
 310 215 l 2
 304 215 301 215 301 211 c 2x20c0
 301 199 l 2
 301 196 304 196 310 196 c 2
 333 196 l 2
 340 196 343 196 343 199 c 2
400 199 m 2x4060
 400 211 l 2
 400 215 396 215 390 215 c 2
 367 215 l 2
 360 215 357 215 357 211 c 2x2060
 357 199 l 2
 357 196 360 196 367 196 c 2
 390 196 l 2
 396 196 400 196 400 199 c 2x4060
456 199 m 2x4030
 456 211 l 2
 456 215 453 215 446 215 c 2
 423 215 l 2
 417 215 414 215 414 211 c 2x2030
 414 199 l 2
 414 196 417 196 423 196 c 2
 446 196 l 2
 453 196 456 196 456 199 c 2x4030
EndSplineSet
Substitution2: "Single Substitution lookup 14 subtable" O.ss05
Substitution2: "'aalt' Access All Alternates lookup 0 subtable" O.ss05
EndChar

StartChar: J.ss05
Encoding: 65601 -1 127
Width: 756
Flags: MW
HStem: -8 78<301 455 301 476.5> 235 47<162 518 165 518 532 553 165 532 566 584> 400 22<377.5 503 401 503> 435 22<387 503 401 503> 548 22<383.5 418.5> 630 78<301 455>
VStem: 20 78<273 427 273 449> 316 21<467.5 502.5 467.5 508.5> 350 22<486 487 478 488.5> 464 22<484 485 482.5 502.5> 532 21<235 282 235 282 307 371> 566 22<306 307 307 371> 658 78<273 427>
LayerCount: 2
Back
Fore
SplineSet
378 708 m 0
 575 708 736 548 736 350 c 0
 736 152 575 -8 378 -8 c 0
 180 -8 20 152 20 350 c 0
 20 548 180 708 378 708 c 0
378 630 m 0
 224 630 98 504 98 350 c 0
 98 196 224 70 378 70 c 0
 532 70 658 196 658 350 c 0
 658 504 532 630 378 630 c 0
553 307 m 2
 553 304 551 302 545 302 c 2
 540 302 l 2
 534 302 532 304 532 307 c 2
 532 371 l 2
 532 387 519 400 503 400 c 2
 401 400 l 2
 354 400 316 438 316 485 c 0
 316 532 354 570 401 570 c 0
 448 570 486 532 486 485 c 2
 486 484 l 2
 486 481 483 480 477 480 c 2
 473 480 l 2
 467 480 464 481 464 484 c 2
 464 485 l 2
 464 520 436 548 401 548 c 0
 366 548 337 520 337 485 c 0
 337 450 366 422 401 422 c 0
 436 422 475 422 503 422 c 0
 531 422 553 399 553 371 c 2x2960
 553 307 l 2
588 307 m 2x5090
 588 304 585 302 579 302 c 2
 574 302 l 2
 569 302 566 303 566 306 c 2
 566 371 l 2
 566 406 538 435 503 435 c 2
 401 435 l 2
 373 435 350 457 350 486 c 2
 350 487 l 2
 350 490 353 491 358 491 c 2
 363 491 l 2
 369 491 372 491 372 487 c 2
 372 486 l 2
 372 470 385 457 401 457 c 2
 503 457 l 2
 550 457 588 419 588 371 c 2
 588 307 l 2x5090
518 282 m 1
 518 235 l 1
 165 235 l 2
 159 235 156 241 156 252 c 2
 156 266 l 2
 156 277 159 282 165 282 c 2
 518 282 l 1
532 235 m 1x4020
 532 282 l 1
 553 282 l 1
 553 235 l 1
 532 235 l 1x4020
593 252 m 2x4010
 593 241 590 235 584 235 c 2
 566 235 l 1
 566 282 l 1
 584 282 l 2
 590 282 593 277 593 266 c 2
 593 252 l 2x4010
EndSplineSet
Substitution2: "Single Substitution lookup 14 subtable" P.ss05
Substitution2: "'aalt' Access All Alternates lookup 0 subtable" P.ss05
EndChar

